<svg xmlns="http://www.w3.org/2000/svg" xmlns:xlink="http://www.w3.org/1999/xlink" x="0px" y="0px" viewBox="0 0 128.1 30" style="enable-background:new 0 0 128.1 30;" xml:space="preserve"><style type="text/css">	.str0{fill:#FFFFFF;}	.str1{clip-path:url(#STR_2_);}	.str2{fill:#FCC004;}</style><g transform="translate(-857 -9123.514)">	<path class="str0" d="M975.6,9130.5l-2.6,7.2l-6.9,0.5l5.4,4.9l-1.7,7.5l5.9-4.1l5.9,4.1l-1.7-7.5l5.4-4.9l-6.9-0.5  L975.6,9130.5z"></path>	<g>		<defs>			<rect id="STR_1_" x="857" y="9123.5" width="123" height="30"></rect>		</defs>		<clipPath id="STR_2_">			<use xlink:href="#STR_1_" style="overflow:visible;"></use>		</clipPath>		<g id="Mask_Group_127623" class="str1">			<path id="Path_153" class="str2" d="M975.6,9130.5l-2.8,7.2l-7.7,0.5l5.9,4.9l-1.9,7.5l6.5-4.1l6.5,4.1l-1.9-7.5l5.9-4.9l-7.7-0.5    L975.6,9130.5z"></path>			<path id="Path_152" class="str2" d="M948.6,9130.5l-2.8,7.2l-7.7,0.5l5.9,4.9l-1.9,7.5l6.5-4.1l6.5,4.1l-1.9-7.5l5.9-4.9l-7.7-0.5    L948.6,9130.5z"></path>			<path id="Path_151" class="str2" d="M921.6,9130.5l-2.8,7.2l-7.7,0.5l5.9,4.9l-1.9,7.5l6.5-4.1l6.5,4.1l-1.9-7.5l5.9-4.9l-7.7-0.5    L921.6,9130.5z"></path>			<path id="Path_150" class="str2" d="M894.5,9130.5l-2.8,7.2l-7.7,0.5l5.9,4.9l-1.9,7.5l6.5-4.1l6.5,4.1l-1.9-7.5l5.9-4.9l-7.7-0.5    L894.5,9130.5z"></path>			<path id="Path_149" class="str2" d="M867.5,9130.5l-2.8,7.2l-7.7,0.5l5.9,4.9l-1.9,7.5l6.5-4.1l6.5,4.1l-1.9-7.5l5.9-4.9l-7.7-0.5    L867.5,9130.5z"></path>		</g>	</g></g></svg>