<svg xmlns="http://www.w3.org/2000/svg" xmlns:xlink="http://www.w3.org/1999/xlink" x="0px" y="0px" viewBox="0 0 28 31" style="enable-background:new 0 0 28 31;" xml:space="preserve"><g transform="translate(336.401 538.965)">	<g>		<path d="M-329.8-533.1l0.7,4.2c0.1,0.3,0.1,0.7,0.1,1c0,0.2,0.1,0.3,0.3,0.3h0c0.2,0,0.3-0.2,0.3-0.3c0-0.3-0.1-0.7-0.1-1   l-0.6-3.4c1.9,1.3,4.6,0.8,5.9-1.1c0.5-0.7,0.8-1.6,0.8-2.4c0-0.2-0.1-0.3-0.3-0.3c-0.2,0-0.3,0.1-0.3,0.3c0,2-1.6,3.6-3.6,3.6   c-2,0-3.6-1.6-3.6-3.6c0-0.7,0.2-1.4,0.6-2c0.1-0.1,0.1-0.3-0.1-0.4c-0.1-0.1-0.3-0.1-0.4,0.1l0,0   C-331.3-536.7-331.1-534.6-329.8-533.1L-329.8-533.1z"></path>		<path d="M-328.6-527.2c-0.5,0-0.8-0.3-0.9-0.7c0-0.3-0.1-0.6-0.1-1l-0.7-4c-1.4-1.6-1.5-3.9-0.3-5.7c0.1-0.2,0.3-0.3,0.5-0.3   c0.2,0,0.4,0,0.6,0.1c0.2,0.1,0.3,0.3,0.3,0.5s0,0.4-0.1,0.6c-0.3,0.5-0.5,1.1-0.5,1.7c0,0.8,0.3,1.6,0.9,2.2   c0.6,0.6,1.4,0.9,2.2,0.9c0,0,0,0,0,0c1.7,0,3.1-1.4,3.1-3.1c0-0.4,0.4-0.8,0.8-0.8c0.4,0,0.8,0.4,0.8,0.8c0,1-0.3,1.9-0.8,2.7   c-1.3,1.8-3.6,2.5-5.6,1.7l0.4,2.4c0.1,0.4,0.1,0.7,0.1,1.1C-327.9-527.6-328.2-527.2-328.6-527.2z M-330.1-538.3   C-330.1-538.3-330.1-538.3-330.1-538.3C-330.1-538.3-330.1-538.3-330.1-538.3z"></path>	</g>	<g>		<path d="M-312.1-514.2L-312.1-514.2c-0.2,0-0.3,0.1-0.3,0.3c0,0,0,0,0,0c0,0.8,0,1.7-0.2,2.5l-0.4,2.5c0,0.2,0.1,0.3,0.3,0.3   c0.2,0,0.3-0.1,0.3-0.2l0.4-2.5c0.1-0.9,0.2-1.7,0.2-2.6C-311.9-514-312-514.2-312.1-514.2L-312.1-514.2z"></path>		<path d="M-312.7-508C-312.7-508-312.8-508-312.7-508c-0.5,0-0.8-0.4-0.8-0.9l0.4-2.6c0.1-0.7,0.2-1.5,0.2-2.2l-0.3,0l0.3-0.3   c0.1-0.4,0.4-0.6,0.8-0.6l1.1,0l-0.4,0.5c0.1,0.1,0.1,0.2,0.1,0.4c0,0.9,0,1.8-0.2,2.7l-0.4,2.5C-312-508.2-312.3-508-312.7-508z"></path>	</g>	<g>		<path d="M-316.5-514.8l-5.5,2.6l-9.2-4.4c0.1-0.5,0.3-1.1,0.5-1.6c2.9,0.7,5.8,1.1,8.8,1c2.9,0,5.7-0.3,8.5-1.1   c0.1,0.2,0.1,0.4,0.2,0.5c0.1,0.2,0.2,0.2,0.4,0.2c0.2-0.1,0.2-0.2,0.2-0.4c-0.1-0.3-0.2-0.5-0.3-0.8l-1.2-2.9   c-1-2.3-1.3-4.9-0.8-7.4l0.7-4.2l0,0c1.3-1.4,1.5-3.5,0.5-5.1c-0.1-0.1-0.3-0.2-0.4-0.1c-0.1,0.1-0.2,0.3-0.1,0.4   c1,1.7,0.5,3.9-1.2,5c-1.7,1-3.9,0.5-5-1.2c-0.3-0.6-0.5-1.2-0.5-1.9c0-0.2-0.2-0.3-0.3-0.3c-0.2,0-0.3,0.1-0.3,0.3   c0,2.3,1.9,4.2,4.2,4.2c0.9,0,1.7-0.3,2.4-0.8l-0.6,3.4c-0.4,2.6-0.1,5.3,0.9,7.8l1,2.6c-5.6,1.3-11.3,1.3-16.9,0l1.1-2.6   c0.1-0.2,0-0.3-0.2-0.4c-0.2-0.1-0.3,0-0.4,0.2l-1.2,2.9c-0.3,0.7-0.5,1.4-0.7,2.1c0,0,0,0.1,0,0.1c-0.4,1.7-0.4,3.4-0.2,5.1   l0.4,2.5c0,0.2,0.2,0.3,0.3,0.3c0.2,0,0.3-0.2,0.3-0.3c0,0,0,0,0,0l-0.4-2.5c-0.2-1.5-0.2-3.1,0.1-4.6l9,4.3v2.9   c0,0.2,0.2,0.3,0.3,0.3c0.2,0,0.3-0.1,0.3-0.3v-2.9l5.4-2.6c0.1-0.1,0.2-0.3,0.1-0.4C-316.2-514.8-316.4-514.9-316.5-514.8   L-316.5-514.8z"></path>		<path d="M-331.3-508c-0.4,0-0.8-0.3-0.8-0.7l-0.4-2.5c-0.3-1.8-0.2-3.5,0.2-5.3c0-0.1,0-0.2,0.1-0.2c0.1-0.7,0.4-1.4,0.7-2.1   l1.2-2.9c0.2-0.4,0.6-0.6,1-0.4c0.4,0.2,0.6,0.6,0.5,1l-0.8,2c5.1,1.1,10.4,1.1,15.5,0l-0.8-2c-1-2.5-1.4-5.3-0.9-8l0.4-2.4   c-0.6,0.2-1.1,0.3-1.8,0.3c0,0,0,0,0,0c-1.3,0-2.5-0.5-3.3-1.4c-0.9-0.9-1.4-2.1-1.4-3.3c0-0.4,0.4-0.8,0.8-0.8   c0.2,0,0.4,0.1,0.6,0.2c0.2,0.1,0.3,0.3,0.3,0.6c0,0.6,0.2,1.2,0.5,1.7c0.9,1.5,2.8,1.9,4.3,1c1.5-0.9,1.9-2.8,1-4.3   c-0.2-0.4-0.1-0.8,0.2-1.1c0.2-0.1,0.4-0.2,0.6-0.1c0.2,0,0.4,0.2,0.5,0.3c1.1,1.8,0.9,4-0.4,5.6l-0.7,4c-0.4,2.4-0.1,4.9,0.8,7.2   l1.2,3c0.1,0.2,0.2,0.5,0.3,0.7c0.1,0.4-0.1,0.9-0.5,1c-0.2,0.1-0.4,0.1-0.6,0c-0.2-0.1-0.3-0.3-0.4-0.5c0,0,0-0.1,0-0.1   c-2.7,0.6-5.4,1-8.1,1c-0.1,0-0.2,0-0.3,0c-2.8,0-5.6-0.3-8.4-1c-0.1,0.2-0.2,0.5-0.2,0.7l8.6,4.1l5.3-2.5c0.4-0.2,0.8,0,1,0.4   c0.1,0.2,0.1,0.4,0.1,0.6s-0.2,0.4-0.4,0.5l-5.2,2.5v2.5c0,0.4-0.4,0.8-0.8,0.8c-0.2,0-0.4-0.1-0.6-0.2s-0.3-0.3-0.3-0.6l0-2.6   l-8.1-3.9c-0.2,1.3-0.2,2.5,0,3.8l0.4,2.5C-330.5-508.4-330.8-508-331.3-508C-331.3-508-331.3-508-331.3-508z M-331.1-508.8   L-331.1-508.8C-331.1-508.8-331.1-508.8-331.1-508.8z M-313-517.7C-313-517.7-313-517.7-313-517.7C-313-517.7-313-517.7-313-517.7   z M-312.7-517.8C-312.7-517.8-312.7-517.8-312.7-517.8C-312.7-517.8-312.7-517.8-312.7-517.8z"></path>	</g>	<g>		<path d="M-322-522.3c0.2,0,0.3-0.1,0.3-0.3c0,0,0,0,0,0v-0.3c0-0.2-0.1-0.3-0.3-0.3c-0.2,0-0.3,0.1-0.3,0.3c0,0,0,0,0,0v0.3   C-322.3-522.4-322.2-522.3-322-522.3L-322-522.3L-322-522.3z"></path>		<path d="M-322-521.8c-0.4,0-0.8-0.4-0.8-0.8v-0.3c0-0.5,0.4-0.9,0.9-0.8c0.4,0,0.8,0.4,0.8,0.9l0,0.3   C-321.2-522.2-321.6-521.8-322-521.8z M-322.1-522.8C-322.1-522.8-322.1-522.8-322.1-522.8c0.1,0,0.1,0,0.2,0   C-322-522.8-322-522.8-322.1-522.8z M-322.2-522.9C-322.2-522.9-322.2-522.9-322.2-522.9L-322.2-522.9z"></path>	</g>	<g>		<path d="M-326.8-523.4c0.2,0,0.3-0.1,0.4-0.2c0,0,0,0,0,0c0.1-0.4,0.2-0.8,0.2-1.2c0-0.2-0.1-0.3-0.3-0.3c-0.2,0-0.3,0.1-0.3,0.3   c0,0.4-0.1,0.8-0.2,1.2C-327-523.6-326.9-523.4-326.8-523.4C-326.8-523.4-326.8-523.4-326.8-523.4L-326.8-523.4z"></path>		<path d="M-326.7-522.8c-0.1,0-0.1,0-0.2,0c-0.2-0.1-0.4-0.2-0.5-0.4s-0.1-0.4-0.1-0.6c0.1-0.4,0.2-0.7,0.2-1.1   c0.1-0.4,0.4-0.7,0.9-0.7c0.2,0,0.4,0.1,0.5,0.3s0.2,0.4,0.2,0.6c-0.1,0.5-0.1,0.9-0.2,1.3C-326-523.1-326.3-522.8-326.7-522.8z"></path>	</g>	<g>		<path d="M-327.9-520.9c0.1,0.1,0.3,0,0.4-0.1c0.2-0.4,0.4-0.7,0.6-1.1c0.1-0.1,0-0.3-0.1-0.4c-0.1-0.1-0.3,0-0.4,0.1c0,0,0,0,0,0   c-0.2,0.4-0.3,0.7-0.6,1C-328.1-521.2-328.1-521-327.9-520.9L-327.9-520.9z"></path>		<path d="M-327.8-520.3c-0.1,0-0.3,0-0.4-0.1l0,0c-0.4-0.2-0.5-0.7-0.3-1.1c0.2-0.3,0.4-0.6,0.5-1c0.2-0.5,0.7-0.6,1.1-0.4   c0.4,0.2,0.5,0.7,0.3,1.1c-0.2,0.4-0.4,0.8-0.6,1.1C-327.2-520.5-327.5-520.3-327.8-520.3z M-327.4-522.3   C-327.4-522.3-327.4-522.3-327.4-522.3C-327.4-522.3-327.4-522.3-327.4-522.3z"></path>	</g>	<g>		<path d="M-326.3-527.7c0-0.2-0.2-0.3-0.4-0.2c-0.2,0-0.3,0.2-0.2,0.4l0,0c0.1,0.4,0.1,0.8,0.1,1.2c0,0.2,0.2,0.3,0.3,0.3   s0.3-0.2,0.3-0.3l0,0C-326.2-526.8-326.2-527.2-326.3-527.7L-326.3-527.7z"></path>		<path d="M-326.4-525.6c-0.4,0-0.8-0.3-0.8-0.8c0-0.4-0.1-0.7-0.1-1.1c0-0.2,0-0.4,0.1-0.6c0.1-0.2,0.3-0.3,0.5-0.3   c0.2,0,0.4,0,0.6,0.1c0.2,0.1,0.3,0.3,0.3,0.5c0.1,0.4,0.1,0.9,0.2,1.3C-325.6-526-326-525.6-326.4-525.6   C-326.4-525.6-326.4-525.6-326.4-525.6z M-326.8-527.6L-326.8-527.6C-326.8-527.6-326.8-527.5-326.8-527.6   C-326.8-527.5-326.8-527.6-326.8-527.6z"></path>	</g>	<g>		<path d="M-326.9-528.8c0.2-0.1,0.2-0.2,0.2-0.4c-0.1-0.4-0.3-0.8-0.5-1.2c-0.1-0.1-0.3-0.2-0.4-0.1c-0.1,0.1-0.2,0.3-0.1,0.4   c0.2,0.3,0.3,0.7,0.5,1.1C-327.2-528.8-327-528.7-326.9-528.8L-326.9-528.8z"></path>		<path d="M-327-528.3c-0.3,0-0.6-0.2-0.8-0.5c-0.1-0.4-0.3-0.7-0.4-1c-0.2-0.4-0.1-0.8,0.3-1c0.2-0.1,0.4-0.2,0.6-0.1   c0.2,0,0.4,0.2,0.5,0.3c0.2,0.4,0.4,0.9,0.6,1.3c0.1,0.4-0.1,0.9-0.5,1l0,0C-326.8-528.3-326.9-528.3-327-528.3z M-327.2-529   C-327.2-529-327.2-529-327.2-529C-327.2-529-327.2-529-327.2-529z"></path>	</g>	<g>		<path d="M-317.7-527.7c-0.1,0.4-0.1,0.8-0.2,1.3c0,0.2,0.1,0.3,0.3,0.3h0c0.2,0,0.3-0.1,0.3-0.3c0-0.4,0.1-0.8,0.1-1.2   c0-0.2-0.1-0.3-0.2-0.4C-317.5-527.9-317.7-527.8-317.7-527.7L-317.7-527.7L-317.7-527.7z"></path>		<path d="M-317.6-525.6c-0.5,0-0.8-0.4-0.8-0.9c0-0.2,0-0.5,0.1-0.7h0l0.1-0.6c0.1-0.4,0.5-0.7,0.9-0.6c0.2,0,0.4,0.2,0.5,0.3   c0.1,0.2,0.2,0.4,0.1,0.6c-0.1,0.4-0.1,0.7-0.1,1.1C-316.8-525.9-317.2-525.6-317.6-525.6z M-317.8-526.4   C-317.8-526.4-317.8-526.4-317.8-526.4C-317.8-526.4-317.8-526.4-317.8-526.4z"></path>	</g>	<g>		<path d="M-316.4-530.5c-0.1-0.1-0.3,0-0.4,0.1c-0.2,0.4-0.4,0.8-0.5,1.2c0,0.2,0.1,0.3,0.2,0.4c0.1,0,0.3,0,0.4-0.2   c0.1-0.4,0.3-0.7,0.5-1.1C-316.2-530.2-316.2-530.4-316.4-530.5C-316.4-530.5-316.4-530.5-316.4-530.5L-316.4-530.5z"></path>		<path d="M-317-528.3c-0.1,0-0.1,0-0.2,0c-0.4-0.1-0.7-0.5-0.6-1c0.2-0.5,0.3-0.9,0.6-1.3c0.1-0.1,0.2-0.2,0.3-0.3l-0.1-0.6   l0.9,0.5c0.4,0.2,0.5,0.7,0.3,1.1l0,0.3l-0.1-0.1c-0.1,0.3-0.2,0.5-0.3,0.8C-316.4-528.5-316.7-528.3-317-528.3z M-316.7-530.3   C-316.7-530.3-316.7-530.3-316.7-530.3C-316.7-530.3-316.7-530.3-316.7-530.3z"></path>	</g>	<g>		<path d="M-317-523.7c-0.1-0.4-0.2-0.8-0.2-1.2c0-0.2-0.2-0.3-0.3-0.3s-0.3,0.2-0.3,0.3c0,0.4,0.1,0.8,0.2,1.2   c0,0.2,0.2,0.3,0.4,0.2C-317.1-523.4-317-523.6-317-523.7L-317-523.7z"></path>		<path d="M-317.3-522.9c-0.1,0-0.3,0-0.4-0.1c-0.2-0.1-0.3-0.3-0.4-0.5c-0.1-0.4-0.2-0.9-0.2-1.3c0-0.2,0-0.4,0.2-0.6   s0.3-0.3,0.5-0.3c0.4,0,0.8,0.3,0.9,0.7c0,0.4,0.1,0.7,0.2,1.1c0.1,0.2,0,0.4-0.1,0.6c-0.1,0.2-0.3,0.3-0.5,0.4   C-317.2-522.9-317.3-522.9-317.3-522.9z"></path>	</g>	<g>		<path d="M-316.5-521c0.1,0.1,0.3,0.2,0.4,0.1s0.2-0.3,0.1-0.4c0,0,0,0,0,0c-0.2-0.3-0.4-0.7-0.6-1c-0.1-0.1-0.3-0.2-0.4-0.1   c-0.1,0.1-0.2,0.2-0.1,0.4C-316.9-521.7-316.7-521.3-316.5-521L-316.5-521z"></path>		<path d="M-316.2-520.3c-0.1,0-0.2,0-0.2,0c-0.2-0.1-0.4-0.2-0.5-0.4c-0.2-0.4-0.4-0.8-0.6-1.2c-0.2-0.4,0-0.8,0.4-1   c0.2-0.1,0.4-0.1,0.6-0.1c0.2,0.1,0.4,0.2,0.5,0.4c0.2,0.4,0.3,0.7,0.5,1c0.1,0.2,0.2,0.5,0.1,0.7s-0.2,0.4-0.4,0.5   C-316-520.4-316.1-520.3-316.2-520.3z"></path>	</g>	<g>		<path d="M-313.3-525.7c-0.2,0-0.3,0.1-0.4,0.2s0.1,0.3,0.2,0.4c2.5,0.5,4.1,2.8,3.8,5.3c-0.4,2.4-2.5,4.1-4.9,3.9l0.5-0.7   c0.1-0.1,0.1-0.3-0.1-0.4c-0.1-0.1-0.3-0.1-0.4,0.1l-0.7,1.1c0,0.1-0.1,0.2-0.1,0.2c0,0.1,0,0.2,0.1,0.3l1,1.1   c0.1,0.1,0.3,0.1,0.4,0c0.1-0.1,0.1-0.3,0-0.4l-0.5-0.6h0.1c2.6,0,4.8-1.9,5.2-4.5C-308.6-522.6-310.5-525.2-313.3-525.7   L-313.3-525.7z"></path>		<path d="M-314-513.7c-0.2,0-0.4-0.1-0.6-0.2l-1.1-1.1c-0.1-0.1-0.2-0.3-0.3-0.6c0-0.2,0.1-0.4,0.1-0.5l0.7-1.1   c0.1-0.2,0.3-0.3,0.5-0.3c0.2,0,0.4,0,0.6,0.1c0.2,0.1,0.3,0.3,0.3,0.5c0,0.2,0,0.3-0.1,0.5c1.8-0.3,3.2-1.6,3.5-3.5   c0.3-2.2-1.2-4.3-3.4-4.7c-0.4-0.1-0.7-0.5-0.6-0.9c0-0.1,0.1-0.2,0.2-0.3l-0.3-0.5l1.1,0.2c3.1,0.6,5.1,3.5,4.7,6.6   c-0.4,2.5-2.3,4.4-4.7,4.8c0.1,0.3,0.1,0.6-0.1,0.9C-313.5-513.8-313.7-513.7-314-513.7C-313.9-513.7-314-513.7-314-513.7z    M-313.4-525.3C-313.4-525.3-313.4-525.3-313.4-525.3L-313.4-525.3z"></path>	</g>	<g>		<path d="M-333-516.2c-2.2-1.3-2.9-4.1-1.7-6.3c1.2-2.1,3.8-3,6-2l-0.7,0.5c-0.1,0.1-0.2,0.3-0.1,0.4c0.1,0.1,0.3,0.2,0.4,0.1   c0,0,0,0,0,0l1-0.8c0.1-0.1,0.1-0.1,0.2-0.2c0-0.1,0-0.2,0-0.3l-0.6-1.4c-0.1-0.2-0.3-0.2-0.4-0.1c-0.1,0.1-0.2,0.2-0.1,0.4   l0.3,0.7c-2.4-0.9-5.2,0.1-6.5,2.4c-1.4,2.5-0.5,5.6,1.9,7.1c0.1,0.1,0.3,0.1,0.4-0.1C-332.8-515.9-332.8-516.1-333-516.2   C-333-516.2-333-516.2-333-516.2L-333-516.2z"></path>		<path d="M-333.2-515.1c-0.2,0-0.3,0-0.5-0.1c-2.7-1.6-3.6-5-2.1-7.8c1.2-2.2,3.7-3.3,6.1-2.9c0-0.3,0.1-0.6,0.4-0.8   c0.2-0.1,0.4-0.1,0.6,0c0.2,0.1,0.4,0.2,0.5,0.4l0.6,1.4c0.1,0.2,0.1,0.4,0.1,0.6c-0.1,0.2-0.2,0.4-0.3,0.5l-1,0.8   c-0.4,0.3-0.9,0.2-1.2-0.2c-0.1-0.2-0.2-0.4-0.1-0.6c0-0.2,0.1-0.3,0.2-0.4c-1.7-0.4-3.6,0.4-4.5,2.1c-1.1,1.9-0.4,4.4,1.4,5.5   l0.2,0.1c0.2,0.1,0.3,0.3,0.3,0.5c0,0.2,0,0.4-0.1,0.6l0,0.3l-0.2-0.1c-0.1,0.1-0.3,0.2-0.4,0.2   C-333.1-515.1-333.1-515.1-333.2-515.1z M-333.1-516.1C-333.1-516.1-333.1-516.1-333.1-516.1L-333.1-516.1   C-333.1-516.1-333.1-516.1-333.1-516.1z M-329.1-523.6L-329.1-523.6C-329.1-523.6-329.1-523.6-329.1-523.6z"></path>	</g></g></svg>