<svg xmlns="http://www.w3.org/2000/svg" xmlns:xlink="http://www.w3.org/1999/xlink" x="0px" y="0px" viewBox="0 0 129.3 129.3" style="enable-background:new 0 0 129.3 129.3;" xml:space="preserve"><style type="text/css">	.gbox0{fill:currentColor;}</style><g transform="translate(-1499.972 -661.309)">	<path class="gbox0" d="M1614.1,790.6h-99.1c-8.3,0-15.1-6.8-15.1-15.1v-99.1c0-8.3,6.8-15.1,15.1-15.1h99.1  c8.3,0,15.1,6.8,15.1,15.1v99.1C1629.2,783.8,1622.5,790.6,1614.1,790.6L1614.1,790.6z M1515.1,663.7c-7,0-12.7,5.7-12.7,12.7v99  c0,7,5.7,12.7,12.7,12.7h69.4c23.4,0,42.4-19,42.4-42.4c0,0,0,0,0,0v-69.4c0-7-5.7-12.7-12.7-12.7l0,0L1515.1,663.7L1515.1,663.7z"></path>	<path class="gbox0" d="M1525.8,674c-4.7,0-8.5,3.8-8.5,8.5v13.3c0,4.7,3.8,8.5,8.5,8.5h13.3c4.7,0,8.5-3.8,8.5-8.5  v-13.3c0-4.7-3.8-8.5-8.5-8.5L1525.8,674z"></path>	<path class="gbox0" d="M1525.8,711.5c-4.7,0-8.5,3.8-8.5,8.5v13.3c0,4.7,3.8,8.5,8.5,8.5h13.3c4.7,0,8.5-3.8,8.5-8.5  V720c0-4.7-3.8-8.5-8.5-8.5L1525.8,711.5z"></path>	<path class="gbox0" d="M1525.8,748.9c-4.7,0-8.5,3.8-8.5,8.5v13.3c0,4.7,3.8,8.5,8.5,8.5h13.3c4.7,0,8.5-3.8,8.5-8.5  v-13.3c0-4.7-3.8-8.5-8.5-8.5L1525.8,748.9z"></path></g></svg>