<svg xmlns="http://www.w3.org/2000/svg" xmlns:xlink="http://www.w3.org/1999/xlink" x="0px" y="0px" viewBox="0 0 40.3 36.2" style="enable-background:new 0 0 40.3 36.2;" xml:space="preserve"><g transform="translate(951 1920.05)">	<g>		<path d="M-943.2-1889.7c-0.1,0-0.2,0-0.3-0.1c-0.5-0.3-0.9-0.6-1.4-0.9c-1.6,1.1-3.8,0.6-5-1c-1.5-1.6-1.6-4.1-0.1-5.9   c0.6-0.6,1.2-0.9,2-1.1c0.1-7.4,6.1-13.4,13.5-13.4c0,0,0,0,0,0c3.4,0,6.7,1.5,8.9,4.1c0.2,0.3,0.2,0.7-0.1,0.9   c-0.3,0.2-0.7,0.2-0.9-0.1c-2-2.3-4.9-3.7-7.9-3.7c0,0,0,0,0,0c-6.7,0-12.2,5.5-12.2,12.2v0.5c0,0.2-0.1,0.4-0.2,0.5   c-0.1,0.1-0.3,0.2-0.5,0.2c-0.6,0-1.2,0.2-1.6,0.6c-1,1.2-0.9,3,0.2,4.2c0.4,0.6,1,0.9,1.6,1c0.6,0.1,1.3,0,1.8-0.4   c0.1-0.1,0.2-0.1,0.2-0.2c0.3-0.2,0.6-0.2,0.9,0c0.5,0.4,1,0.8,1.5,1.1c0.3,0.2,0.4,0.6,0.3,0.9   C-942.7-1889.8-942.9-1889.7-943.2-1889.7z"></path>	</g>	<g>		<path d="M-924.7-1908.1c-0.2,0-0.4-0.1-0.5-0.3c-2.5-3.4-3.7-6.9-3.1-9.1c0.3-1,0.9-1.8,1.9-2.3c0.9-0.4,1.8-0.4,2.7,0   c1.7,0.8,3.3,3,4.3,6.1c0.1,0.3-0.1,0.7-0.4,0.8c-0.3,0.1-0.7-0.1-0.8-0.4c-0.9-2.7-2.2-4.7-3.6-5.3c-0.6-0.3-1.1-0.3-1.7,0   c-0.6,0.3-1,0.7-1.2,1.4c-0.5,1.8,0.7,5.1,2.9,8c0.2,0.3,0.2,0.7-0.1,0.9C-924.4-1908.2-924.6-1908.1-924.7-1908.1z"></path>	</g>	<g>		<path d="M-918.6-1888.6c-0.1,0-0.1,0-0.2,0l-18.9,0c-0.4,0-0.6-0.3-0.6-0.6s0.3-0.6,0.6-0.6h19c0.7,0,1.2-0.4,1.3-1.1   c0-0.6-0.4-1.2-1.1-1.2c0,0-0.1,0-0.1,0l-0.5,0c-0.6,0-1.2-0.2-1.6-0.7c-0.4-0.4-0.7-1-0.7-1.6c0-1.3,1-2.3,2.3-2.3h4.5   c1.5,0,2.7-1.2,2.7-2.7c0-0.6-0.2-1.2-0.5-1.6l-2.3-3.1c-1-1.5-2.5-2.5-4.3-2.9c-0.3-0.1-0.6-0.4-0.5-0.8c0.1-0.3,0.4-0.6,0.8-0.5   c2,0.5,3.8,1.7,5,3.4l2.3,3c0.5,0.7,0.8,1.5,0.8,2.4c0,2.2-1.8,4-4,4h-4.5c-0.5,0-1,0.4-1,1c0,0.5,0.4,1,1,1h0.5   c0.1,0,0.2,0,0.3,0c1.3,0.1,2.4,1.2,2.3,2.6C-916.3-1889.6-917.3-1888.6-918.6-1888.6z"></path>	</g>	<g>		<path d="M-945.7-1883.9c-0.2,0-0.3-0.1-0.5-0.2c-0.3-0.3-0.3-0.7,0-0.9l31.5-31.5c0.3-0.3,0.7-0.3,0.9,0s0.3,0.7,0,0.9l-31.5,31.5   C-945.4-1883.9-945.6-1883.9-945.7-1883.9z"></path>	</g></g></svg>