<svg xmlns="http://www.w3.org/2000/svg" xmlns:xlink="http://www.w3.org/1999/xlink" x="0px" y="0px" viewBox="0 0 25.3 18" style="enable-background:new 0 0 25.3 18;" xml:space="preserve"><g>	<g transform="translate(0 0)">		<path d="M12.6,12.7L9.6,10l-8.8,7.5C1.1,17.8,1.5,18,2,18h21.3c0.5,0,0.9-0.2,1.2-0.5L15.7,10L12.6,12.7z"></path>		<path d="M24.5,0.5C24.2,0.2,23.7,0,23.3,0H2C1.5,0,1.1,0.2,0.8,0.5l11.9,10.2L24.5,0.5z"></path>		<path d="M0,1.6v14.7L8.6,9L0,1.6z"></path>		<path d="M16.7,9l8.6,7.3V1.6L16.7,9z"></path>	</g></g></svg>