<svg xmlns="http://www.w3.org/2000/svg" xmlns:xlink="http://www.w3.org/1999/xlink" x="0px" y="0px" viewBox="0 0 24 32" style="enable-background:new 0 0 24 32;" xml:space="preserve"><g transform="translate(-5120.709 -342.906)">	<g>		<path d="M5132.7,369.9c-2.4,0-5.6-1.2-7.4-6.7c-0.2-0.5,0.1-1.1,0.6-1.3c0.5-0.2,1.1,0.1,1.3,0.6c1.2,3.5,3,5.3,5.6,5.3   s4.4-1.8,5.6-5.3c0.1-0.3,0.3-0.5,0.6-0.6c0.8-0.3,1.4-1.1,1.3-2c0-0.6-0.4-1.1-0.9-1.2c-3.2-0.6-6.1-2.4-7.9-5.1   c-0.3-0.5-0.2-1.1,0.3-1.4c0.5-0.3,1.1-0.2,1.4,0.3c1.5,2.3,4,3.8,6.6,4.3c1.5,0.3,2.6,1.6,2.6,3.1c0.1,1.6-0.8,3.1-2.2,3.8   C5138.1,368.8,5135,369.9,5132.7,369.9z"></path>	</g>	<g>		<path d="M5126.2,363.9c-0.1,0-0.2,0-0.3,0c-1.7-0.6-2.8-2.2-2.7-4c0-1.5,1.2-2.8,2.7-3c2.2-0.3,4.2-1.7,5.1-3.7   c-0.3-0.4-0.5-0.9-0.7-1.4c-0.2-0.5,0-1.1,0.5-1.3c0.5-0.2,1.1,0,1.3,0.5c0.2,0.5,0.5,1,0.9,1.5c0.2,0.3,0.2,0.6,0.1,0.9   c-1.1,2.9-3.8,5-6.9,5.4c-0.5,0.1-0.9,0.5-0.9,1.1c-0.1,1,0.5,1.8,1.3,2c0.5,0.2,0.8,0.7,0.6,1.3   C5127,363.6,5126.6,363.9,5126.2,363.9z"></path>	</g>	<g>		<path d="M5139.2,374.9c-0.1,0-0.3,0-0.4-0.1c-1.1-0.6-3.5-1.7-3.6-7.1c0-0.6,0.4-1,1-1c0,0,0,0,0,0c0.5,0,1,0.4,1,1   c0.1,4.1,1.6,4.9,2.4,5.3c0.5,0.2,0.7,0.8,0.5,1.3C5139.9,374.7,5139.6,374.9,5139.2,374.9z"></path>	</g>	<g>		<path d="M5126.2,374.9c-0.4,0-0.7-0.2-0.9-0.6c-0.2-0.5,0-1.1,0.4-1.3c0.8-0.4,2.4-1.2,2.4-5.3c0-0.6,0.5-1,1-1c0.6,0,1,0.5,1,1   c-0.1,5.4-2.4,6.5-3.6,7.1C5126.5,374.9,5126.4,374.9,5126.2,374.9z"></path>	</g>	<g>		<path d="M5125.1,359.2c-0.5,0-0.9-0.4-1-0.9l0-0.1c-0.2-1.3-0.3-2.6-0.3-3.8c0-4.4,3.7-7.5,9-7.5s9,3.1,9,7.5c0,1.3-0.1,2.7-0.4,4   c-0.1,0.5-0.6,0.9-1.2,0.8c-0.5-0.1-0.9-0.6-0.8-1.2c0.2-1.2,0.3-2.4,0.3-3.6c0-3.2-2.9-5.5-7-5.5s-7,2.3-7,5.5   c0,1.2,0.1,2.3,0.3,3.4c0,0,0,0.1,0,0.2c0.1,0.5-0.3,1.1-0.8,1.1C5125.2,359.2,5125.1,359.2,5125.1,359.2z"></path>	</g>	<g>		<path d="M5127.9,350.1c-0.4,0-0.8-0.3-0.9-0.7c-0.7-2-0.2-3.4,0.4-4.3c1-1.4,3-2.3,5.4-2.3s4.4,0.8,5.4,2.3   c0.6,0.8,1.1,2.2,0.4,4.3c-0.2,0.5-0.8,0.8-1.3,0.6c-0.5-0.2-0.8-0.8-0.6-1.3c0.4-1,0.3-1.8-0.1-2.4c-0.6-0.9-2.1-1.4-3.8-1.4   s-3.2,0.5-3.8,1.4c-0.4,0.6-0.5,1.4-0.1,2.4c0.2,0.5-0.1,1.1-0.6,1.3C5128.1,350.1,5128,350.1,5127.9,350.1z"></path>	</g>	<g>		<path d="M5143.7,366.4c-0.3,0-0.6-0.2-0.8-0.4l-0.4-0.7l-0.7,0.4c-0.5,0.3-1.1,0.2-1.4-0.3c-0.3-0.5-0.2-1.1,0.3-1.4l1.5-1   c0.5-0.3,1.1-0.2,1.4,0.3l1,1.5c0.3,0.5,0.2,1.1-0.3,1.4C5144.1,366.4,5143.9,366.4,5143.7,366.4z"></path>	</g>	<g>		<path d="M5121.7,366.4c-0.2,0-0.4-0.1-0.6-0.2c-0.5-0.3-0.6-0.9-0.3-1.4l1-1.5c0.3-0.5,0.9-0.6,1.4-0.3l1.5,1   c0.5,0.3,0.6,0.9,0.3,1.4c-0.3,0.5-0.9,0.6-1.4,0.3l-0.7-0.4l-0.4,0.7C5122.3,366.2,5122,366.4,5121.7,366.4z"></path>	</g>	<g>		<path d="M5139.2,370.9c-0.3,0-0.6-0.1-0.8-0.4c-0.4-0.4-0.3-1.1,0.1-1.4c1.6-1.4,2.8-3.3,3.2-5.4c0.1-0.5,0.6-0.9,1.2-0.8   c0.5,0.1,0.9,0.6,0.8,1.2c-0.5,2.5-1.9,4.9-3.8,6.6C5139.7,370.8,5139.4,370.9,5139.2,370.9z"></path>	</g>	<g>		<path d="M5126.2,370.9c-0.2,0-0.5-0.1-0.6-0.2c-2-1.7-3.3-4-3.8-6.6c-0.1-0.5,0.2-1.1,0.8-1.2c0.5-0.1,1.1,0.2,1.2,0.8   c0.4,2.1,1.5,4,3.2,5.4c0.4,0.4,0.5,1,0.1,1.4C5126.8,370.8,5126.5,370.9,5126.2,370.9z"></path>	</g>	<g>		<path d="M5136,361.9c-0.7,0-1.3-0.2-1.9-0.7c-0.2-0.2-0.4-0.5-0.4-0.8c0-0.6,0.4-1,1-1c0.2,0,0.5,0.1,0.7,0.2   c0.3,0.3,0.9,0.3,1.2,0c0.2-0.2,0.4-0.2,0.6-0.2h0.5c0.6,0,1,0.4,1,1s-0.4,1-1,1h-0.2C5137.1,361.7,5136.5,361.9,5136,361.9z"></path>	</g>	<g>		<path d="M5129.5,361.9c-0.5,0-1.1-0.2-1.6-0.5h-0.2c-0.6,0-1-0.4-1-1s0.4-1,1-1h0.5c0.2,0,0.5,0.1,0.6,0.2c0.4,0.3,0.9,0.3,1.2,0   c0.2-0.2,0.4-0.2,0.6-0.2c0.6,0,1,0.4,1,1c0,0.3-0.2,0.6-0.4,0.8C5130.7,361.7,5130.1,361.9,5129.5,361.9z"></path>	</g>	<g>		<path d="M5132.7,366.9c-0.8,0-1.6-0.2-2.2-0.6c0,0-0.1,0-0.1-0.1c-0.4-0.3-0.5-1-0.2-1.4c0.3-0.4,0.9-0.5,1.4-0.2l0,0   c0.7,0.4,1.6,0.4,2.3,0c0.4-0.3,1-0.2,1.3,0.2c0.3,0.4,0.3,1.1-0.2,1.4c0,0-0.1,0.1-0.1,0.1   C5134.3,366.7,5133.5,366.9,5132.7,366.9z"></path>	</g></g></svg>