<svg xmlns="http://www.w3.org/2000/svg" xmlns:xlink="http://www.w3.org/1999/xlink" x="0px" y="0px" viewBox="0 0 82.3 196.4" style="enable-background:new 0 0 82.3 196.4;" xml:space="preserve"><style type="text/css">	.girl0{fill:#A0616A;}	.girl1{fill:#2F2E41;}	.girl2{fill:#3F3D56;}	.girl3{fill:#6C63FF;}</style><g transform="translate(-1520.857 -667.833)">	<g transform="translate(1554.865 843.71)">		<path class="girl0" d="M10.9,13.5l-3.4,0L6,0l5,0L10.9,13.5z"></path>		<path class="girl1" d="M0,18.9c0,0.8,0.7,1.5,1.5,1.5l6.8,0.1l1.2-2.4l0.4,2.4l2.6,0l-0.6-8.6l-0.9-0.1l-3.6-0.3   l-1.2-0.1l0,2.4l-5.4,3.7C0.3,17.9,0,18.4,0,18.9L0,18.9z"></path>	</g>	<g transform="translate(1572.196 843.71)">		<path class="girl0" d="M10.9,13.5l-3.4,0L6,0l5,0L10.9,13.5z"></path>		<path class="girl1" d="M0,18.9c0,0.8,0.7,1.5,1.5,1.5l6.8,0.1l1.2-2.4l0.4,2.4l2.6,0l-0.6-8.6l-0.9-0.1l-3.6-0.3   l-1.2-0.1l0,2.4l-5.4,3.7C0.3,17.9,0,18.4,0,18.9L0,18.9z"></path>	</g>	<path class="girl1" d="M1552.4,748.5l13.8,0.4l13.1,2.9c0,0-1.3,1.6,3.1,6c0,0,5.8,10.2,1.7,20.1l-1.7,39.5  c0,0,5.1,27.9,1.2,36.7l-5.1,0.3l-8.7-36.7l-4.2-39.6l-2,39c0,0,7.8,26.7,2.9,37.3l-5.6-0.3l-9.5-37c0,0-4.1-42.7-3.5-50.9  S1552.4,748.5,1552.4,748.5L1552.4,748.5z"></path>	<g transform="translate(1569.367 685.902)">		<path class="girl0" d="M29.4,0.1c-1.9,0.5-3,2.4-2.5,4.3c0.2,0.8,0.7,1.6,1.4,2l0,0L28,12.9l5,2.3l0.4-10h0   c1-1.7,0.3-3.8-1.4-4.8C31.2,0,30.3-0.1,29.4,0.1z"></path>		<path class="girl2" d="M1.7,23.3c-2.2-2.2-2.2-5.9,0-8.1c2-2,5.2-2.2,7.5-0.5l15.6,11.7l2.8-16.9l6,1.9l-1.4,22   c-0.2,2.5-2.3,4.3-4.7,4.2c-0.7,0-1.3-0.2-1.9-0.6L2.9,24.2C2.4,23.9,2,23.6,1.7,23.3L1.7,23.3z"></path>	</g>	<g transform="translate(1520.857 674.833)">		<path class="girl0" d="M26.4,1.7c1,1.7,0.5,3.8-1.2,4.8C24.5,7,23.6,7.2,22.7,7l0,0l-4.4,4.8l-5.1-1.9L20,2.6l0,0   c0.5-1.9,2.5-3,4.3-2.5C25.2,0.4,26,0.9,26.4,1.7L26.4,1.7z"></path>		<path class="girl2" d="M28.3,37.5l-25-6.8c-2.4-0.6-3.8-3.1-3.1-5.5c0.2-0.7,0.5-1.3,0.9-1.8L15.6,6.9l5.6,2.8   l-9.9,14l19.3,2.6c3.1,0.4,5.3,3.3,4.9,6.4c-0.4,2.8-2.8,4.9-5.6,4.9C29.3,37.7,28.8,37.6,28.3,37.5L28.3,37.5z"></path>	</g>	<path class="girl2" d="M1584.8,754.3l-35,1.6c-1-1.5-0.7-3.7,0.6-6.4c5.1-10.4,1.2-30-1.4-40.2  c-0.7-2.6,0.9-5.2,3.4-5.9c0.2-0.1,0.5-0.1,0.7-0.1l3.3-0.3l3-9.3h10.7l4.4,5.1l7.5,4.6c-1.4,14.1-7.2,34,1.1,44  C1585.1,749.1,1585.7,751.9,1584.8,754.3L1584.8,754.3z"></path>	<circle class="girl0" cx="1563.6" cy="683.5" r="10.4"></circle>	<path class="girl1" d="M1575.4,676.8c1.4-5.3-14.3-9.8-17.4-5.6c-0.7-0.7-1.7-0.9-2.7-0.8c-0.7,0.2-1.4,0.6-1.9,1.1  c-0.9,0.6-1.6,1.3-2.2,2.2c-0.6,0.9-0.5,2,0.1,2.9c0.5,0.6,1.5,3.9,2.3,4.1c0.6,0.1,1,0.2,1.4,0.3c0.4-0.5,1.3-1.2,1.2-1.8  c0.5,0.4,0.3,1,0.2,1.7c-0.4,2.2-8.7,19-3.9,14c0.5,0.3,1.1,0.6,1.7,0.8c1.2-1.8,2.1-3.8,2.7-5.9v0c0.2,1.8,1.5,3.4,3.3,3.9  c7.1,2.1,12.9-1,14.9-6.4c-0.7-1.5-1-1.3-1-1.4c0.8-0.5,1.8-0.3,2.4,0.5c0.1,0.1,0.1,0.2,0.2,0.3c0.1,0.3,0.2,0.6,0.3,0.8  C1578.1,683.7,1579.3,684.3,1575.4,676.8L1575.4,676.8z"></path>	<path class="girl1" d="M1570.5,673l-0.7-3.7c-0.1-0.3-0.1-0.6,0-0.9c0.2-0.4,0.6-0.5,1.1-0.5  c0.4,0.1,0.7,0.4,1.1,0.5c1.4,0.2,3.3-1.1,3.8,2.4c0.2,1.5,2.5,1.6,3.3,2.9c0.9,1.2,0.8,2.9-0.2,4.1c-0.9,0.8-2.2,1-3.3,0.5  c-1.1-0.5-2-1.2-2.8-2.2c-0.7-0.9-1.5-1.8-2.4-2.6"></path>	<path class="girl3" d="M1575.9,678.6c-2.8-0.4-4.8-1.4-5.8-3.1c-0.8-1.4-0.9-3.1-0.4-4.6l0.6,0.2  c-0.4,1.3-0.3,2.8,0.3,4.1c0.9,1.5,2.7,2.4,5.3,2.8L1575.9,678.6L1575.9,678.6z"></path></g></svg>