<svg xmlns="http://www.w3.org/2000/svg" xmlns:xlink="http://www.w3.org/1999/xlink" x="0px" y="0px" viewBox="0 0 465.174 415.609" style="enable-background:new 0 0 465.174 415.609;" xml:space="preserve"><path style="fill-rule:evenodd;clip-rule:evenodd;" d="M112.524,228.297L43.672,351.812 c-1.174,2.107-0.908,4.604,0.684,6.416c1.592,1.812,4.035,2.398,6.275,1.505l368.074-146.731c2.172-0.865,3.523-2.859,3.523-5.197 c0-2.337-1.352-4.331-3.523-5.197L50.631,55.876c-2.24-0.893-4.683-0.307-6.275,1.505c-1.591,1.812-1.857,4.31-0.684,6.417 l68.852,123.514l174.295,18.496c1.345,0.143,2.328,0.986,2.328,1.997c0,1.011-0.983,1.855-2.328,1.997L112.524,228.297z"></path></svg>