<svg xmlns="http://www.w3.org/2000/svg" xmlns:xlink="http://www.w3.org/1999/xlink" x="0px" y="0px" viewBox="0 0 28.4 37" style="enable-background:new 0 0 28.4 37;" xml:space="preserve"><style type="text/css">	.st1{fill:#9D3A21;}</style>	<g transform="translate(0 0)" class="st0">		<path class="st1" d="M13.1,36l1.1,1l1.1-1c0.5-0.5,13.1-12.1,13.1-21.8C28.4,6.4,22.1,0,14.2,0S0,6.4,0,14.2   C0,23.9,12.6,35.5,13.1,36 M8.4,13.1c0-3.2,2.6-5.9,5.9-5.9s5.9,2.6,5.9,5.9S17.4,19,14.2,19C11,19,8.4,16.4,8.4,13.1   C8.4,13.1,8.4,13.1,8.4,13.1"></path>	</g></svg>