<svg xmlns="http://www.w3.org/2000/svg" xmlns:xlink="http://www.w3.org/1999/xlink" x="0px" y="0px" viewBox="0 0 32 32" style="enable-background:new 0 0 32 32;" xml:space="preserve"><g transform="translate(-6193.43 -1267.666)">	<g>		<path d="M6194.4,1284.7c-0.6,0-1-0.4-1-1c0-8.8,7.2-16,16-16c0,0,0,0,0,0c5.3,0,10.3,2.6,13.3,6.9c0.3,0.5,0.2,1.1-0.2,1.4   c-0.5,0.3-1.1,0.2-1.4-0.2c-2.7-3.8-7-6.1-11.7-6.1c0,0,0,0,0,0c-7.7,0-14,6.3-14,14C6195.4,1284.2,6195,1284.7,6194.4,1284.7z"></path>	</g>	<g>		<path d="M6221.9,1276.2h-3.5c-0.6,0-1-0.4-1-1s0.4-1,1-1h2.5v-2.5c0-0.6,0.4-1,1-1s1,0.4,1,1v3.5   C6222.9,1275.7,6222.5,1276.2,6221.9,1276.2z"></path>	</g>	<g>		<path d="M6209.4,1299.7c-5.3,0-10.3-2.6-13.3-6.9c-0.3-0.5-0.2-1.1,0.2-1.4c0.5-0.3,1.1-0.2,1.4,0.2c2.7,3.8,7,6.1,11.7,6.1   c0,0,0,0,0,0c7.7,0,14-6.3,14-14c0-0.6,0.4-1,1-1s1,0.4,1,1C6225.4,1292.5,6218.3,1299.7,6209.4,1299.7   C6209.4,1299.7,6209.4,1299.7,6209.4,1299.7z"></path>	</g>	<g>		<path d="M6196.9,1296.7c-0.6,0-1-0.4-1-1v-3.5c0-0.6,0.4-1,1-1h3.5c0.6,0,1,0.4,1,1s-0.4,1-1,1h-2.5v2.5   C6197.9,1296.2,6197.5,1296.7,6196.9,1296.7z"></path>	</g>	<g>		<path d="M6205.4,1291.8c-0.2,0-0.3,0-0.5-0.1l-4-2.3c-0.3-0.2-0.5-0.5-0.5-0.9v-4.6c0-0.4,0.2-0.7,0.5-0.9l4-2.3   c0.3-0.2,0.7-0.2,1,0l4,2.3c0.3,0.2,0.5,0.5,0.5,0.9v4.6c0,0.4-0.2,0.7-0.5,0.9l-4,2.3C6205.8,1291.8,6205.6,1291.8,6205.4,1291.8   z M6202.4,1287.9l3,1.7l3-1.7v-3.5l-3-1.7l-3,1.7V1287.9z"></path>	</g>	<g>		<path d="M6203.4,1288.4c-0.6,0-1-0.4-1-1v-2.3c0-0.6,0.4-1,1-1s1,0.4,1,1v2.3C6204.4,1287.9,6204,1288.4,6203.4,1288.4z"></path>	</g>	<g>		<path d="M6205.4,1296.5c-0.6,0-1-0.4-1-1v-4.6c0-0.6,0.4-1,1-1s1,0.4,1,1v4.6C6206.4,1296,6206,1296.5,6205.4,1296.5z"></path>	</g>	<g>		<path d="M6213.4,1291.8c-0.2,0-0.3,0-0.5-0.1l-4-2.3c-0.3-0.2-0.5-0.5-0.5-0.9v-4.6c0-0.4,0.2-0.7,0.5-0.9l4-2.3   c0.3-0.2,0.7-0.2,1,0l4,2.3c0.3,0.2,0.5,0.5,0.5,0.9v4.6c0,0.4-0.2,0.7-0.5,0.9l-4,2.3C6213.8,1291.8,6213.6,1291.8,6213.4,1291.8   z M6210.4,1287.9l3,1.7l3-1.7v-3.5l-3-1.7l-3,1.7V1287.9z"></path>	</g>	<g>		<path d="M6213.4,1289.5c-0.3,0-0.7-0.2-0.9-0.5c-0.3-0.5-0.1-1.1,0.4-1.4l2-1.2c0.5-0.3,1.1-0.1,1.4,0.4c0.3,0.5,0.1,1.1-0.4,1.4   l-2,1.2C6213.8,1289.5,6213.6,1289.5,6213.4,1289.5z"></path>	</g>	<g>		<path d="M6217.4,1284.9c-0.3,0-0.7-0.2-0.9-0.5c-0.3-0.5-0.1-1.1,0.4-1.4l4-2.3c0.5-0.3,1.1-0.1,1.4,0.4c0.3,0.5,0.1,1.1-0.4,1.4   l-4,2.3C6217.8,1284.9,6217.6,1284.9,6217.4,1284.9z"></path>	</g>	<g>		<path d="M6209.4,1284.9c-0.2,0-0.3,0-0.5-0.1l-4-2.3c-0.3-0.2-0.5-0.5-0.5-0.9v-4.6c0-0.4,0.2-0.7,0.5-0.9l4-2.3   c0.3-0.2,0.7-0.2,1,0l4,2.3c0.3,0.2,0.5,0.5,0.5,0.9v4.6c0,0.4-0.2,0.7-0.5,0.9l-4,2.3C6209.8,1284.9,6209.6,1284.9,6209.4,1284.9   z M6206.4,1281l3,1.7l3-1.7v-3.5l-3-1.7l-3,1.7V1281z"></path>	</g>	<g>		<path d="M6211.4,1279.1c-0.2,0-0.3,0-0.5-0.1l-2-1.2c-0.5-0.3-0.6-0.9-0.4-1.4c0.3-0.5,0.9-0.6,1.4-0.4l2,1.2   c0.5,0.3,0.6,0.9,0.4,1.4C6212.1,1279,6211.8,1279.1,6211.4,1279.1z"></path>	</g>	<g>		<path d="M6205.4,1278c-0.2,0-0.3,0-0.5-0.1l-4-2.3c-0.5-0.3-0.6-0.9-0.4-1.4c0.3-0.5,0.9-0.6,1.4-0.4l4,2.3   c0.5,0.3,0.6,0.9,0.4,1.4C6206.1,1277.8,6205.8,1278,6205.4,1278z"></path>	</g></g></svg>