<svg xmlns="http://www.w3.org/2000/svg" xmlns:xlink="http://www.w3.org/1999/xlink" x="0px" y="0px" viewBox="0 0 33.5 34.2" style="enable-background:new 0 0 33.5 34.2;" xml:space="preserve"><g transform="translate(869 1920.05)">	<g>		<path d="M-840.5-1901.2c-0.2,0-0.3-0.1-0.5-0.2c-0.3-0.3-0.3-0.7,0-0.9l3.6-3.6c0.8-0.8,0.8-2.2,0-3c-0.8-0.9-2.2-0.9-3.1-0.1   l-7.6,7.6c-0.3,0.3-0.7,0.3-0.9,0s-0.3-0.7,0-0.9l7.6-7.6c1.4-1.3,3.6-1.3,4.9,0.1c1.3,1.4,1.3,3.5,0,4.8l-3.6,3.6   C-840.2-1901.3-840.4-1901.2-840.5-1901.2z"></path>	</g>	<g>		<path d="M-855.9-1901.4c-1.1,0-2.3-0.1-3.4-0.4c-7-1.9-11.1-9-9.2-16c0.1-0.2,0.2-0.4,0.5-0.5c2.2-0.6,4.6-0.6,6.8,0   c7,1.9,11.1,9,9.2,16c-0.1,0.2-0.2,0.4-0.5,0.5C-853.7-1901.6-854.8-1901.4-855.9-1901.4z M-867.4-1917.2   c-1.4,6.1,2.3,12.4,8.4,14c1.9,0.5,3.8,0.5,5.7,0.1c1.4-6.1-2.3-12.4-8.4-14C-863.5-1917.6-865.5-1917.6-867.4-1917.2z"></path>	</g>	<g>		<path d="M-852.7-1901.8c-0.2,0-0.3-0.1-0.5-0.2l-12.7-12.7c-0.3-0.3-0.3-0.7,0-0.9s0.7-0.3,0.9,0l12.7,12.7c0.3,0.3,0.3,0.7,0,0.9   C-852.4-1901.9-852.6-1901.8-852.7-1901.8z"></path>	</g>	<g>		<path d="M-859.7-1908.8h-5c-0.4,0-0.6-0.3-0.6-0.6s0.3-0.6,0.6-0.6h5c0.4,0,0.6,0.3,0.6,0.6S-859.3-1908.8-859.7-1908.8z"></path>	</g>	<g>		<path d="M-856.9-1906c-0.4,0-0.6-0.3-0.6-0.6v-5.5c0-0.4,0.3-0.6,0.6-0.6s0.6,0.3,0.6,0.6v5.5   C-856.3-1906.3-856.6-1906-856.9-1906z"></path>	</g>	<g>		<path d="M-848-1907.7c-1,0-1.8-0.3-2.5-0.9c-1.8-1.8-0.9-5.5,2-8.4l0,0c1.4-1.4,2.9-2.3,4.5-2.7c1.7-0.4,3.1-0.2,4,0.7   c0.9,0.9,1.2,2.3,0.7,4c-0.4,1.5-1.4,3.1-2.7,4.5C-844-1908.8-846.2-1907.7-848-1907.7z M-847.6-1916.2c-2.3,2.3-3.3,5.4-2,6.6   c1.2,1.2,4.3,0.3,6.6-2c1.2-1.2,2-2.6,2.4-3.9c0.3-1.2,0.2-2.1-0.4-2.7c-0.6-0.6-1.5-0.7-2.7-0.4   C-845-1918.2-846.4-1917.4-847.6-1916.2L-847.6-1916.2z"></path>	</g>	<g>		<path d="M-850-1908.5c-0.2,0-0.3-0.1-0.5-0.2c-0.3-0.3-0.3-0.7,0-0.9l7.5-7.5c0.3-0.3,0.7-0.3,0.9,0s0.3,0.7,0,0.9l-7.5,7.5   C-849.7-1908.6-849.9-1908.5-850-1908.5z"></path>	</g>	<g>		<path d="M-846.4-1912.1c-0.4,0-0.7-0.3-0.7-0.6v-2.9c0-0.4,0.3-0.6,0.7-0.6s0.7,0.3,0.7,0.6v2.9   C-845.8-1912.4-846.1-1912.1-846.4-1912.1z"></path>	</g>	<g>		<path d="M-846.5-1885.9h-11.4c-0.4,0-0.6-0.3-0.6-0.7v-0.7c-5.1-2-8.4-7-8.2-12.4c0-0.4,0.3-0.6,0.6-0.6h27.9   c0.4,0,0.6,0.3,0.6,0.6c0.1,5.5-3.2,10.4-8.2,12.4v0.7C-845.9-1886.2-846.2-1885.9-846.5-1885.9z M-857.3-1887.2h10.1v-0.5   c0-0.3,0.2-0.5,0.4-0.6c4.6-1.6,7.7-5.9,7.8-10.7h-26.6c0.2,4.8,3.2,9.1,7.8,10.7c0.3,0.1,0.4,0.3,0.4,0.6V-1887.2z"></path>	</g></g></svg>