<svg xmlns="http://www.w3.org/2000/svg" xmlns:xlink="http://www.w3.org/1999/xlink" x="0px" y="0px" viewBox="0 0 276.1 50.3" style="enable-background:new 0 0 276.1 50.3;" xml:space="preserve"><style type="text/css">	.plant0{fill:#F2F2F2;}	.plant1{fill:#CCCCCC;}</style><path class="plant0" d="M249,41.7c0.6,0,1.2-0.5,1.2-1.1c0-0.3-0.1-0.7-0.4-0.9l-0.1-0.3l0-0.1c0.7-1.5,2.4-2.3,4-1.6 c0.7,0.3,1.3,0.9,1.6,1.6c0.9,2.2,2.1,4.4,2.4,6.8c0.1,1,0.1,2.1-0.2,3.1c2.2-4.7,3.3-9.8,3.3-15c0-1.3-0.1-2.6-0.2-3.9 c-0.1-1.1-0.3-2.1-0.5-3.2c-1.2-5.7-3.6-11-7.2-15.5c-1.7-1-3.2-2.4-4-4.2c-0.3-0.6-0.5-1.3-0.7-2c0.4-1,0.6-2.1,0.6-3.2 c0.3-0.4,0.8-0.6,1.1-1c1.5-2,3.5-1.7,4.6,1.1c2.3,1.2,2.3,3.1,0.9,4.9c-0.9,1.2-1,2.8-1.8,4c0.1,0.1,0.2,0.2,0.2,0.3 c1.5,1.9,2.8,3.9,3.8,6.1c-0.3-2.4,0.1-4.8,0.9-7.1c0.9-2.1,2.5-3.9,4-5.7c1.1-1.4,3-1.6,4.4-0.5c0.7,0.5,1.1,1.3,1.2,2.1l0,0.1 c-0.2,0.1-0.4,0.2-0.6,0.4c-0.7,0.5-0.9,1.4-0.4,2.1c0.2,0.4,0.6,0.6,1,0.7h0c-0.1,0.8-0.2,1.5-0.4,2.3c1.8,7.1-2.1,9.8-7.8,9.9 c-0.1,0.1-0.2,0.1-0.4,0.2c1.1,3.1,1.8,6.3,2,9.5c0.1,1.9,0.1,3.8,0,5.7l0-0.1c0.4-2.1,1.5-4,3.2-5.4c2.5-2,6-2.8,8.6-4.4 c0.8-0.5,1.9-0.3,2.4,0.5c0.2,0.4,0.3,0.8,0.3,1.2l0,0.1c-0.4,0.2-0.8,0.3-1.2,0.6c-0.2,0.1-0.4,0.2-0.6,0.4 c-0.7,0.5-0.9,1.4-0.4,2.1c0.2,0.4,0.6,0.6,1,0.7h0l0.1,0c-0.7,1.6-1.6,3.1-2.8,4.4c-1.2,6.2-6.1,6.8-11.4,5l0,0 c-0.6,2.5-1.4,5-2.5,7.4h-9c0-0.1-0.1-0.2-0.1-0.3c0.8,0.1,1.7,0,2.5-0.1c-0.7-0.8-1.3-1.6-2-2.5c0,0,0,0,0,0 c-0.3-0.4-0.7-0.8-1-1.3l0,0C248.6,44.2,248.7,42.9,249,41.7L249,41.7L249,41.7z"></path><path class="plant1" d="M0,49.7c0,0.3,0.3,0.6,0.6,0.6c0,0,0,0,0,0h274.9c0.3,0,0.6-0.3,0.6-0.6c0-0.3-0.3-0.6-0.6-0.6 H0.6C0.3,49.1,0,49.4,0,49.7C0,49.7,0,49.7,0,49.7z"></path></svg>