<svg xmlns="http://www.w3.org/2000/svg" width="16" height="18.475" viewBox="0 0 16 18.475">
  <g id="Polygon_7" data-name="Polygon 7" transform="translate(16) rotate(90)" fill="none">
    <path d="M12.7,0a2,2,0,0,1,1.732,1L17.9,7a2,2,0,0,1,0,2l-3.464,6A2,2,0,0,1,12.7,16H5.774a2,2,0,0,1-1.732-1L.577,9a2,2,0,0,1,0-2L4.041,1A2,2,0,0,1,5.774,0Z" stroke="none"/>
    <path d="M 6.350859642028809 3 L 3.464109420776367 8.000001907348633 L 6.35085391998291 13 L 12.12434959411621 13 L 15.01109886169434 7.999998092651367 L 12.12435436248779 3 L 6.350859642028809 3 M 5.773504257202148 0 L 12.70170402526855 0 C 13.41623401641846 0 14.07649421691895 0.381199836730957 14.43375396728516 1 L 17.89785385131836 7 C 18.25512504577637 7.618800163269043 18.25512504577637 8.381199836730957 17.89785385131836 9 L 14.43375396728516 15 C 14.07649421691895 15.61880016326904 13.41623401641846 16 12.70170402526855 16 L 5.773504257202148 16 C 5.058974266052246 16 4.398714065551758 15.61880016326904 4.041454315185547 15 L 0.5773544311523438 9 C 0.2200832366943359 8.381199836730957 0.2200832366943359 7.618800163269043 0.5773544311523438 7 L 4.041454315185547 1 C 4.398714065551758 0.381199836730957 5.058974266052246 0 5.773504257202148 0 Z" stroke="none" fill="#663130"/>
  </g>
</svg>
