<svg xmlns="http://www.w3.org/2000/svg" xmlns:xlink="http://www.w3.org/1999/xlink" x="0px" y="0px" viewBox="0 0 41.6 40.7" style="enable-background:new 0 0 41.6 40.7;" xml:space="preserve"><style type="text/css">	.ser0{fill:currentColor;}</style><g transform="translate(-1574.123 -608.041)">	<path class="ser0" d="M1589.3,638.4c-8.4,0-15.2-6.8-15.2-15.2s6.8-15.2,15.2-15.2c8.4,0,15.2,6.8,15.2,15.2  c0,0,0,0,0,0C1604.5,631.6,1597.7,638.4,1589.3,638.4L1589.3,638.4z M1589.3,614.1c-5,0-9.1,4.1-9.1,9.1c0,5,4.1,9.1,9.1,9.1  c5,0,9.1-4.1,9.1-9.1C1598.4,618.2,1594.3,614.1,1589.3,614.1z"></path>	<path class="ser0" d="M1612.6,648.7c-0.8,0-1.5-0.3-2.1-0.8l-14.2-13.3c-1.2-1.1-1.3-3.1-0.1-4.3  c1.1-1.2,3.1-1.3,4.3-0.1l14.2,13.3c1.2,1.1,1.3,3.1,0.1,4.3C1614.3,648.4,1613.5,648.7,1612.6,648.7L1612.6,648.7z"></path></g></svg>