<svg xmlns="http://www.w3.org/2000/svg" xmlns:xlink="http://www.w3.org/1999/xlink" x="0px" y="0px" viewBox="0 0 63.5 56.7" style="enable-background:new 0 0 63.5 56.7;" xml:space="preserve"><path d="M63.5,37.8c0-1.4-1.1-2.5-2.5-2.5H33.2c-1.4,0-2.5,1.1-2.5,2.5c0,1.3,1,2.4,2.3,2.5v11.1c0,3,2.4,5.4,5.4,5.4h17.4 c3,0,5.4-2.4,5.4-5.4V40.2C62.5,40.2,63.5,39.1,63.5,37.8z M59.7,51.4c0,2.1-1.7,3.9-3.9,3.9H38.4c-2.1,0-3.9-1.7-3.9-3.9V40.3h25.1 V51.4z M61,38.8H33.2c-0.5,0-1-0.4-1-1s0.4-1,1-1H61c0.5,0,1,0.4,1,1C62,38.3,61.6,38.8,61,38.8z"></path><path d="M50.4,10.5h1.1v7.2c0,0.4,0.3,0.8,0.8,0.8s0.8-0.3,0.8-0.8v-1.4h1.1c4.3,0,7.9-3.5,7.9-7.9V6.6c0-0.4-0.3-0.8-0.8-0.8h-1.9 c-2.6,0-4.9,1.3-6.4,3.3V7.9C53,3.5,49.5,0,45.2,0h-1.9c-0.4,0-0.8,0.3-0.8,0.8v1.9C42.5,6.9,46.1,10.5,50.4,10.5z M59.4,7.3h1.1 v1.1c0,3.5-2.9,6.4-6.4,6.4h0l2.3-2.3c0.3-0.3,0.3-0.8,0-1.1s-0.8-0.3-1.1,0L53,13.8v0C53,10.2,55.9,7.3,59.4,7.3z M44,1.5h1.1 c3.5,0,6.4,2.8,6.4,6.4v0.1l-2.3-2.3c-0.3-0.3-0.8-0.3-1.1,0s-0.3,0.8,0,1.1L50.4,9h0C46.9,9,44,6.1,44,2.6L44,1.5L44,1.5z"></path><path d="M14.1,24.7c-0.7,0.7-2,0.7-2.7,0c-0.3-0.3-0.8-0.3-1.1,0s-0.3,0.8,0,1.1c0.6,0.6,1.5,1,2.4,1s1.8-0.4,2.4-1 c0.3-0.3,0.3-0.8,0-1.1C14.8,24.4,14.3,24.4,14.1,24.7z"></path><path d="M38.8,51.7h16.6c0.4,0,0.8-0.3,0.8-0.8v-6.5c0-0.4-0.3-0.8-0.8-0.8H38.8c-0.4,0-0.8,0.3-0.8,0.8V51 C38.1,51.4,38.4,51.7,38.8,51.7z M39.6,45.3h15.1v5H39.6V45.3z"></path><path d="M34.4,7.3c5.7,3.9,8.9,10.1,8.8,16.9c0,0.3,0,0.6,0,1c0,0,0,0.1,0,0.1c0,0.4,0.3,0.7,0.7,0.8c0.4,0,0.8-0.3,0.8-0.7l0-0.1 c0-0.3,0-0.7,0-1c0.1-7.3-3.3-13.9-9.4-18.2c-6.1-4.3-13.9-5.2-20.8-2.5c-2.4,0.9-3.8,1.8-3.8,1.8C9.4,6,8.6,7,8.4,8.1 c-0.2,0.9,0,1.7,0.2,2.2C2.8,17.3,5,23,5.3,23.6c0.3,1.2-0.2,1.8-0.2,1.8l-4.6,5c-0.6,0.8-0.5,1.5-0.4,1.9c0.4,1.3,2,2,2.3,2 c0.4,0.1,0.9,0.4,0.9,0.5c0,0,0,0.2-0.3,0.5c-0.7,0.7-0.8,1.3-0.7,1.8c0.2,0.7,0.7,1.2,1.3,1.6c-0.1,0.1-0.2,0.3-0.3,0.4 C2.9,39.6,2.9,40,3,40.5c0.3,0.7,1.1,1.1,1.6,1.3c0.3,0.5,0.1,0.9-0.1,1.1c-1.4,2.1-0.2,4.2,0.7,5c1.5,1.9,7.3,0.5,9.1,0 c1.3-0.3,2.3,0.1,2.3,0.2c0.1,0,0.1,0.1,0.2,0.1c0.8,0.4,2.6,4.5,3.8,8.2c0.1,0.3,0.4,0.5,0.7,0.5c0.1,0,0.2,0,0.2,0 c0.4-0.1,0.6-0.6,0.5-1c-1.3-4-3.3-8.7-4.9-9.1c-0.4-0.2-1.6-0.6-3.3-0.2c-3.1,0.9-7,1.3-7.5,0.5c0,0-0.1-0.1-0.1-0.1 c-0.2-0.2-1.5-1.5-0.5-3c0.4-0.5,0.9-1.9-0.1-3.1c-0.1-0.1-0.2-0.2-0.4-0.2C5,40.3,4.6,40.1,4.4,40c0.3-0.5,0.6-0.7,0.6-0.7 c0.3-0.1,0.5-0.3,0.6-0.6c0.1-0.4-0.1-0.7-0.5-0.8c-0.6-0.2-1.4-0.7-1.5-1c0-0.1,0.2-0.3,0.3-0.4c0.8-0.8,0.9-1.5,0.8-1.9 C4.4,33.4,3,33,2.8,32.9c-0.4-0.1-1.2-0.6-1.3-1c0-0.1-0.1-0.3,0.1-0.5l4.6-4.9c0.4-0.4,1-1.6,0.5-3.3c0,0,0-0.1,0-0.1 c-0.1-0.2-2.4-5.4,3.4-12.2c0.2-0.3,0.2-0.6,0.1-0.9c0,0-0.5-0.7-0.3-1.6c0.1-0.7,0.7-1.3,1.6-1.8c0,0,1.4-0.9,3.6-1.7 C21.5,2.4,28.7,3.3,34.4,7.3z"></path><path d="M56.3,31.9c0.1,0.2,0.4,0.3,0.6,0.3H58c0.7,0,1.4,0.5,1.6,1.1c0.1,0.3,0.4,0.5,0.7,0.5c0.1,0,0.2,0,0.2,0 c0.4-0.1,0.6-0.5,0.5-0.9c-0.4-1.3-1.7-2.1-3-2.1h-0.2c0-0.5-0.1-1-0.3-1.4c-0.5-1-1.7-1.7-2.9-1.7h-0.2C54,24,51.1,21.1,50.9,21 c-0.2-0.2-0.6-0.3-0.8-0.1c-0.3,0.1-0.5,0.4-0.4,0.8c0.1,0.6,0,1.1-0.1,1.7c-0.5,2.4-2.9,4.2-5.6,4.2h-4.3c-1.2,0-2.3,0.7-2.9,1.7 c-0.2,0.5-0.4,0.9-0.3,1.4h-0.2c-1.4,0-2.6,0.9-3,2.1c-0.1,0.4,0.1,0.8,0.5,0.9c0.4,0.1,0.8-0.1,0.9-0.5c0.2-0.7,0.9-1.1,1.6-1.1 h1.1c0.2,0,0.5-0.1,0.6-0.3s0.2-0.5,0.1-0.7c-0.2-0.4-0.1-0.8,0.1-1.2c0.3-0.5,0.9-0.9,1.6-0.9H44c3.4,0,6.3-2.3,7-5.4 c0-0.1,0-0.1,0-0.2c0.8,1.2,1.8,2.9,1.8,4.8c0,0.2,0.1,0.4,0.2,0.5c0.1,0.1,0.3,0.2,0.5,0.2h1c0.7,0,1.3,0.3,1.6,0.9 c0.2,0.4,0.2,0.8,0.1,1.2C56.1,31.4,56.2,31.7,56.3,31.9z"></path></svg>