<svg xmlns="http://www.w3.org/2000/svg" xmlns:xlink="http://www.w3.org/1999/xlink" x="0px" y="0px" viewBox="0 0 100 100" style="enable-background:new 0 0 100 100;" xml:space="preserve"><g>	<path d="M54.5,95c-5.2,0-10.5-0.8-15.9-2.4l0,0C24.6,88.1,14.3,78.9,8.2,65.1c-4.5-10.2-3.5-21,2.9-32C19.7,18.4,33,9.1,50.7,5.6  c7-1.4,13.6-0.5,19.6,2.7c6.8,3.5,10,9.3,9.7,17.2c-0.1,1.4-0.2,2.7-0.3,4.1c-0.1,1.2-0.2,2.4-0.3,3.5c-0.4,8.2,1.8,15,6.9,20.6  c2,2.2,4.2,4.8,5.9,8c3.6,6.9,2.9,12.4-2.1,17.9c-8.2,8.9-18.6,14-30.8,15.2C57.7,94.9,56.1,95,54.5,95z M38.7,92.4  c7,2.1,13.9,2.9,20.6,2.2c12.2-1.2,22.5-6.3,30.7-15.2c5-5.4,5.7-10.9,2.1-17.6c-1.7-3.2-3.9-5.8-5.8-8c-5.1-5.6-7.4-12.4-7-20.7  c0.1-1.2,0.2-2.4,0.3-3.5c0.1-1.3,0.2-2.7,0.3-4.1c0.3-7.8-2.9-13.5-9.6-17c-6-3.1-12.6-4-19.5-2.7C33.1,9.3,19.9,18.5,11.3,33.2  C4.9,44.2,3.9,54.9,8.4,65C14.5,78.7,24.7,87.9,38.7,92.4L38.7,92.4z"></path></g></svg>