<svg xmlns="http://www.w3.org/2000/svg" xmlns:xlink="http://www.w3.org/1999/xlink" x="0px" y="0px" viewBox="0 0 86 86" style="enable-background:new 0 0 86 86;" xml:space="preserve"><path d="M6.8,44.3c-0.7,0-1.3-0.6-1.3-1.3C5.5,22.3,22.3,5.5,43,5.5c0,0,0,0,0.1,0c12.4,0,24.1,6.1,31.2,16.2 c0.4,0.6,0.3,1.4-0.3,1.8c-0.6,0.4-1.4,0.3-1.8-0.3c-6.6-9.5-17.5-15.1-29-15.1c0,0,0,0-0.1,0c-19.4,0-35,15.6-35,34.9 C8.1,43.7,7.5,44.3,6.8,44.3z"></path><path d="M73.2,23.8h-8.4c-0.7,0-1.3-0.6-1.3-1.3c0-0.7,0.6-1.3,1.3-1.3H72V14c0-0.7,0.6-1.3,1.3-1.3c0.7,0,1.3,0.6,1.3,1.3v8.4 C74.5,23.2,73.9,23.8,73.2,23.8z"></path><path d="M42.9,80.5c-12.4,0-24.1-6.1-31.2-16.2c-0.4-0.6-0.3-1.4,0.3-1.8c0.6-0.4,1.4-0.3,1.8,0.3c6.6,9.5,17.5,15.1,29,15.1 c0,0,0,0,0.1,0c19.3,0,34.9-15.7,34.9-34.9c0-0.7,0.6-1.3,1.3-1.3c0.7,0,1.3,0.6,1.3,1.3C80.5,63.7,63.7,80.5,42.9,80.5 C43,80.5,43,80.5,42.9,80.5z"></path><path d="M12.8,73.3c-0.7,0-1.3-0.6-1.3-1.3v-8.4c0-0.7,0.6-1.3,1.3-1.3h8.4c0.7,0,1.3,0.6,1.3,1.3c0,0.7-0.6,1.3-1.3,1.3H14V72 C14.1,72.7,13.5,73.3,12.8,73.3z"></path><g>	<path d="M33.3,61.6c-0.2,0-0.4-0.1-0.6-0.2L23,55.8c-0.4-0.2-0.6-0.7-0.6-1.1V43.6c0-0.5,0.2-0.9,0.6-1.1l9.7-5.6  c0.4-0.2,0.9-0.2,1.3,0l9.7,5.6c0.4,0.2,0.6,0.7,0.6,1.1v11.1c0,0.5-0.2,0.9-0.6,1.1L34,61.4C33.8,61.5,33.6,61.6,33.3,61.6z   M25,54l8.4,4.8l8.4-4.8v-9.7l-8.4-4.8L25,44.3V54z"></path>	<path d="M28.5,53.2c-0.7,0-1.3-0.6-1.3-1.3v-5.6c0-0.7,0.6-1.3,1.3-1.3s1.3,0.6,1.3,1.3v5.6C29.8,52.6,29.2,53.2,28.5,53.2z"></path>	<path d="M33.3,72.7c-0.7,0-1.3-0.6-1.3-1.3V60.3c0-0.7,0.6-1.3,1.3-1.3s1.3,0.6,1.3,1.3v11.1C34.6,72.2,34.1,72.7,33.3,72.7z"></path>	<path d="M52.7,61.6c-0.2,0-0.4-0.1-0.6-0.2l-9.7-5.6c-0.4-0.2-0.6-0.7-0.6-1.1V43.6c0-0.5,0.2-0.9,0.6-1.1l9.7-5.6  c0.4-0.2,0.9-0.2,1.3,0l9.7,5.6c0.4,0.2,0.6,0.7,0.6,1.1v11.1c0,0.5-0.2,0.9-0.6,1.1l-9.7,5.6C53.1,61.5,52.9,61.6,52.7,61.6z   M44.3,54l8.4,4.8L61,54v-9.7l-8.4-4.8l-8.4,4.8V54H44.3z"></path>	<path d="M52.7,56c-0.4,0-0.9-0.2-1.1-0.6c-0.4-0.6-0.1-1.4,0.5-1.8l4.8-2.8c0.6-0.4,1.4-0.1,1.8,0.5c0.4,0.6,0.1,1.4-0.5,1.8  l-4.8,2.8C53.1,56,52.9,56,52.7,56z"></path>	<path d="M62.3,44.9c-0.4,0-0.9-0.2-1.1-0.6c-0.4-0.6-0.1-1.4,0.5-1.8l9.7-5.6c0.6-0.4,1.4-0.1,1.8,0.5s0.1,1.4-0.5,1.8L63,44.7  C62.8,44.8,62.5,44.9,62.3,44.9z"></path>	<path d="M43,44.9c-0.2,0-0.4-0.1-0.6-0.2l-9.7-5.6c-0.4-0.2-0.6-0.7-0.6-1.1V26.9c0-0.5,0.2-0.9,0.6-1.1l9.7-5.6  c0.4-0.2,0.9-0.2,1.3,0l9.7,5.6c0.4,0.2,0.6,0.7,0.6,1.1V38c0,0.5-0.2,0.9-0.6,1.1l-9.7,5.6C43.4,44.8,43.2,44.9,43,44.9z   M34.6,37.3l8.4,4.8l8.4-4.8v-9.7L43,22.8l-8.4,4.8V37.3z"></path>	<path d="M47.8,30.9c-0.2,0-0.4-0.1-0.6-0.2L42.4,28c-0.6-0.4-0.8-1.1-0.5-1.8c0.4-0.6,1.1-0.8,1.8-0.5l4.8,2.8  c0.6,0.4,0.8,1.1,0.5,1.8C48.7,30.7,48.3,30.9,47.8,30.9z"></path>	<path d="M33.3,28.1c-0.2,0-0.4-0.1-0.6-0.2L23,22.4c-0.6-0.4-0.8-1.1-0.5-1.8c0.4-0.6,1.1-0.8,1.8-0.5l9.7,5.6  c0.6,0.4,0.8,1.1,0.5,1.8C34.2,27.9,33.8,28.1,33.3,28.1z"></path></g></svg>