<svg xmlns="http://www.w3.org/2000/svg" xmlns:xlink="http://www.w3.org/1999/xlink" x="0px" y="0px" viewBox="0 0 100 100" style="enable-background:new 0 0 100 100;" xml:space="preserve"><g>	<path d="M47.9,90c-0.2,0-0.5,0-0.8,0c-3.9-0.1-8.2-1.3-12.8-3.6c-4.3-2.1-8.7-5.1-12.8-8.7C12.9,70.2,6.7,61,4.6,52.5  C3.4,47.6,3.5,43,5.1,39c1.7-4.4,5.1-8.1,10.1-11c9.6-5.5,18.8-9.9,27.3-12.9c8.2-2.9,15.8-4.6,22.7-5c13.3-0.8,23.2,3.1,28.7,11.3  c2.6,3.8,3,7.1,1.4,10.5c-1.5,3.2-4.6,6.3-8.5,10.2C79.3,49.6,69,59.8,62.9,78.4C60.4,86,55.2,90,47.9,90z M68.5,10.1  c-1.1,0-2.2,0-3.4,0.1c-14,0.9-31.3,7-50,17.9C3.2,35,2.9,45.2,4.7,52.5C6.8,61,13,70.1,21.6,77.7c8.4,7.4,18,11.9,25.5,12.2  c7.7,0.3,13.1-3.7,15.7-11.5l0.1,0l-0.1,0C68.9,59.7,79.2,49.5,86.7,42c3.9-3.9,7-7,8.5-10.1c1.6-3.4,1.2-6.6-1.4-10.4  C88.8,14,80.1,10.1,68.5,10.1z"></path></g></svg>