<svg xmlns="http://www.w3.org/2000/svg" xmlns:xlink="http://www.w3.org/1999/xlink" x="0px" y="0px" viewBox="0 0 17.6 18" style="enable-background:new 0 0 17.6 18;" xml:space="preserve"><g transform="translate(0 0)">	<path d="M16,12.6l-2.6-1.3c-0.7-0.3-1.5-0.2-1.9,0.4l-1,1.3c-1.2-0.7-2.3-1.6-3.3-2.7C6.2,9.3,5.4,8.2,5,6.9l1.7-1  c0.6-0.3,0.9-1.1,0.6-1.8L6.1,1.7C5.7,1.1,5,0.8,4.4,1.2c0,0,0,0,0,0C3.1,1.8,1.3,3,1,4.2c-0.3,3.2,0.8,6.3,2.9,8.6  c2.2,2.4,5.4,3.9,8.7,4.1c1.5,0,3-1.7,3.8-2.8c0.3-0.5,0.2-1.2-0.2-1.5C16.2,12.6,16.1,12.6,16,12.6"></path></g></svg>