<svg xmlns="http://www.w3.org/2000/svg" xmlns:xlink="http://www.w3.org/1999/xlink" x="0px" y="0px" viewBox="0 0 94.2 141.7" style="enable-background:new 0 0 94.2 141.7;" xml:space="preserve"><path d="M47.1,108.8c-8,0-14.5-4.7-14.5-10.4S39.1,88,47.1,88c8,0,14.4,4.7,14.4,10.4S55.1,108.8,47.1,108.8  M47.1,90.6c-6.6,0-11.9,3.5-11.9,7.8s5.3,7.8,11.9,7.8c6.4,0,11.8-3.6,11.8-7.8C59,94.1,53.6,90.6,47.1,90.6"></path><path d="M47.1,101.8c-2.5,0.1-4.9-1-6.5-2.8c-0.4-0.6-0.4-1.4,0.2-1.8c0.6-0.4,1.4-0.4,1.8,0.2l0,0 c1.8,2.3,7,2.3,8.9,0c0.4-0.6,1.3-0.7,1.8-0.2c0.6,0.4,0.7,1.3,0.2,1.8l0,0C52,100.8,49.6,101.9,47.1,101.8"></path><path d="M8.4,71.6c-0.5,0-0.9-0.3-1.1-0.7C3.9,64.7,3.9,57.2,3.9,50v-0.3c0-24.2,19.4-43.8,43.3-43.8 c23.8,0,43.2,19.7,43.2,43.8c0,8.2-1.1,14.4-3.6,19.5c-0.3,0.6-1.1,0.9-1.7,0.6s-0.9-1.1-0.6-1.7c2.3-4.7,3.3-10.5,3.3-18.3 c0-22.7-18.2-41.2-40.6-41.2C24.7,8.4,6.5,26.9,6.5,49.7V50c0,7.2,0,14,3.1,19.7c0.3,0.6,0.1,1.4-0.5,1.8 C8.9,71.6,8.7,71.6,8.4,71.6 M58.1,35.5c-0.7,0-1.3-0.6-1.3-1.3c0-0.5,0.3-1,0.8-1.2c6.8-2.6,14.2-3.6,21.4-2.9 c0.7,0.1,1.2,0.7,1.2,1.4c-0.1,0.7-0.7,1.2-1.4,1.2c0,0,0,0,0,0C72,32.1,65,33,58.6,35.4C58.4,35.5,58.3,35.5,58.1,35.5"></path><path d="M47.1,118.1c-0.2,0-0.4,0-0.5-0.1c-20.5-9-33.8-29.2-33.9-51.6c0-3,0.4-6.1,1.1-9c0-0.1,0.1-0.2,0.1-0.3 c6.4-11.4,20.9-19.3,36.8-20.1c13.3,2.1,22.9,8.2,28.9,18.3c1.3,3.6,1.9,7.4,1.8,11.2c-0.1,22.4-13.4,42.6-33.8,51.6 C47.5,118,47.3,118.1,47.1,118.1 M16.3,58.2c-0.7,2.7-1,5.4-1,8.2c0.1,21.1,12.5,40.3,31.8,49c19.2-8.7,31.7-27.9,31.8-49 c0-3.4-0.5-6.8-1.6-10.1C71.8,47,63,41.4,50.7,39.5C32.7,40.4,21,50.1,16.3,58.2"></path><path d="M11.1,135.8c-0.7,0-1.3-0.6-1.3-1.3c0-0.6,0.4-1.2,1.1-1.3c12.9-2.3,18.9-6.2,22.1-24.2 c0.1-0.7,0.8-1.2,1.5-1.1c0,0,0,0,0.1,0c0.7,0.1,1.2,0.8,1.1,1.5c0,0,0,0,0,0c-3.5,19.4-10.3,23.8-24.2,26.3 C11.2,135.8,11.2,135.8,11.1,135.8 M83.1,135.8c-0.1,0-0.2,0-0.2,0c-13.9-2.5-20.7-6.9-24.2-26.3c-0.1-0.7,0.3-1.4,1-1.5 c0,0,0,0,0,0c0.7-0.1,1.4,0.3,1.5,1c0,0,0,0,0,0c3.2,18,9.2,21.9,22.1,24.2c0.7,0.1,1.2,0.8,1.1,1.5 C84.3,135.4,83.8,135.8,83.1,135.8"></path><path d="M62.3,75.2c-7.6,0-13.8-4.5-13.8-10c0-5.5,6.2-9.9,13.8-9.9s13.8,4.5,13.8,9.9C76.1,70.8,70,75.2,62.3,75.2  M62.3,57.9c-6.1,0-11.2,3.4-11.2,7.3c0,4,5.1,7.4,11.2,7.4c6.2,0,11.2-3.3,11.2-7.4C73.5,61.2,68.5,57.9,62.3,57.9 M31.9,75.2 c-7.8,0-13.8-4.4-13.8-10c0-5.5,6.2-9.9,13.8-9.9s13.8,4.5,13.8,9.9C45.8,70.8,39.7,75.2,31.9,75.2 M31.9,57.9 c-6.2,0-11.2,3.3-11.2,7.3c0,4.1,5,7.4,11.2,7.4s11.2-3.3,11.2-7.4C43.1,61.2,38.1,57.9,31.9,57.9"></path><path d="M63.3,68.6c-2.5,0-4.9-0.8-6.9-2.3c-0.6-0.5-0.6-1.3-0.2-1.8s1.3-0.6,1.8-0.2l0,0c2.5,1.9,5.8,2.3,8.6,1 c0.6-0.3,1.4,0,1.7,0.6c0.3,0.6,0,1.4-0.6,1.7c0,0,0,0,0,0C66.4,68.3,64.9,68.6,63.3,68.6"></path><path d="M30,68.6c-1.6,0-3.1-0.3-4.5-1c-0.6-0.3-0.9-1.1-0.6-1.7c0.3-0.6,1.1-0.9,1.7-0.6c2.8,1.2,6.1,0.8,8.6-1 c0.6-0.4,1.4-0.3,1.8,0.2c0.4,0.5,0.4,1.3-0.2,1.8C34.9,67.8,32.5,68.6,30,68.6"></path></svg>