<svg xmlns="http://www.w3.org/2000/svg" xmlns:xlink="http://www.w3.org/1999/xlink" x="0px" y="0px" viewBox="0 0 142 142" style="enable-background:new 0 0 142 142;" xml:space="preserve"><g>	<path d="M11.9,71.9c-0.4,0-0.9-0.4-0.9-0.9c0-33,26.9-60,60-60H71c19.8,0,38.5,9.7,49.8,25.9c0.3,0.4,0.2,0.9-0.2,1.2  c-0.4,0.3-0.9,0.2-1.2-0.2C108.4,22.1,90.3,12.7,71,12.7H71c-32.2,0-58.3,26.1-58.3,58.3C12.7,71.4,12.3,71.9,11.9,71.9z"></path>	<path d="M120.3,38.3h-13.8c-0.4,0-0.9-0.4-0.9-0.9c0-0.4,0.4-0.9,0.9-0.9h13V23.7c0-0.4,0.4-0.9,0.9-0.9s0.9,0.4,0.9,0.9v13.8  C121.1,38,120.7,38.3,120.3,38.3z"></path></g><g>	<path d="M70.9,131c-19.8,0-38.5-9.7-49.8-25.9c-0.3-0.4-0.2-0.9,0.2-1.2c0.4-0.3,0.9-0.2,1.2,0.2c11,15.8,29.1,25.2,48.5,25.2H71  c32.2,0,58.3-26.1,58.3-58.3c0-0.4,0.4-0.9,0.9-0.9s0.9,0.4,0.9,0.9C130.9,104.1,103.9,131,70.9,131z"></path>	<path d="M21.7,119.1c-0.4,0-0.9-0.4-0.9-0.9v-13.8c0-0.4,0.4-0.9,0.9-0.9h13.8c0.4,0,0.9,0.4,0.9,0.9s-0.4,0.9-0.9,0.9H22.5v13  C22.5,118.8,22.2,119.1,21.7,119.1z"></path></g><path d="M55.2,100c-0.2,0-0.3,0-0.4-0.1L39,90.9c-0.3-0.2-0.4-0.4-0.4-0.7V72c0-0.3,0.2-0.6,0.4-0.7l15.8-9.1c0.3-0.2,0.6-0.2,0.9,0 l15.7,9.1c0.3,0.2,0.4,0.4,0.4,0.7v18.2c0,0.3-0.2,0.6-0.4,0.7l-15.7,9.1C55.5,100,55.3,100,55.2,100z M40.3,89.7l14.9,8.6l14.8-8.6 V72.4l-14.9-8.6l-14.9,8.6L40.3,89.7L40.3,89.7z"></path><path d="M47.3,86.5c-0.4,0-0.9-0.4-0.9-0.9v-9.1c0-0.4,0.4-0.9,0.9-0.9c0.4,0,0.9,0.4,0.9,0.9v9.1C48.1,86,47.8,86.5,47.3,86.5z"></path><path d="M55.2,118.3c-0.4,0-0.9-0.4-0.9-0.9V99.2c0-0.4,0.4-0.9,0.9-0.9s0.9,0.4,0.9,0.9v18.2C56,117.9,55.7,118.3,55.2,118.3z"></path><path d="M86.7,100c-0.2,0-0.3,0-0.4-0.1l-15.7-9.1c-0.3-0.2-0.4-0.4-0.4-0.7V72c0-0.3,0.2-0.6,0.4-0.7l15.8-9.1 c0.3-0.2,0.6-0.2,0.9,0l15.7,9.1c0.3,0.2,0.4,0.4,0.4,0.7v18.2c0,0.3-0.2,0.6-0.4,0.7l-15.7,9.1C87,100,86.9,100,86.7,100z  M71.8,89.7l14.9,8.6l14.9-8.6V72.4l-14.9-8.6l-14.9,8.6V89.7z"></path><path d="M86.7,91c-0.3,0-0.5-0.2-0.7-0.4c-0.3-0.4-0.1-0.9,0.3-1.2l7.9-4.5c0.4-0.3,0.9-0.1,1.2,0.3c0.3,0.4,0.1,0.9-0.3,1.2 l-7.9,4.5C87,91,86.9,91,86.7,91z"></path><path d="M102.5,72.8c-0.3,0-0.5-0.2-0.7-0.4c-0.3-0.4-0.1-0.9,0.3-1.2l15.8-9.1c0.4-0.3,0.9-0.1,1.2,0.3c0.3,0.4,0.1,0.9-0.3,1.2 l-15.8,9.1C102.8,72.8,102.7,72.8,102.5,72.8z"></path><path d="M71,72.8c-0.2,0-0.3,0-0.4-0.1l-15.7-9.1c-0.3-0.2-0.4-0.4-0.4-0.7V44.6c0-0.3,0.2-0.6,0.4-0.7l15.7-9.1 c0.3-0.2,0.6-0.2,0.9,0l15.7,9.1c0.3,0.2,0.4,0.4,0.4,0.7v18.2c0,0.3-0.2,0.6-0.4,0.7l-15.7,9.1C71.2,72.8,71.1,72.8,71,72.8z  M56,62.4L71,71l14.9-8.6V45.2L71,36.5L56,45.2V62.4z"></path><path d="M78.9,50c-0.2,0-0.3,0-0.4-0.1l-7.9-4.5c-0.4-0.3-0.5-0.7-0.3-1.2c0.3-0.4,0.7-0.5,1.2-0.3l7.9,4.5c0.4,0.3,0.5,0.7,0.3,1.2 C79.4,49.9,79.1,50,78.9,50z"></path><path d="M55.2,45.5c-0.2,0-0.3,0-0.4-0.1L39,36.3c-0.4-0.3-0.5-0.7-0.3-1.2c0.3-0.4,0.7-0.5,1.2-0.3l15.7,9.1 c0.4,0.3,0.5,0.7,0.3,1.2C55.8,45.3,55.5,45.5,55.2,45.5z"></path></svg>