<svg xmlns="http://www.w3.org/2000/svg" xmlns:xlink="http://www.w3.org/1999/xlink" x="0px" y="0px" viewBox="0 0 86 86" style="enable-background:new 0 0 86 86;" xml:space="preserve"><g>	<path d="M40.6,68.4c-5.4,0-12.7-2.7-16.9-15.3c-0.2-0.6,0.1-1.3,0.8-1.5c0.6-0.2,1.3,0.1,1.5,0.8C29,61.4,33.9,66,40.6,66  c6.5,0,11.6-4.7,14.6-13.7c0.1-0.4,0.5-0.7,0.9-0.8c0.2,0,3.9-1.1,3.9-6.1c0-1.9-1.4-3.6-3.3-3.9c-7.5-1.3-14.2-5.7-18.4-11.9  c-0.4-0.6-0.2-1.3,0.3-1.7c0.6-0.4,1.3-0.2,1.7,0.3c3.9,5.7,10,9.7,16.8,10.9c3.1,0.5,5.3,3.2,5.3,6.3c0,5-3,7.4-5.1,8.2  C53,65.8,45.9,68.4,40.6,68.4z"></path>	<path d="M24.9,53.9c-0.1,0-0.2,0-0.3,0c-2-0.5-5.8-2.9-5.8-8.4c0-3.1,2.4-5.8,5.5-6.2c6-0.8,11.2-4.6,13.6-10.2  c-0.8-1.2-1.4-2.4-2-3.7c-0.3-0.6,0-1.3,0.6-1.6c0.6-0.3,1.3,0,1.6,0.6c0.6,1.3,1.3,2.6,2.2,3.8c0.2,0.3,0.3,0.8,0.1,1.1  c-2.6,6.7-8.7,11.4-15.8,12.3c-1.9,0.2-3.3,1.8-3.3,3.8c0,5,3.8,6,3.9,6.1c0.6,0.2,1,0.8,0.9,1.5C25.9,53.5,25.4,53.9,24.9,53.9z"></path>	<path d="M56.3,80.5c-0.2,0-0.4,0-0.5-0.1c-2.5-1.3-7.7-3.9-7.9-16.1c0-0.7,0.5-1.2,1.2-1.2c0.7,0,1.2,0.5,1.2,1.2  c0.2,10.7,4.3,12.8,6.6,13.9c0.6,0.3,0.8,1,0.5,1.6C57.2,80.3,56.8,80.5,56.3,80.5z"></path>	<path d="M24.9,80.5c-0.4,0-0.9-0.2-1.1-0.7c-0.3-0.6-0.1-1.3,0.5-1.6c2.2-1.1,6.4-3.2,6.6-13.9c0-0.7,0.6-1.2,1.2-1.2c0,0,0,0,0,0  c0.7,0,1.2,0.6,1.2,1.2c-0.2,12.2-5.4,14.8-7.9,16.1C25.2,80.5,25,80.5,24.9,80.5z"></path>	<path d="M22.1,42.5c-0.6,0-1.1-0.4-1.2-1l0-0.1c0-0.1,0-0.2-0.1-0.3c-0.5-3-0.8-6-0.8-9c0-10,8.5-16.9,20.6-16.9  c12.1,0,20.6,7,20.6,16.9c0,3.1-0.3,6.3-0.9,9.4c-0.1,0.7-0.8,1.1-1.4,1c-0.7-0.1-1.1-0.8-1-1.4c0.5-2.9,0.8-6,0.8-9  c0-8.5-7.5-14.5-18.1-14.5s-18.1,6-18.1,14.5c0,2.8,0.3,5.7,0.8,8.5c0,0.1,0,0.3,0.1,0.4c0.1,0.7-0.3,1.4-1,1.5  C22.2,42.5,22.1,42.5,22.1,42.5z"></path>	<path d="M52.3,20.5c-0.1,0-0.3,0-0.4-0.1c-0.6-0.2-1-0.9-0.7-1.6c1-2.8,0.8-5.1-0.5-7c-1.7-2.5-5.5-3.9-10.1-3.9  c-4.6,0-8.4,1.5-10.1,3.9c-1.3,1.8-1.5,4.2-0.5,7c0.2,0.6-0.1,1.3-0.7,1.6c-0.6,0.2-1.3-0.1-1.6-0.7c-1.6-4.5-0.4-7.5,0.8-9.2  c2.2-3.1,6.7-5,12.1-5c5.4,0,9.9,1.9,12.1,5c1.2,1.7,2.4,4.7,0.8,9.2C53.3,20.2,52.8,20.5,52.3,20.5z"></path>	<path d="M40.6,61.2c-3.5,0-4.9-1.3-5.1-1.6C35,59,35,58.3,35.5,57.8c0.5-0.4,1.3-0.4,1.7,0.1l0,0c0,0,0,0,0,0c0,0,0.9,0.8,3.3,0.8  c2.5,0,3.3-0.8,3.3-0.8c0.5-0.5,1.2-0.5,1.7,0c0.5,0.4,0.5,1.2,0.1,1.7C45.5,59.8,44.1,61.2,40.6,61.2z"></path>	<path d="M12.8,74.5c-4,0-7.3-4.3-7.3-9.7c0-5.3,3.3-9.7,7.3-9.7c4,0,7.3,4.3,7.3,9.7C20,70.1,16.8,74.5,12.8,74.5z M12.8,57.5  c-2.6,0-4.8,3.3-4.8,7.2c0,3.9,2.2,7.2,4.8,7.2c2.6,0,4.8-3.3,4.8-7.2C17.6,60.8,15.4,57.5,12.8,57.5z"></path>	<path d="M73.2,49.1c-4,0-7.3-4.3-7.3-9.7c0-5.3,3.3-9.7,7.3-9.7c4,0,7.3,4.3,7.3,9.7C80.5,44.7,77.2,49.1,73.2,49.1z M73.2,32.1  c-2.6,0-4.8,3.3-4.8,7.2c0,3.9,2.2,7.2,4.8,7.2c2.6,0,4.8-3.3,4.8-7.2C78.1,35.4,75.8,32.1,73.2,32.1z"></path>	<path d="M48.3,48.9c-1.7,0-3-0.8-3.7-1.4c-0.4-0.4-0.5-1-0.2-1.5c0.3-0.6,1.1-0.8,1.7-0.5l0,0c0.1,0.1,0.2,0.1,0.3,0.2  c0.2,0.2,1.8,1.6,4.5-0.2c0.2-0.1,0.4-0.2,0.7-0.2h1.2c0.7,0,1.2,0.5,1.2,1.2s-0.5,1.2-1.2,1.2h-0.9C50.5,48.6,49.3,48.9,48.3,48.9  z"></path>	<path d="M32.9,48.9c-1.1,0-2.3-0.3-3.5-1.1h-0.9c-0.7,0-1.2-0.5-1.2-1.2s0.5-1.2,1.2-1.2h1.2c0.2,0,0.5,0.1,0.7,0.2  c2.8,1.8,4.5,0.2,4.5,0.2c0.1-0.1,0.2-0.2,0.3-0.2c0.6-0.3,1.3-0.1,1.7,0.5c0.3,0.5,0.1,1.2-0.3,1.5C35.8,48.2,34.5,48.9,32.9,48.9  z"></path></g></svg>