<svg xmlns="http://www.w3.org/2000/svg" xmlns:xlink="http://www.w3.org/1999/xlink" id="Layer_1" x="0px" y="0px" viewBox="0 0 20.3 22.5" style="enable-background:new 0 0 20.3 22.5;" xml:space="preserve"><g>	<path d="M19.2,3.4L19.2,3.4c0-1.2-0.9-2.1-2.1-2.1c-0.5,0-1,0.2-1.4,0.5l-5.5,4.8L4.6,1.8C3.8,1,2.4,1.1,1.7,2  S1,4.1,1.8,4.9c0,0,0,0,0,0l8.3,7.2L18.4,5C18.9,4.6,19.2,4,19.2,3.4"></path>	<path d="M19.2,12.5L19.2,12.5c0-1.2-0.9-2.1-2.1-2.1c-0.5,0-1,0.2-1.4,0.5l-5.5,4.8l-5.5-4.8  c-0.9-0.8-2.2-0.7-2.9,0.2C0.9,12,1,13.3,1.9,14.1l8.3,7.2l8.3-7.2C18.9,13.7,19.2,13.1,19.2,12.5"></path></g></svg>