<svg xmlns="http://www.w3.org/2000/svg" xmlns:xlink="http://www.w3.org/1999/xlink" x="0px" y="0px" viewBox="0 0 161.9 90" style="enable-background:new 0 0 161.9 90;" xml:space="preserve"><g>	<path d="M35.7,36.1c-8.3,0-15,6.7-15,15l0,0c0,0.5,0,1,0.1,1.5c0.8-3.8,7.1-6.7,14.9-6.7s14.1,3,14.9,6.7  c0.8-8.2-5.2-15.6-13.4-16.4C36.7,36.1,36.2,36.1,35.7,36.1"></path>	<path d="M146,31.2c-6.4-7.8-16.9-17.1-34.2-26.8c-8.4-4.7-19.1-0.1-21.1,9.3c0,0.1,0,0.2-0.1,0.4  c0,0.2-0.2,0.3-0.3,0.3H70.8c-0.2,0-0.3-0.1-0.3-0.3c0-0.1,0-0.2-0.1-0.4c-2-9.4-12.7-14-21.1-9.3C29.3,15.5,18.4,26.2,12.4,34.5  C0.8,47.8,2.2,68,15.4,79.6s33.4,10.3,45.1-3c6.6-7.5,9.3-17.7,7.2-27.5c-0.2-0.8,0.3-1.6,1.1-1.7c0.1,0,0.2,0,0.3,0h23.6  c0.8,0,1.5,0.7,1.5,1.5c0,0.1,0,0.2,0,0.3c-3.6,17.3,7.5,34.2,24.7,37.8s34.2-7.5,37.8-24.7C159.1,50.6,155,38.7,146,31.2   M36.5,81.9C21.9,81.9,10,70.1,10,55.5s11.8-26.4,26.4-26.4s26.4,11.8,26.4,26.4v0C62.9,70.1,51,81.9,36.5,81.9 M125.4,81.9  C110.8,81.9,99,70.1,99,55.5c0-14.6,11.8-26.4,26.4-26.4c14.6,0,26.4,11.8,26.4,26.4v0C151.8,70.1,140,81.9,125.4,81.9"></path>	<path d="M124.6,36.1c-8.3,0-15,6.7-15,15c0,0.5,0,1,0.1,1.5c0.8-3.8,7.1-6.7,14.9-6.7s14.1,3,14.9,6.7  c0.1-0.5,0.1-1,0.1-1.5C139.6,42.8,132.9,36.1,124.6,36.1"></path></g></svg>