<svg xmlns="http://www.w3.org/2000/svg" xmlns:xlink="http://www.w3.org/1999/xlink" x="0px" y="0px" viewBox="0 0 107.1 115" style="enable-background:new 0 0 107.1 115;" xml:space="preserve"><g transform="translate(0 -0.005)">	<path d="M53.5,110c-13.8,0-27.5,0-41.3,0c-4.2,0-7.6-3.4-7.6-7.6c0-26,0-52.1,0-78.1c-0.1-3.7,2.5-6.9,6.2-7.5  c0.5-0.1,1-0.1,1.5-0.1c3.7,0,7.4,0,11.1,0c0.8,0,0.8,0,0.8-0.8c0-2.1,0-4.3,0-6.4c-0.1-1.3,0.5-2.7,1.5-3.5c1.2-1,2.8-1.1,4.1-0.4  c1.4,0.6,2.2,2,2.2,3.5c0,2.3,0,4.6,0,7c0,0.6,0.2,0.8,0.8,0.8c13.2,0,26.5,0,39.7,0c0.6,0,0.8-0.2,0.8-0.8c0-2.3,0-4.6,0-6.8  c0-2.1,1.7-3.9,3.8-4s3.9,1.7,4,3.8c0,0,0,0.1,0,0.1c0,2.3,0,4.6,0,6.8c0,0.8,0,0.8,0.8,0.8c4.3,0,8.7,0,13,0  c3.7-0.1,6.9,2.6,7.5,6.3c0.1,0.4,0.1,0.8,0.1,1.2c0,26.2,0,52.3,0,78.5c0,4.1-3.3,7.4-7.4,7.4c0,0-0.1,0-0.1,0  C81.2,110,67.3,110,53.5,110 M53.6,44.5H11.4c-0.8,0-0.8,0-0.8,0.8c0,17.9,0,35.7,0,53.6c0,0.6,0.1,1.2,0.2,1.8  c0.6,2.3,2.8,3.9,5.2,3.7c25.3,0,50.6,0,75.9,0c2.3,0.2,4.4-1.5,4.5-3.9c0-0.2,0-0.4,0-0.7c0-18.1,0-36.3,0-54.4c0-0.9,0-0.9-1-0.9  L53.6,44.5 M73.3,21.9c-1.8,1.6-2.5,4.2-1.6,6.5c1.2,3,4.6,4.5,7.6,3.3c1.8-0.7,3.1-2.2,3.5-4.1c0.5-2-0.2-4.2-1.8-5.6  c0,1.4,0,2.8,0,4.2c0.1,2.1-1.6,3.9-3.8,4s-3.9-1.6-4-3.8c0-0.1,0-0.1,0-0.2C73.3,24.8,73.3,23.4,73.3,21.9 M24.3,21.9  c-1.5,1.3-2.3,3.3-1.9,5.3c0.5,3.2,3.6,5.3,6.7,4.8c3.2-0.5,5.3-3.6,4.8-6.7c-0.2-1.1-0.7-2.1-1.4-2.9c-0.1-0.1-0.2-0.3-0.4-0.2  c-0.1,0.1-0.1,0.3-0.1,0.4c0,1.2,0,2.5,0,3.7c0,2.2-1.7,3.9-3.9,3.9c0,0-0.1,0-0.1,0c-2.1,0-3.8-1.7-3.8-3.8c0,0,0-0.1,0-0.1  C24.3,24.8,24.3,23.4,24.3,21.9"></path>	<path d="M44.8,50.8c1.2,0,2.4,0,3.5,0c1.2-0.1,2.3,0.8,2.4,2c0,0.1,0,0.2,0,0.3c0,2.4,0,4.8,0,7.3  c0,1.2-0.9,2.2-2.1,2.3c-0.1,0-0.2,0-0.3,0c-2.3,0-4.7,0-7,0c-1.2,0.1-2.2-0.7-2.4-1.9c0-0.1,0-0.2,0-0.3c-0.1-2.5-0.1-5,0-7.5  c0-1.2,1-2.1,2.1-2.1c0.1,0,0.1,0,0.2,0C42.5,50.8,43.6,50.8,44.8,50.8"></path>	<path d="M44.8,86.3c1.2,0,2.4,0,3.5,0c1.2-0.1,2.2,0.7,2.3,1.9c0,0.1,0,0.2,0,0.3c0.1,2.5,0.1,4.9,0,7.4  c0,1.2-0.9,2.2-2.1,2.2c-0.1,0-0.1,0-0.2,0c-2.4,0-4.8,0-7.2,0c-1.2,0.1-2.2-0.8-2.3-1.9c0-0.1,0-0.1,0-0.2c-0.1-2.5-0.1-5,0-7.6  c0-1.2,0.9-2.1,2.1-2.1c0.1,0,0.2,0,0.2,0C42.4,86.3,43.6,86.3,44.8,86.3"></path>	<path d="M44.8,79.9c-1.2,0-2.4,0-3.5,0c-1.2,0.1-2.2-0.7-2.3-1.9c0-0.1,0-0.2,0-0.3c-0.1-2.4-0.1-4.9,0-7.3  c0-1.2,0.9-2.2,2.1-2.3c0.1,0,0.2,0,0.3,0c2.3,0,4.6,0,7,0c1.3-0.1,2.3,0.8,2.4,2.1c0,0.1,0,0.2,0,0.4c0,2.3,0,4.6,0,6.9  c0.1,1.2-0.7,2.3-2,2.4c-0.2,0-0.3,0-0.5,0C47.1,79.9,46,79.9,44.8,79.9"></path>	<path d="M73.9,74.2c0-1.2,0-2.4,0-3.7c0-1.2,0.9-2.2,2-2.2c0,0,0.1,0,0.1,0c2.5,0,5,0,7.4,0c1.2,0,2.1,0.9,2.2,2.1  c0,0,0,0,0,0c0,2.5,0,5,0,7.5c0,1.2-1,2.1-2.2,2.1c-2.5,0-5,0-7.4,0c-1.2,0-2.2-0.9-2.2-2.1c0,0,0-0.1,0-0.1c0,0,0-0.1,0-0.1  C73.9,76.5,73.9,75.3,73.9,74.2"></path>	<path d="M85.7,92.2c0,1.2,0,2.4,0,3.7c0.1,1.2-0.8,2.2-2,2.2c-0.1,0-0.1,0-0.2,0c-2.5,0-4.9,0-7.4,0  c-1.2,0-2.2-0.9-2.2-2.1c0,0,0-0.1,0-0.1c0-2.5,0-4.9,0-7.4c0-1.2,0.9-2.2,2.1-2.2c0,0,0.1,0,0.1,0c2.4,0,4.8,0,7.3,0  c1.2-0.1,2.2,0.8,2.2,2c0,0.1,0,0.2,0,0.2C85.7,89.8,85.7,91,85.7,92.2"></path>	<path d="M33.2,74.2c0,1.2,0,2.4,0,3.7c0.1,1.2-0.8,2.1-2,2.2c0,0-0.1,0-0.1,0c-2.5,0-5,0-7.4,0  c-1.2,0-2.2-0.9-2.2-2.1c0,0,0,0,0-0.1c0-2.5,0-5,0-7.4c0-1.2,1-2.2,2.2-2.2c0,0,0.1,0,0.1,0c2.4,0,4.9,0,7.3,0  c1.2,0,2.1,0.9,2.2,2c0,0.1,0,0.1,0,0.2C33.2,71.7,33.2,72.9,33.2,74.2"></path>	<path d="M56.4,56.7c0-1.2,0-2.4,0-3.7c-0.1-1.2,0.8-2.2,2-2.2c0.1,0,0.1,0,0.2,0c2.4,0,4.8,0,7.3,0  c1.2-0.1,2.2,0.9,2.3,2.1c0,0,0,0.1,0,0.1c0,2.5,0,4.9,0,7.4c0,1.2-0.9,2.2-2.1,2.2c0,0-0.1,0-0.1,0c-2.4,0-4.9,0-7.3,0  c-1.2,0-2.2-0.9-2.2-2.1c0-0.1,0-0.1,0-0.2c0,0,0-0.1,0-0.1C56.4,59,56.4,57.9,56.4,56.7"></path>	<path d="M73.9,56.7c0-1.2,0-2.4,0-3.7c-0.1-1.2,0.9-2.2,2-2.2c0.1,0,0.1,0,0.2,0c2.4,0,4.9,0,7.3,0  c1.2,0,2.2,0.9,2.2,2.1c0,0.1,0,0.1,0,0.2c0,2.4,0,4.8,0,7.3c0,1.2-0.9,2.2-2.1,2.3c0,0-0.1,0-0.1,0c-2.4,0-4.8,0-7.3,0  c-1.2,0-2.2-0.9-2.3-2.1c0-0.1,0-0.1,0-0.2c0-0.6,0-1.2,0-1.8C73.9,57.9,73.9,57.3,73.9,56.7"></path>	<path d="M56.4,74.1c0-1.2,0-2.4,0-3.6c-0.1-1.2,0.8-2.2,2-2.2c0.1,0,0.1,0,0.2,0c2.4,0,4.9,0,7.3,0  c1.2,0,2.2,0.9,2.2,2.1c0,0,0,0.1,0,0.1c0,2.5,0,5,0,7.4c0,1.2-1,2.2-2.2,2.2c0,0-0.1,0-0.1,0c-2.4,0-4.9,0-7.3,0  c-1.2,0-2.2-0.9-2.2-2.1c0,0,0-0.1,0-0.1C56.4,76.6,56.4,75.4,56.4,74.1"></path>	<path d="M27.3,86.3c1.2,0,2.4,0,3.6,0c1.1-0.1,2.2,0.8,2.3,1.9c0,0.1,0,0.2,0,0.3c0,2.4,0,4.8,0,7.3  c0.1,1.2-0.8,2.2-2,2.3c-0.1,0-0.1,0-0.2,0c-2.4,0-4.9,0-7.3,0c-1.2,0-2.2-0.9-2.3-2.1c0-0.1,0-0.1,0-0.2c0-2.4,0-4.7,0-7.1  c-0.1-1.2,0.9-2.3,2.1-2.3c0.1,0,0.2,0,0.3,0C25,86.3,26.2,86.3,27.3,86.3"></path>	<path d="M56.4,92.2c0-1.2,0-2.4,0-3.7c-0.1-1.2,0.8-2.1,2-2.2c0.1,0,0.2,0,0.2,0c2.4,0,4.8,0,7.3,0  c1.2-0.1,2.2,0.8,2.3,2c0,0.1,0,0.1,0,0.2c0,2.5,0,4.9,0,7.4c0,1.2-0.9,2.2-2.1,2.2c0,0-0.1,0-0.1,0c-2.5,0-4.9,0-7.4,0  c-1.2,0-2.2-0.9-2.2-2.1c0-0.1,0-0.1,0-0.2C56.4,94.6,56.4,93.4,56.4,92.2"></path></g></svg>