<svg xmlns="http://www.w3.org/2000/svg" xmlns:xlink="http://www.w3.org/1999/xlink" x="0px" y="0px" viewBox="0 0 125.8 140" style="enable-background:new 0 0 125.8 140;" xml:space="preserve"><path d="M30.8,28.2l3,18.1c0.2,1.4,0.4,2.8,0.5,4.3c0.1,0.7,0.6,1.2,1.3,1.2c0,0,0.1,0,0.1,0 c0.7-0.1,1.3-0.7,1.2-1.4c-0.1-1.5-0.3-3-0.6-4.5L34,31c8.3,5.8,19.7,3.7,25.5-4.6c2.1-3.1,3.3-6.7,3.3-10.5c0-0.7-0.6-1.3-1.4-1.3 c-0.7,0-1.3,0.6-1.3,1.3c0,8.7-7.1,15.7-15.7,15.7c-8.7,0-15.7-7.1-15.7-15.7c0-3.1,0.9-6.2,2.7-8.7c0.4-0.6,0.3-1.4-0.4-1.8 c-0.6-0.4-1.4-0.3-1.8,0.4l0,0C24.4,12.6,25.1,21.9,30.8,28.2L30.8,28.2L30.8,28.2z"></path><path d="M107.4,110.3L107.4,110.3c-0.8,0-1.3,0.6-1.3,1.4c0.1,3.6-0.1,7.2-0.7,10.8l-1.7,11 c-0.1,0.7,0.4,1.4,1.1,1.5c0.7,0.1,1.4-0.4,1.5-1.1l1.7-11c0.6-3.7,0.8-7.5,0.7-11.3C108.7,110.9,108.1,110.3,107.4,110.3 L107.4,110.3z"></path><path d="M88.5,107.6L64.7,119l-39.8-19c0.6-2.4,1.3-4.7,2.2-6.9c12.5,3.1,25.3,4.6,38.2,4.5 c12.5,0,24.9-1.5,37-4.6c0.3,0.8,0.6,1.5,0.9,2.3c0.2,0.7,1,1.1,1.7,0.9c0.7-0.2,1.1-1,0.9-1.7c0,0,0-0.1,0-0.1 c-0.4-1.2-0.8-2.4-1.3-3.5l-5.1-12.5c-4.2-10.2-5.4-21.3-3.7-32.2l3-18.1v0c5.5-6,6.4-15,2.1-21.9c-0.4-0.6-1.2-0.8-1.8-0.4 C98.2,6.2,98,7,98.3,7.6c4.5,7.4,2.2,17.1-5.2,21.6c-7.4,4.5-17.1,2.2-21.6-5.2c-1.5-2.5-2.3-5.3-2.3-8.2c0-0.7-0.6-1.3-1.3-1.3 c-0.7,0-1.3,0.6-1.3,1.3c0,10.1,8.2,18.3,18.3,18.4c3.7,0,7.4-1.1,10.5-3.3l-2.4,14.9c-1.9,11.3-0.5,23,3.8,33.6l4.5,11.1 c-34.7,8.9-66.3,1.8-73.2,0l4.6-11.1c0.3-0.7-0.1-1.4-0.8-1.7c-0.7-0.2-1.4,0.1-1.7,0.7L25,90.9c-1.2,3-2.2,6.1-2.9,9.2 c-0.1,0.2-0.1,0.3-0.1,0.5c-1.6,7.3-1.9,14.9-0.7,22.2l1.7,11c0.1,0.7,0.8,1.2,1.5,1.1c0.7-0.1,1.2-0.8,1.1-1.5c0,0,0,0,0,0 l-1.7-11c-1-6.6-0.9-13.3,0.4-19.9l39.1,18.7v12.4c0,0.7,0.6,1.3,1.4,1.3c0.7,0,1.3-0.6,1.3-1.3v-12.4L89.6,110 c0.7-0.3,0.9-1.1,0.6-1.8S89.1,107.3,88.5,107.6L88.5,107.6z"></path><path d="M64.7,75c0.7,0,1.3-0.6,1.3-1.3c0,0,0,0,0,0v-1.4c0-0.7-0.6-1.3-1.3-1.3c-0.7,0-1.3,0.6-1.3,1.3v1.4 C63.3,74.4,63.9,75,64.7,75C64.7,75,64.7,75,64.7,75z"></path><g><path d="M44,70.4c0.7,0.2,1.4-0.2,1.6-1c0,0,0,0,0,0c0.5-1.8,0.8-3.6,1-5.4c0.1-0.7-0.4-1.4-1.2-1.5 c-0.7-0.1-1.4,0.4-1.5,1.2l0,0c-0.2,1.7-0.5,3.4-0.9,5C42.9,69.5,43.3,70.3,44,70.4C44,70.4,44,70.4,44,70.4L44,70.4z"></path><path d="M39,81.2c0.6,0.4,1.4,0.2,1.8-0.4c1-1.6,1.8-3.2,2.6-4.8c0.3-0.7,0-1.5-0.6-1.8c-0.7-0.3-1.5,0-1.8,0.6         c0,0,0,0,0,0.1c-0.7,1.6-1.5,3.1-2.4,4.5C38.2,80,38.4,80.8,39,81.2L39,81.2z"></path><path d="M46.1,51.8c-0.2-0.7-0.9-1.2-1.6-1c-0.7,0.2-1.1,0.8-1,1.5c0.3,1.7,0.5,3.4,0.6,5.1         c0,0.7,0.6,1.3,1.4,1.3c0.7,0,1.3-0.6,1.3-1.4c0,0,0,0,0-0.1C46.7,55.5,46.5,53.6,46.1,51.8L46.1,51.8z"></path><path d="M43.5,47c0.7-0.2,1-1,0.8-1.7c-0.6-1.8-1.3-3.4-2.2-5.1c-0.4-0.6-1.2-0.8-1.8-0.4         c-0.6,0.4-0.8,1.2-0.5,1.8c0.8,1.5,1.5,3,2,4.6C42.1,46.8,42.8,47.2,43.5,47L43.5,47z"></path></g><g><path d="M83.2,51.9c-0.3,1.8-0.6,3.6-0.7,5.4c0,0.7,0.5,1.4,1.2,1.4c0,0,0,0,0,0h0.1c0.7,0,1.3-0.5,1.3-1.2 c0.1-1.7,0.3-3.4,0.6-5.1c0.1-0.7-0.4-1.4-1.1-1.5C84,50.7,83.4,51.2,83.2,51.9L83.2,51.9z"></path><path d="M89,39.7c-0.6-0.4-1.4-0.2-1.8,0.5c-0.9,1.6-1.6,3.3-2.2,5.1c-0.2,0.7,0.1,1.4,0.8,1.7 c0.7,0.2,1.4-0.1,1.7-0.8c0.5-1.6,1.2-3.1,2-4.6C89.9,40.9,89.7,40.1,89,39.7L89,39.7z"></path><path d="M86.3,68.8c-0.4-1.7-0.7-3.3-0.9-5c-0.1-0.7-0.7-1.2-1.5-1.2c-0.7,0.1-1.2,0.7-1.2,1.5 c0.2,1.8,0.5,3.6,1,5.4c0.2,0.7,0.9,1.2,1.6,1C86,70.3,86.4,69.6,86.3,68.8C86.3,68.9,86.3,68.9,86.3,68.8L86.3,68.8z"></path><path d="M88.5,80.8c0.4,0.6,1.2,0.8,1.8,0.4c0.6-0.4,0.8-1.2,0.4-1.8c-0.9-1.5-1.7-3-2.4-4.5 c-0.3-0.7-1.1-0.9-1.8-0.6c-0.6,0.3-0.9,1.1-0.6,1.7C86.7,77.6,87.6,79.2,88.5,80.8L88.5,80.8z"></path></g><path d="M102.6,60.1c-0.7-0.2-1.4,0.3-1.6,1c-0.2,0.7,0.3,1.4,1,1.6c0.1,0,0.1,0,0.2,0c10.7,2,17.9,12.2,16.3,23 c-1.6,10.4-10.8,17.8-21.3,17.1l2-3.1c0.4-0.6,0.2-1.4-0.4-1.8c-0.6-0.4-1.4-0.2-1.8,0.4l-3,4.6c-0.2,0.3-0.3,0.7-0.3,1.1 c0,0.4,0.2,0.8,0.5,1.1l4.5,4.7c0.5,0.5,1.4,0.5,1.9,0c0.5-0.5,0.5-1.3,0-1.8l-2.3-2.4c0.1,0,0.2,0,0.3,0 c11.3,0,20.8-8.2,22.5-19.4C122.8,73.9,114.7,62.4,102.6,60.1L102.6,60.1z"></path><path d="M17,101.4C7.7,95.8,4.4,83.8,9.7,74.2c5.1-9.2,16.3-12.9,25.9-8.6l-3,2.2c-0.6,0.4-0.7,1.3-0.3,1.9 c0.4,0.6,1.3,0.7,1.9,0.3l0,0l4.4-3.3c0.3-0.2,0.6-0.6,0.7-1c0.1-0.4,0-0.8-0.1-1.1l-2.6-6c-0.3-0.7-1.1-1-1.7-0.7 c-0.7,0.3-1,1.1-0.7,1.7l0,0l1.4,3.1C24.8,58.6,12.9,63,7.3,72.9c-5.9,10.8-2.3,24.4,8.3,30.8c0.6,0.4,1.4,0.2,1.8-0.4 C17.9,102.7,17.7,101.8,17,101.4C17,101.5,17,101.4,17,101.4L17,101.4z"></path></svg>