<svg xmlns="http://www.w3.org/2000/svg" xmlns:xlink="http://www.w3.org/1999/xlink" x="0px" y="0px" viewBox="0 0 100 100" style="enable-background:new 0 0 100 100;" xml:space="preserve"><g>	<path d="M68.5,90c-1.1,0-2.2,0-3.4-0.1c-6.8-0.4-14.5-2.1-22.7-5c-8.6-3-17.8-7.4-27.3-12.9c-5-2.9-8.4-6.6-10.1-11  c-1.5-4-1.7-8.5-0.5-13.5c2.1-8.5,8.3-17.7,16.9-25.2c4.1-3.6,8.5-6.5,12.8-8.6c4.6-2.2,8.9-3.4,12.8-3.6  c7.8-0.3,13.2,3.7,15.8,11.6C69,40.2,79.3,50.5,86.8,57.9c3.9,3.9,7,7,8.5,10.2c1.6,3.4,1.2,6.7-1.4,10.5  C88.8,86.1,80.1,90,68.5,90z M47.9,10.1c-0.2,0-0.5,0-0.7,0c-7.6,0.3-17.1,4.8-25.5,12.2C13,29.8,6.8,39,4.7,47.5  C2.9,54.8,3.2,65,15.2,71.9c18.7,10.8,36,17,50,17.9c1.2,0.1,2.3,0.1,3.4,0.1c11.5,0,20.2-3.9,25.2-11.3c2.6-3.8,3-7,1.4-10.4  c-1.5-3.2-4.6-6.2-8.5-10.1c-7.5-7.5-17.8-17.7-23.9-36.4C60.3,14.1,55.2,10.1,47.9,10.1z"></path></g></svg>