<svg xmlns="http://www.w3.org/2000/svg" xmlns:xlink="http://www.w3.org/1999/xlink" x="0px" y="0px" viewBox="0 0 100 100" style="enable-background:new 0 0 100 100;" xml:space="preserve"><g>	<path d="M70.9,95c-3.4,0-6.9-1.1-10.4-3.2c-1.2-0.7-2.4-1.6-3.6-2.4c-1-0.7-2.1-1.4-3.1-2c-7.4-4.6-14.8-5.9-22.5-4.1  c-3,0.7-6.6,1.4-10.4,1.3C12.7,84.5,7.9,81,5.4,73.5C1.4,61.4,2,49.2,7.1,37.3c2.8-6.5,7.1-12.6,12.6-18l0,0  C31.1,8.6,44.8,3.8,60.6,5.2c11.7,1,21.2,7.5,28.1,19.1c9.2,15.4,10.9,32.5,5.1,50.6c-2.3,7.1-6.5,12.8-12.5,16.7  C77.9,93.9,74.5,95,70.9,95z M37.8,82.3c5.4,0,10.7,1.6,16,4.9c1.1,0.7,2.1,1.4,3.1,2.1c1.2,0.8,2.4,1.6,3.6,2.3  c7,4.3,13.9,4.2,20.6-0.2c6-3.9,10.2-9.5,12.4-16.6c5.8-18,4.1-35-5.1-50.4c-6.9-11.5-16.3-17.9-27.9-19  c-15.8-1.4-29.5,3.3-40.7,14c-5.5,5.4-9.8,11.4-12.6,17.9c-5.1,11.9-5.7,24-1.7,36.1c2.5,7.4,7.1,10.8,15.2,11  c3.8,0.1,7.3-0.6,10.3-1.3C33.4,82.5,35.7,82.3,37.8,82.3z"></path></g></svg>