<svg xmlns="http://www.w3.org/2000/svg" xmlns:xlink="http://www.w3.org/1999/xlink" x="0px" y="0px" viewBox="0 0 153.6 102.7" style="enable-background:new 0 0 153.6 102.7;" xml:space="preserve"><path d="M146.5,98.9H7.1c-0.7,0-1.3-0.6-1.3-1.3c0-0.7,0.6-1.3,1.3-1.3h139.4c0.7,0,1.3,0.6,1.3,1.3S147.3,98.9,146.5,98.9 C146.5,98.9,146.5,98.9,146.5,98.9"></path><path d="M93.9,80.7c0,0-17.3-30.2-21.4-37.3l-0.1,0c-0.8,0.5-1.8,0.7-2.7,0.4c-1-0.3-1.8-0.9-2.3-1.8l-3.5-6.2l-3.1,1.8 c-0.6,0.4-1.3,0.5-2,0.3c-0.7-0.2-1.4-0.6-1.8-1.3L45.2,16.2c-0.4-0.6-0.1-1.5,0.5-1.8c0.6-0.4,1.5-0.1,1.8,0.5l11.8,20.5l15.3-8.9 L62.8,5.9c-0.4-0.6-0.1-1.5,0.5-1.8c0.6-0.4,1.4-0.1,1.8,0.5l11.8,20.5c0.8,1.3,0.3,3-1,3.8c0,0,0,0,0,0l-3.1,1.8l3.6,6.2 c1,1.8,0.4,4-1.3,5.1L74.8,42c4.1,7.2,21.4,37.3,21.4,37.3L93.9,80.7z"></path><path d="M66.1,34.5l3.5,6.2c0.1,0.2,0.4,0.4,0.6,0.5c0.2,0.1,0.5,0,0.7-0.1l0.1,0l2.6-1.4c0.5-0.3,0.6-0.9,0.3-1.4L70.4,32 L66.1,34.5z"></path><g>	<path d="M23.5,92.7h-8.1c-0.7,0-1.4-0.5-1.4-1.3s0.5-1.4,1.3-1.4c0,0,0.1,0,0.1,0h8.1c0.7,0,1.4,0.5,1.4,1.3c0,0.7-0.5,1.4-1.3,1.4  C23.6,92.7,23.6,92.7,23.5,92.7"></path>	<path d="M96.3,91.2h-5.6c-0.7,0-1.3-0.7-1.3-1.4c0-0.7,0.6-1.2,1.3-1.3h5.6c0.7,0,1.3,0.7,1.3,1.4C97.6,90.6,97,91.1,96.3,91.2"></path>	<path d="M61.7,90.6H50.4c-0.7,0-1.4-0.5-1.4-1.3c0-0.7,0.5-1.4,1.3-1.4c0,0,0.1,0,0.1,0h11.2c0.7,0,1.3,0.7,1.3,1.4  C62.9,90.1,62.3,90.6,61.7,90.6"></path>	<path d="M139.3,89h-11.2c-0.7,0-1.3-0.7-1.3-1.4c0-0.7,0.6-1.2,1.3-1.3h11.2c0.7,0,1.3,0.7,1.3,1.4C140.6,88.4,140,88.9,139.3,89"></path>	<path d="M39.3,85.6H28.1c-0.7,0-1.3-0.6-1.3-1.3c0-0.7,0.6-1.3,1.3-1.3h11.2c0.7,0,1.3,0.6,1.3,1.3C40.7,85,40.1,85.6,39.3,85.6  C39.3,85.6,39.3,85.6,39.3,85.6"></path>	<path d="M112.7,80.8h-11.2c-0.7,0-1.3-0.6-1.3-1.3c0-0.7,0.6-1.3,1.3-1.3h11.2c0.7,0,1.3,0.6,1.3,1.3  C114.1,80.2,113.5,80.8,112.7,80.8"></path>	<path d="M81.7,80.6H70.5c-0.7,0-1.3-0.7-1.3-1.4c0-0.7,0.6-1.2,1.3-1.3h11.2c0.7,0,1.3,0.7,1.3,1.4C83,80,82.4,80.6,81.7,80.6"></path></g><path d="M41.4,76.4c-10.5-0.1-21-1.7-31.1-4.7c-0.7-0.2-1.1-0.9-0.9-1.6c0.2-0.7,0.9-1.1,1.6-0.9c0,0,0,0,0,0 c27.9,7.9,44.6,4,62.2-0.1c3.4-0.8,6.9-1.6,10.5-2.3c0.7-0.1,1.4,0.3,1.6,1c0.1,0.7-0.3,1.4-1,1.6l0,0c-3.6,0.7-7,1.5-10.5,2.3 C63.5,74.1,53.4,76.4,41.4,76.4"></path><path d="M141.2,69.6c-0.1,0-0.2,0-0.3,0c-17.8-3.5-32.8-4-48.5-1.7c-0.7,0.1-1.4-0.4-1.5-1.1c-0.1-0.7,0.4-1.4,1.1-1.5c0,0,0,0,0,0 c16.1-2.4,31.3-1.9,49.5,1.7c0.7,0.1,1.2,0.8,1.1,1.6C142.4,69.1,141.8,69.6,141.2,69.6"></path><path d="M41.4,61.5c-9.8,0-20.9-1.5-34.6-5.7c-0.7-0.2-1.1-1-0.9-1.7c0.2-0.7,1-1.1,1.7-0.9c30.1,9.2,47.4,5.2,65.7,1l2.4-0.5 c0.7-0.2,1.4,0.3,1.6,1c0.2,0.7-0.3,1.4-1,1.6l-2.4,0.5C63.5,59.2,53.5,61.5,41.4,61.5"></path><path d="M146.5,55.8c-0.1,0-0.2,0-0.3,0c-28.5-6.4-46.5-4.5-61.6-1.4c-0.7,0.1-1.4-0.3-1.6-1.1c-0.1-0.7,0.3-1.4,1-1.6c0,0,0,0,0,0 c15.5-3.1,33.8-5.1,62.8,1.4c0.7,0.2,1.2,0.9,1,1.6C147.7,55.4,147.2,55.8,146.5,55.8"></path></svg>