<svg xmlns="http://www.w3.org/2000/svg" xmlns:xlink="http://www.w3.org/1999/xlink" x="0px" y="0px" viewBox="0 0 104 104" style="enable-background:new 0 0 104 104;" xml:space="preserve"><g>	<path d="M99.5,51.7c0.1,13.3-5.4,26-15.1,35c-0.7,0.6-1.8,0.6-2.4-0.1c0,0,0,0-0.1-0.1L71.6,74.3  c-0.7-0.8-0.7-2.1,0-2.9l7.5-8.9c0.6-0.7,1.6-0.8,2.2-0.2c0.1,0.1,0.1,0.1,0.2,0.2l7.8,9.2c0.4,0.4,1,0.5,1.5,0.1  c0.1-0.1,0.2-0.2,0.3-0.3c10.8-21.6,2-47.8-19.5-58.5S23.7,11,13,32.5c-6.2,12.4-6.1,27,0.2,39.3c0.3,0.7,1.2,0.9,1.8,0.6  c0.2-0.1,0.3-0.2,0.4-0.3l8-9.4c0.6-0.7,1.7-0.8,2.4-0.2c0.1,0.1,0.1,0.1,0.2,0.2l7.7,8.6c0.7,0.8,0.7,1.9,0,2.7L23,86.6  c-0.8,1-2.3,1.1-3.3,0.3c0,0-0.1,0-0.1-0.1c-3.2-3-5.9-6.3-8.2-10l0,0C-2.2,54.4,4.9,25.1,27.3,11.5s51.6-6.6,65.3,15.8  C97,34.6,99.5,43.1,99.5,51.7"></path>	<path d="M67.6,44.8l3.5-3.8h-8.8v-5.5H51.3V43h5.1v5.8h14.6l-3.4-3.1C67.4,45.4,67.4,45,67.6,44.8"></path>	<rect x="51.1" y="32.9" width="1.1" height="22"></rect>	<path d="M52,56.9c-0.6,0.8-1.2,1.7-1.6,2.6l-0.1,0.2c0,0,0,0.1,0,0.1c0,0.1,0,0.1,0,0.2c0,0.1,0.1,0.2,0.3,0.3  c0.5,0.2,1,0.4,1.5,0.6c1,0.4,2,0.9,2.9,1.4c1,0.5,1.9,1.1,2.8,1.7c1,0.6,1.8,1.5,2.4,2.4c0.2,0.3,0.3,0.6,0.4,0.9  c0,0.2,0.1,0.3,0.1,0.5c0,0.2,0,0.4-0.1,0.7c-0.1,0.3-0.3,0.7-0.6,0.9c-0.2,0.2-0.5,0.4-0.7,0.6c-0.9,0.6-1.9,1.1-2.9,1.6  c-1,0.4-2,0.8-3,1.2c-2,0.8-4,1.5-5.9,2.3c-1,0.4-1.9,0.8-2.8,1.3c-0.9,0.4-1.7,1-2.4,1.6c-0.3,0.3-0.5,0.6-0.7,0.9  c-0.1,0.1-0.1,0.3-0.1,0.4c0,0.1,0,0.1,0,0.2c0,0.1,0.1,0.2,0.1,0.3c0.4,0.8,0.9,1.5,1.6,2.1c0.8,0.6,1.6,1.2,2.4,1.7  c0.9,0.5,1.8,0.9,2.7,1.3c1.9,0.8,3.9,1.4,5.8,2c2,0.6,4,1.1,6,1.7s4,1.2,6,1.6c8.9,1.8,11.9,0.9,12.8-0.7c0.4-0.8,0.3-1.8-0.3-2.6  l-25-31.8C53,55.5,52.5,56.2,52,56.9"></path>	<path d="M65.3,93.3c-1-0.2-2.1-0.4-3.1-0.7c-1-0.2-2.1-0.5-3.1-0.8c-1-0.3-2.1-0.6-3.1-0.9c-1-0.3-2-0.7-3-1.1  c-2-0.8-4-1.8-5.9-2.8c-0.9-0.5-1.9-1.1-2.8-1.7c-0.9-0.6-1.8-1.3-2.7-2.1c-0.4-0.4-0.8-0.8-1.2-1.3l-0.3-0.4l-0.2-0.4  c-0.1-0.1-0.2-0.3-0.2-0.4c-0.1-0.2-0.1-0.3-0.2-0.5l-0.1-0.5c0-0.2,0-0.4,0-0.6c0-0.4,0.1-0.8,0.3-1.1c0.3-0.6,0.7-1.1,1.2-1.6  c0.9-0.7,1.9-1.3,2.9-1.8c1-0.5,2-0.9,3-1.3c2-0.8,4-1.4,6-2.1c1-0.4,2-0.7,2.9-1.1c0.9-0.4,1.8-0.8,2.7-1.3  c0.3-0.2,0.6-0.5,0.8-0.8c0,0,0-0.1,0-0.1c0-0.1,0-0.2,0-0.3c0-0.2-0.1-0.4-0.2-0.6c-0.5-0.8-1.2-1.5-2-2.1  c-1.7-1.2-3.5-2.3-5.3-3.1c-0.5-0.2-0.9-0.4-1.4-0.7c-0.4-0.2-0.6-0.5-0.7-0.9c-0.1-0.2-0.1-0.4,0-0.6c0-0.1,0.1-0.2,0.1-0.3  l0.1-0.2c0.5-1,1.2-1.8,1.9-2.6c0.6-0.7,1.2-1.3,1.8-2c-0.6-0.8-1.7-0.9-2.5-0.3c-0.1,0.1-0.2,0.2-0.3,0.3L25.6,88.1  c-0.9,1.2-0.7,2.9,0.5,3.8c0,0,0.1,0.1,0.1,0.1c14.1,9,31.9,10,46.9,2.6C70.6,94.2,67.9,93.8,65.3,93.3"></path></g></svg>