<svg xmlns="http://www.w3.org/2000/svg" xmlns:xlink="http://www.w3.org/1999/xlink" x="0px" y="0px" viewBox="0 0 105.4 142.3" style="enable-background:new 0 0 105.4 142.3;" xml:space="preserve"><path d="M52.7,116.5c-9.4,0-22.2-4.7-29.7-27.3c-0.2-0.5,0.1-1,0.6-1.2c0.5-0.2,1,0.1,1.2,0.6c5.7,17,15.3,26,27.9,26 c12.6,0,22.3-9,27.9-26c0.1-0.3,0.4-0.5,0.7-0.6c0.3-0.1,8.2-2.2,8.2-12.4c0-4.2-3-7.7-7.1-8.4c-13.3-2.4-25.4-10.2-33-21.4 c-0.3-0.4-0.2-1,0.3-1.3c0.4-0.3,1-0.2,1.3,0.3C58.3,55.5,69.9,63,82.7,65.3c5,0.9,8.6,5.2,8.6,10.3c0,10.1-7.1,13.4-9.1,14.1 C74.8,111.8,62.1,116.5,52.7,116.5z"></path><path d="M23.9,89.9c-0.1,0-0.2,0-0.2,0c-0.1,0-9.6-2.5-9.6-14.2c0-5.1,3.8-9.4,8.9-10.1c11.8-1.5,21.8-9.2,26.2-20.1 c-1.5-2.3-2.9-4.6-4-7.1c-0.2-0.5,0-1,0.5-1.3c0.5-0.2,1,0,1.3,0.5c1.1,2.5,2.5,5,4.1,7.2c0.2,0.3,0.2,0.6,0.1,0.9 c-4.6,11.9-15.3,20.2-27.9,21.8c-4.1,0.5-7.2,4-7.2,8.2c0,10.2,7.8,12.3,8.2,12.4c0.5,0.1,0.8,0.6,0.7,1.2 C24.7,89.6,24.3,89.9,23.9,89.9z"></path><path d="M81.6,138.7c-0.1,0-0.3,0-0.4-0.1c-4.4-2.2-13.5-6.7-13.8-28.4c0-0.5,0.4-1,0.9-1c0.5,0,1,0.4,1,0.9 c0.3,20.5,8.4,24.5,12.8,26.7c0.5,0.2,0.7,0.8,0.4,1.3C82.2,138.5,81.9,138.7,81.6,138.7z"></path><path d="M23.9,138.7c-0.3,0-0.7-0.2-0.9-0.5c-0.2-0.5,0-1,0.4-1.3c4.3-2.2,12.4-6.2,12.8-26.7c0-0.5,0.5-0.9,1-0.9 c0.5,0,0.9,0.4,0.9,1c-0.3,21.7-9.4,26.2-13.8,28.4C24.2,138.6,24,138.7,23.9,138.7z"></path><path d="M18.8,69.1c-0.5,0-0.9-0.3-0.9-0.8l0-0.1c0-0.2-0.1-0.5-0.1-0.7c-0.9-5.4-1.4-10.8-1.4-16.3c0-17.5,15-29.8,36.4-29.8 s36.4,12.2,36.4,29.8c0,5.7-0.6,11.4-1.6,17c-0.1,0.5-0.6,0.9-1.1,0.8c-0.5-0.1-0.9-0.6-0.8-1.1c1-5.5,1.5-11.1,1.5-16.6 c0-16.4-14.2-27.9-34.5-27.9c-20.3,0-34.5,11.5-34.5,27.9c0,5.3,0.5,10.7,1.4,15.9c0.1,0.3,0.1,0.5,0.1,0.8l0,0.1 c0.1,0.5-0.3,1-0.8,1.1C18.9,69.1,18.8,69.1,18.8,69.1z"></path><path d="M74.2,28.6c-0.1,0-0.2,0-0.3-0.1c-0.5-0.2-0.8-0.7-0.6-1.2c2-5.5,1.6-10.2-1-14c-3.4-4.9-10.8-7.8-19.6-7.8 c-8.8,0-16.2,2.9-19.6,7.8c-2.6,3.7-3,8.4-1,14c0.2,0.5-0.1,1-0.6,1.2c-0.5,0.2-1-0.1-1.2-0.6c-2.1-6.1-1.7-11.5,1.3-15.7 c3.8-5.4,11.7-8.6,21.1-8.6s17.4,3.2,21.1,8.6c3,4.2,3.4,9.6,1.3,15.7C75,28.3,74.6,28.6,74.2,28.6z"></path><path d="M101.5,101c-0.3,0-0.6-0.1-0.8-0.4l-3.9-5.9L91,98.6c-0.4,0.3-1,0.2-1.3-0.3c-0.3-0.4-0.2-1,0.3-1.3l6.7-4.4 c0.4-0.3,1-0.2,1.3,0.3l4.4,6.7c0.3,0.4,0.2,1-0.3,1.3C101.9,100.9,101.7,101,101.5,101z"></path><path d="M3.9,101c-0.2,0-0.4-0.1-0.5-0.2c-0.4-0.3-0.6-0.9-0.3-1.3l4.4-6.7c0.3-0.4,0.9-0.6,1.3-0.3l6.7,4.4 c0.4,0.3,0.6,0.9,0.3,1.3c-0.3,0.4-0.9,0.6-1.3,0.3l-5.9-3.9l-3.9,5.9C4.5,100.8,4.2,101,3.9,101z"></path><path d="M81.6,120.9c-0.3,0-0.5-0.1-0.7-0.3c-0.3-0.4-0.3-1,0.1-1.3c7.8-6.7,13.2-16,15.2-26.1c0.1-0.5,0.6-0.9,1.1-0.8 c0.5,0.1,0.9,0.6,0.8,1.1c-2,10.5-7.7,20.2-15.8,27.2C82,120.9,81.8,120.9,81.6,120.9z"></path><path d="M23.9,120.9c-0.2,0-0.4-0.1-0.6-0.2c-8.2-7-13.8-16.6-15.8-27.2c-0.1-0.5,0.2-1,0.8-1.1c0.5-0.1,1,0.2,1.1,0.8 c2,10.1,7.4,19.4,15.2,26.1c0.4,0.3,0.4,0.9,0.1,1.3C24.4,120.8,24.1,120.9,23.9,120.9z"></path><path d="M66.9,80.7c-3.4,0-5.6-1.9-5.9-2.2c-0.3-0.3-0.4-0.8-0.2-1.2c0.2-0.5,0.8-0.6,1.3-0.4c0.1,0,0.2,0.1,0.2,0.2 c0.2,0.2,4,3.8,9.9-0.1c0.2-0.1,0.3-0.2,0.5-0.2h2.2c0.5,0,1,0.4,1,1s-0.4,1-1,1H73C70.7,80.2,68.6,80.7,66.9,80.7z"></path><path d="M38.6,80.7c-1.7,0-3.8-0.5-6.1-2h-1.9c-0.5,0-1-0.4-1-1s0.4-1,1-1h2.2c0.2,0,0.4,0.1,0.5,0.2c5.9,4,9.9,0.2,9.9,0.1 c0.1-0.1,0.2-0.1,0.3-0.2c0.5-0.2,1.1,0,1.3,0.4c0.2,0.4,0.1,0.9-0.3,1.2C43.9,79,41.8,80.7,38.6,80.7z"></path><path d="M52.7,103.2c-5.6,0-7.9-1.9-8.3-2.4l0,0c-0.4-0.3-0.5-0.9-0.1-1.3c0.3-0.4,0.9-0.5,1.3-0.1l0.1,0.1c0,0,0.1,0.1,0.1,0.1 c0,0,1.8,1.8,7,1.8c5.2,0,7-1.8,7-1.8c0,0,0.1-0.1,0.1-0.1l0.1-0.1c0.4-0.3,1-0.2,1.3,0.2c0.3,0.4,0.2,1-0.2,1.3l0,0 C60.6,101.3,58.3,103.2,52.7,103.2z"></path></svg>