<svg xmlns="http://www.w3.org/2000/svg" xmlns:xlink="http://www.w3.org/1999/xlink" x="0px" y="0px" viewBox="0 0 100 100" style="enable-background:new 0 0 100 100;" xml:space="preserve"><g>	<path d="M57.5,95c-1.3,0-2.6-0.1-4-0.2c-5-0.4-10.4-1.7-15.7-3.6C26.7,87.1,17.3,80.4,12.1,73c-3-4.3-4.6-8.8-4.6-13.3  c0-4.9,1.9-9.8,5.7-14.5c7.2-9,14.5-16.6,21.7-22.7c6.9-5.9,13.7-10.3,20.2-13.3c12.6-5.7,23.7-5.6,32.1,0.3  c3.9,2.8,5.6,5.8,5.3,9.7c-0.3,3.7-2.1,7.8-4.5,13c-4.5,10-10.7,23.8-9.6,44.2c0.4,8.6-3.4,14.5-11,17.1C64.5,94.5,61.2,95,57.5,95  z M72.5,5.1c-5.3,0-11.1,1.4-17.3,4.2c-13.3,6.1-27.8,18.5-41.9,36c-9,11.2-5.6,21.2-1.1,27.6C17.4,80.3,26.8,87,38,91.1  c10.9,4,21.9,4.9,29.3,2.3c7.6-2.6,11.4-8.5,10.9-17c-1-20.4,5.2-34.2,9.7-44.2c2.3-5.2,4.2-9.4,4.5-13c0.3-3.9-1.3-6.9-5.2-9.6  C82.8,6.6,77.9,5.1,72.5,5.1z"></path></g></svg>