<svg xmlns="http://www.w3.org/2000/svg" xmlns:xlink="http://www.w3.org/1999/xlink" x="0px" y="0px" viewBox="0 0 86 86" style="enable-background:new 0 0 86 86;" xml:space="preserve"><path d="M46,63.6h-6c-1.7,0-3.2-1.4-3.2-3.2V49.2H25.5c-1.7,0-3.2-1.4-3.2-3.2v-6c0-0.8,0.3-1.6,0.9-2.2c0.6-0.6,1.4-0.9,2.2-0.9 h11.3V25.5c0-1.7,1.4-3.2,3.2-3.2h6c1.7,0,3.2,1.4,3.2,3.2v11.3h11.3c1.7,0,3.2,1.4,3.2,3.2v6c0,1.7-1.4,3.2-3.2,3.2H49.2v11.3 C49.2,62.2,47.8,63.6,46,63.6z M25.5,39.5c-0.2,0-0.3,0.1-0.3,0.1s-0.1,0.2-0.1,0.3v6c0,0.2,0.2,0.5,0.4,0.5h12.7 c0.7,0,1.4,0.6,1.4,1.4v12.6c0,0.2,0.2,0.5,0.5,0.5h6c0.2,0,0.5-0.2,0.5-0.5V47.8c0-0.7,0.6-1.4,1.4-1.4h12.7c0.2,0,0.5-0.2,0.5-0.5 v-6c0-0.2-0.2-0.5-0.5-0.5H47.8c-0.7,0-1.4-0.6-1.4-1.4V25.5c0-0.2-0.2-0.5-0.5-0.5h-6c-0.2,0-0.5,0.2-0.5,0.5v12.6 c0,0.7-0.6,1.4-1.4,1.4H25.5z"></path><g>	<path d="M6.9,44.4c-0.7,0-1.4-0.6-1.4-1.4c0-10,3.9-19.4,11-26.5S33,5.5,43,5.5c0,0,0,0,0.1,0c12.4,0,24.1,6.1,31.2,16.2  c0.4,0.6,0.3,1.5-0.3,1.9c-0.6,0.4-1.5,0.3-1.9-0.3c-6.7-9.5-17.5-15.1-29-15.1c0,0,0,0-0.1,0c-9.3,0-18,3.6-24.6,10.2  S8.2,33.7,8.2,43C8.2,43.7,7.6,44.4,6.9,44.4z"></path>	<path d="M73.1,23.9h-8.4c-0.7,0-1.4-0.6-1.4-1.4c0-0.7,0.6-1.4,1.4-1.4h7.1V14c0-0.7,0.6-1.4,1.4-1.4c0.7,0,1.4,0.6,1.4,1.4v8.4  C74.5,23.3,73.9,23.9,73.1,23.9z"></path></g><g>	<path d="M42.9,80.5c-12.4,0-24.1-6.1-31.2-16.2c-0.4-0.6-0.3-1.5,0.3-1.9s1.5-0.3,1.9,0.3c6.6,9.4,17.4,15.1,28.9,15.1  c0,0,0,0,0.1,0c19.2,0,34.8-15.6,34.8-34.8c0-0.7,0.6-1.4,1.4-1.4c0.7,0,1.4,0.6,1.4,1.4C80.5,63.7,63.7,80.5,42.9,80.5  C43,80.5,43,80.5,42.9,80.5z"></path>	<path d="M12.9,73.3c-0.7,0-1.4-0.6-1.4-1.4v-8.4c0-0.7,0.6-1.4,1.4-1.4h8.4c0.7,0,1.4,0.6,1.4,1.4c0,0.7-0.6,1.4-1.4,1.4h-7.1V72  C14.2,72.7,13.6,73.3,12.9,73.3z"></path></g></svg>