<svg xmlns="http://www.w3.org/2000/svg" xmlns:xlink="http://www.w3.org/1999/xlink" id="Layer_1" x="0px" y="0px" viewBox="0 0 65 65" style="enable-background:new 0 0 65 65;" xml:space="preserve"><g>	<path d="M32.5,62.5c-16.5,0-30-13.5-30-30c0-16.5,13.5-30,30-30s30,13.5,30,30C62.5,49,49,62.5,32.5,62.5z M32.5,5.3  c-15,0-27.2,12.2-27.2,27.2c0,15,12.2,27.2,27.2,27.2s27.2-12.2,27.2-27.2C59.7,17.5,47.5,5.3,32.5,5.3z"></path>	<path d="M42,30.5c1.3,0.8,1.8,2.5,1,3.9c-0.2,0.4-0.6,0.7-1,1l-12.3,7.3c-1.3,0.8-3.1,0.4-3.9-1c-0.3-0.4-0.4-0.9-0.4-1.4V25.7  c0-1.6,1.3-2.8,2.8-2.8c0.5,0,1,0.1,1.4,0.4L42,30.5z"></path></g></svg>