<svg xmlns="http://www.w3.org/2000/svg" xmlns:xlink="http://www.w3.org/1999/xlink" x="0px" y="0px" viewBox="0 0 100 100" style="enable-background:new 0 0 100 100;" xml:space="preserve"><g>	<path d="M38.1,90L38.1,90c-0.1-0.1-10.6-11.3-20-24.9c-5.6-8-9.7-15.3-12.3-21.7c-3.2-8-4-14.6-2.4-19.5C4.3,21,6,18.7,8.5,16.9  c2.6-1.9,6.2-3.3,10.5-4.1c11.2-2,21.5-3,30.9-2.9c8.9,0.1,16.9,1.2,23.6,3.1c6.5,1.9,11.9,4.7,15.9,8.3c4,3.5,6.6,7.8,7.8,12.6  c1.1,4.4-1.3,10.1-7.2,16.9c-4.7,5.4-11.6,11.6-20.5,18.3C54.3,80.7,38.3,89.9,38.1,90L38.1,90z M48.5,10.1c-9,0-18.9,0.9-29.5,2.8  c-8.4,1.5-13.6,5.2-15.5,10.9c-1.6,4.9-0.8,11.5,2.4,19.5C8.5,49.7,12.6,57,18.1,65c9.2,13.3,19.5,24.3,20,24.9  c0.8-0.4,16.4-9.5,31.2-20.7c8.9-6.7,15.8-12.9,20.5-18.3c5.9-6.8,8.3-12.4,7.2-16.8c-2.4-9.8-10.6-17-23.6-20.8  C66.4,11.1,58,10.1,48.5,10.1z"></path></g></svg>