<svg xmlns="http://www.w3.org/2000/svg" xmlns:xlink="http://www.w3.org/1999/xlink" id="Layer_1" x="0px" y="0px" viewBox="0 0 20.3 22.5" style="enable-background:new 0 0 20.3 22.5;" xml:space="preserve"><g>	<path d="M19.2,19.2c0-0.6-0.3-1.2-0.7-1.6l-8.3-7.2l-8.3,7.2c0,0,0,0,0,0c-0.9,0.8-0.9,2.1-0.2,3s2.1,0.9,3,0.2  l5.5-4.8l5.5,4.8c0.4,0.3,0.9,0.5,1.4,0.5C18.2,21.2,19.2,20.3,19.2,19.2L19.2,19.2"></path>	<path d="M19.2,10c0-0.6-0.3-1.2-0.7-1.6l-8.3-7.2L1.9,8.4c-0.9,0.8-1,2.1-0.2,2.9c0.8,0.9,2.1,1,2.9,0.2l5.5-4.8  l5.5,4.8c0.4,0.3,0.9,0.5,1.4,0.5C18.2,12.1,19.2,11.2,19.2,10L19.2,10"></path></g></svg>