<svg xmlns="http://www.w3.org/2000/svg" xmlns:xlink="http://www.w3.org/1999/xlink" x="0px" y="0px" viewBox="0 0 170.5 113" style="enable-background:new 0 0 170.5 113;" xml:space="preserve"><g>	<path d="M112.9,70c0.7,0,4-5.4,5.2-6.8c0.7-0.9,0.8-0.9,2.1-1c0.6-1.3,1.4-2.5,2.4-3.5l1.2,0.1l0.9-0.8l1.1,0.6  c0,0.4-0.1,0.7-0.1,1c0.3-0.1-0.1,0.3,1.8-2.1l1.2,0.5l0.2,1.1c3,0.1,4.5-9.4,21.1-37.5c0.3-0.7,0.9-1.2,1.5-1.5  c6.8,1.4-10.3,30.8-18.4,38c-1.7,1.5-7.2,16.6-7.8,19.3c0.4-0.1-0.1,0.8,4.6-6.7c1.2-1.9,0.5-1.6,1.3-3.1c0.5-0.1,1.1,0.1,1.4,0.5  c0.3,0.8-0.6,1.5,0,2.2c1.5,0.3,4.2-1.6,5.8-3.8c-0.9-1.9,0-4.3,1.9-5.1c0.1-0.1,0.2-0.1,0.4-0.1c0.6,0.1,1.2,0.4,1.5,0.9  c0.2,1.8-1.2,3.1-1.8,4.8c7,2.6,18.9-10.9,17.5-15.1c-1.6,0.4-3.2,0.7-4.9,0.8c-11.4,0.4-2.7-13.2,4.1-7.9c1.4,1.1,2.3,2.7,2.5,4.5  c1.2,0,2.4-1.2,3.9-1.4l1.1,0.7c-0.1,0.9-0.6,1.4-1.3,1.4c-1.2,0.1-2.3,0.5-3.3,1.1c-0.5,2.5-0.6,5.5-4.4,9.9c-2.6,3-6,5.8-9.6,6.9  c-2,0.7-4.1,0.7-6-0.2c-2.5,2.3-5,4.8-8.1,3.3c-2.3,4.1-5,7.9-7.6,11.6c-0.6,0.2-1.3,0-1.7-0.5c-0.7-1.9,6.3-18.8,7-21.1l-1.9-0.4  c-2,1.9-2,1.9-3.8,1.8c-1.4,2.8-1,2-1.8,2.8c-0.8,0.1-1.7-0.2-2.2-0.8c-1.1,0.9-4,5.7-6.3,8.8c-0.5,0.6-1.3,0.7-1.9,0.2  c-0.3-0.3-0.5-0.6-0.5-1.1c0.1-2.8,3.6-17.3-2.5-17.9c-0.2,0.3-18.3,44.2-35,53.5c-5.6,3.1-9-0.1-9.8-2.7  c-4.3-15.1,24.7-51,43.1-52.1c1.2-1.7,25-65.6-6.4-42.9c-8,5.8-26.2,22.8-27.2,41.8c-0.7,0.1-0.7,0.1-1.3-0.4  c-0.4-1.4,0.1-6,1.6-10.1c8-22.1,43.6-53.4,44.4-27.9c0.5,15.1-8.6,37.3-9.2,39.7C115.2,56.7,113.8,61.5,112.9,70z M106.3,54.2  C91,53.8,57.8,95.1,65.9,106.8C72.3,115.9,97.5,78.9,106.3,54.2z M135.1,53.4c6.8-6.8,17.6-28.9,16.2-30.7  C149.5,25,137.7,46.9,135.1,53.4L135.1,53.4z M158.1,50c0-2.9-1.6-6.4-4.8-5.2c-3.7,1.3-6.4,6.6-2.4,6.7  C153.4,51.6,155.8,51.1,158.1,50L158.1,50z"></path>	<path d="M9.4,59.9c0.6,0.1,1,0.2,1.2,0.8c-0.5,0.6-1.3,0.8-1.8,1.4c0.3,0.4,0.6,0.2,0.9,0.1  c19.4-4,15.7-3.3,24-4.3C35,56,41.3,44.1,50.4,32.2C65.6,12.3,79.3,4.7,63,42.3c-0.4,1-5.9,13.7-6.5,15.6c2.1,0.5,8,1.7,7.1,5.5  c-0.1,0.5-0.3,1-1.1,1.1c-0.5-1.6,1.1-5.3-6.4-5.6c-1.7,3.4-4.9,13.8-6.5,15.9c-0.6,0-1.1-0.2-1.4-0.7c0,0,4.8-12.1,5.8-15.2  c-0.8-1.2-17-0.2-18.9,0c-5.8,10.3-13.4,25-19.5,28c-3.5,1.7-6.1-2.6-2.7-7.7c0.5-0.2,1.1,0,1.3,0.6c0,0,0,0,0,0.1  c-0.8,2-2,3.9-1.2,6.3c6.6-0.8,19-25.3,19.7-26.8c-0.6-1.2-20.7,3.8-25,4.2C7,63.7,6.8,63.6,6,62.8C6,61.9,8.9,60.3,9.4,59.9z   M68.7,16.9c-7.3-0.4-33.2,39.3-32.4,40.8c11.4-0.4,6.5-0.3,18.4-0.1c1.2-2.7,2.3-5.5,4.1-9.8C61.4,41.7,71.3,20.5,68.7,16.9  L68.7,16.9z"></path>	<path d="M63.3,73.2c-1.8,3.5-1.6,3.7-3.2,3.6c-0.1-1.4,1-3.2,1.9-4.2C62.5,72.4,63.1,72.7,63.3,73.2z"></path></g></svg>