<svg xmlns="http://www.w3.org/2000/svg" xmlns:xlink="http://www.w3.org/1999/xlink" x="0px" y="0px" viewBox="0 0 134.3 73.2" style="enable-background:new 0 0 134.3 73.2;" xml:space="preserve"><g>	<path d="M78.9,53.1c5.1,5.3,12.4,8.6,21.4,8.6l-0.1,8.9l2-0.7c8.3-3.1,13.9-6.5,19.2-13.4c5.3-6.7,8.2-15,8.1-23.6  c0-8.5-2.8-15.8-8.3-21.6c-5.3-5.7-12.8-8.9-20.6-8.7c-8-0.2-15.6,3-21.2,8.7c-5.6,5.7-8.7,13.4-8.5,21.4  C70.7,40.3,73.6,47.6,78.9,53.1"></path>	<path d="M12.7,53.1c5.1,5.3,12.4,8.6,21.4,8.6l-0.1,8.9l2-0.7c8.3-3.1,13.9-6.5,19.2-13.4c5.3-6.7,8.2-15,8.1-23.6  c0-8.5-2.8-15.8-8.3-21.6c-5.3-5.7-12.8-8.9-20.6-8.7c-8-0.2-15.6,3-21.2,8.7c-5.6,5.7-8.7,13.4-8.5,21.4  C4.6,40.3,7.4,47.6,12.7,53.1"></path></g></svg>