<svg xmlns="http://www.w3.org/2000/svg" xmlns:xlink="http://www.w3.org/1999/xlink" x="0px" y="0px" viewBox="0 0 75.7 140" style="enable-background:new 0 0 75.7 140;" xml:space="preserve"><g>	<path d="M31.9,97.1c1-0.9,2.2-1.7,3.4-2.2c0.4,0.1,0.7,0.3,1,0.6c0.5,0.6,1.3,0.8,2,0.6c0.4-0.2,0.7-0.4,1.1-0.7  c0.2-0.2,0.5-0.4,0.8-0.5c1.2,0.5,2.3,1.2,3.2,2.2c0.4,0.4,1,0.4,1.4,0c0.4-0.4,0.4-1,0-1.4c-0.9-0.9-2.9-2.5-4.3-2.7  c-0.8,0-1.6,0.3-2.1,0.9c-0.1,0.1-0.3,0.2-0.4,0.3c-0.1-0.1-0.2-0.1-0.2-0.2c-0.6-0.6-1.4-0.9-2.2-1c-1.4,0-3.8,1.9-4.7,2.7  c-0.4,0.3-0.5,1-0.1,1.4C30.9,97.4,31.5,97.5,31.9,97.1L31.9,97.1z"></path>	<path d="M40.3,97.1c-0.6,0.8-1.5,1.3-2.5,1.3h0c-1.1-0.1-2.1-0.6-2.8-1.4c-0.4-0.4-1-0.4-1.4,0  c-0.4,0.4-0.4,1-0.1,1.3c1.1,1.2,2.6,1.9,4.2,2h0c1.5-0.1,3-0.8,3.9-2c0.4-0.4,0.3-1-0.1-1.4C41.3,96.6,40.7,96.7,40.3,97.1  L40.3,97.1z"></path>	<path d="M41.1,87.1c0.5-0.2,0.8-0.7,0.6-1.2c-0.2-0.5-0.7-0.8-1.2-0.6c0,0,0,0,0,0c-1.8,0.5-3.7,0.5-5.5,0  c-0.5-0.2-1.1,0.1-1.2,0.6s0.1,1.1,0.6,1.2C36.5,87.8,38.9,87.8,41.1,87.1z"></path>	<path d="M57.9,71.9c0.3-0.4,0.3-1-0.2-1.4c-0.4-0.3-1-0.3-1.4,0.2c0,0,0,0,0,0.1c-1.8,2.4-3.6,3.6-5.5,3.6h0  c-3.3,0-5.9-3.6-5.9-3.6c-0.3-0.4-0.9-0.5-1.4-0.2c-0.4,0.3-0.5,0.9-0.2,1.4c0.1,0.2,3.2,4.4,7.5,4.4h0c1.3,0,2.5-0.4,3.6-1  c1,0.7,2.3,1.2,3.6,1.2c0.5,0,1-0.1,1.5-0.3c0.5-0.2,0.7-0.8,0.5-1.3c-0.2-0.5-0.7-0.7-1.2-0.5c-0.9,0.2-1.8,0.1-2.6-0.4  C56.7,73.4,57.4,72.7,57.9,71.9L57.9,71.9z"></path>	<path d="M15.7,76.3c0.5,0.2,1,0.3,1.5,0.3c1.3-0.1,2.5-0.5,3.5-1.2c1.1,0.6,2.3,1,3.6,1h0c2.6,0,5-1.5,7.1-4.4  c0.3-0.4,0.2-1-0.2-1.4c-0.4-0.3-1-0.2-1.4,0.2c0,0,0,0,0,0c-1.8,2.4-3.6,3.6-5.5,3.6h0c-3.3,0-5.9-3.6-5.9-3.6  c-0.3-0.4-0.9-0.5-1.4-0.2c-0.4,0.3-0.5,0.9-0.2,1.4c0.6,0.8,1.3,1.5,2.1,2.2c-0.7,0.5-1.6,0.6-2.5,0.3c-0.5-0.2-1.1,0.1-1.3,0.6  C15,75.5,15.2,76.1,15.7,76.3z"></path>	<path d="M61,66c0.3-0.5,0.1-1.1-0.3-1.3c-1.9-1.1-3.9-1.9-6.1-2.4C52.1,62,43.9,63.5,43,63.7  c-0.5,0.1-0.9,0.6-0.8,1.1c0.1,0.5,0.6,0.9,1.1,0.8c2.4-0.4,9.1-1.6,11-1.3c1.9,0.4,3.7,1.1,5.3,2.1C60.1,66.6,60.7,66.5,61,66  L61,66z"></path>	<path d="M20.7,64.2c1.9-0.2,8.6,0.9,11,1.3c0.5,0.1,1-0.3,1.1-0.8c0.1-0.5-0.3-1-0.8-1.1  c-0.9-0.2-9.1-1.6-11.6-1.3c-2.1,0.4-4.2,1.2-6.1,2.4c-0.5,0.3-0.6,0.9-0.3,1.3c0.3,0.5,0.9,0.6,1.3,0.3  C17.1,65.4,18.8,64.6,20.7,64.2L20.7,64.2z"></path>	<path d="M66.9,65.5c0.4-10.6-2.2-19.2-7.7-24.9c-5.1-5.3-12.3-8-21.6-8c-9.2,0-16.8,3-21.9,8.7  c-5.5,6.1-8,14.7-7.2,25c-0.4,0.2-0.8,0.4-1.2,0.7c-3.4-8-4-20.2,2.4-30.1c3.9-6.2,12-13.5,28.1-13.5c16.7,0,24.9,8.4,28.8,15.4  c5.5,9.9,5.1,21.3,1.9,27.7C68,65.9,67.5,65.7,66.9,65.5L66.9,65.5z M37.6,41.8c-13.9,0-23.6,6.3-27.2,17.3  c0.6-6.7,2.8-12.4,6.7-16.6c4.8-5.2,11.9-8,20.5-8c8.7,0,15.4,2.5,20.2,7.4c3.8,4,6.1,9.5,6.9,16.3C61,47.7,51.5,41.8,37.6,41.8  L37.6,41.8z M25.9,16.9c0-5.5,5.4-9.9,11.9-9.9s11.9,4.5,11.9,9.9c0,2-0.7,4-2.1,5.6c-3.3-0.8-6.6-1.1-9.9-1.1  c-3.3,0-6.7,0.3-9.9,1C26.4,20.9,25.7,18.9,25.9,16.9L25.9,16.9z M71.1,95c2.3-4.6,3.2-20.9-1.2-27.2c3.7-6.8,4.5-19.3-1.6-30.1  c-4-7.2-10.7-12.5-18.5-14.7c1.3-1.8,2-3.9,2-6.1C51.7,10.3,45.5,5,37.8,5s-13.9,5.3-13.9,11.9c-0.1,2.2,0.5,4.3,1.8,6  C18.4,24.8,12.1,29.4,8,35.7c-6.1,9.9-6.9,22-2.3,32.6c0,0,0,0.1,0.1,0.1C1.4,74.8,2.3,91,4.6,95.6c2.8,5.6,10.5,13.8,12.8,16.2  c2,2.1,2.7,5.2,1.7,8l-4.5,12.7c-0.2,0.5,0.1,1.1,0.6,1.3c0.5,0.2,1.1-0.1,1.3-0.6c0,0,0,0,0,0l4.5-12.7c1.2-3.5,0.4-7.3-2.1-10  C16.6,108,9.1,100,6.4,94.7c-2.6-5.1-2.9-23.3,2.3-26.4c0.6-0.4,1.1-0.5,1.3-0.4c0.7,0.5,0.8,3.6-0.1,7c-0.9,3.5,0.9,11,1.3,12.4  c-0.6,4,5.1,10.9,5.8,11.7c0.3,0.4,1,0.5,1.4,0.1s0.5-1,0.1-1.4l0,0c-2.3-2.7-5.7-7.9-5.3-10.2c0-0.3,0.2-0.6,0.5-0.8  c1.2-0.8,2.4,0.7,4.8,3.8c1.8,2.4,3.8,5.1,6.5,6.4c4.7,2.3,5.6,9.9,5.7,10.6L29.9,134c0,0.5,0.4,1,0.9,1c0,0,0,0,0,0h0  c0.5,0,1-0.4,1-0.9l0.7-25.5c1.6,0.7,3.4,1.1,5.1,1.1c1.1,0,2.2-0.2,3.3-0.5c0.5-0.1,0.8-0.7,0.7-1.2c-0.1-0.5-0.7-0.8-1.2-0.7  c-0.9,0.3-1.8,0.4-2.8,0.4c-1.8-0.1-3.6-0.5-5.3-1.3c-0.4-2.5-1.8-8.8-6.7-11.2c-2.2-1.1-4.1-3.6-5.8-5.8c-2.2-3-4.5-6.1-7.3-4.4  c-0.6-3-1.4-7.5-0.9-9.7c0.2-0.7,1.8-7.3-0.6-9.1c-0.1,0-0.1-0.1-0.2-0.1c1.3-14,11.3-22.4,26.7-22.4c16,0,25.5,7.9,26.7,22.2  c-2.1,2-0.6,8.2-0.5,8.9c0.6,2.1-0.2,6.7-0.9,9.7c-2.8-1.7-5.1,1.4-7.3,4.4c-1.7,2.2-3.5,4.8-5.8,5.8c-5.9,2.9-6.8,11.9-6.8,12.3  v0.1l0.7,26.5c0,0.5,0.4,0.9,1,0.9h0c0.5,0,1-0.5,0.9-1l-0.7-26.4c0.1-0.7,1-8.3,5.7-10.6c2.7-1.3,4.7-4,6.5-6.4  c2.4-3.2,3.6-4.6,4.8-3.8c0.3,0.2,0.5,0.5,0.5,0.8c0.4,2.3-3.1,7.5-5.3,10.2c-0.3,0.4-0.3,1,0.1,1.4c0.4,0.3,1,0.3,1.4-0.1  c0.6-0.8,6.3-7.7,5.8-11.7c0.3-1.4,2.2-8.9,1.3-12.4c-0.9-3.4-0.8-6.5-0.1-7c0.4-0.3,1.7,0.4,2.3,1.2c4.2,4.7,3.8,20.9,1.4,25.6  c-2.7,5.3-10.3,13.4-12.5,15.7c-2.6,2.7-3.4,6.5-2.1,10l4.5,12.7c0.2,0.5,0.7,0.8,1.2,0.6c0.5-0.2,0.8-0.7,0.6-1.2c0,0,0-0.1,0-0.1  l-4.5-12.7c-1-2.8-0.3-5.9,1.7-8C60.5,108.8,68.2,100.6,71.1,95L71.1,95z"></path></g></svg>