<svg xmlns="http://www.w3.org/2000/svg" xmlns:xlink="http://www.w3.org/1999/xlink" x="0px" y="0px" viewBox="0 0 100 100" style="enable-background:new 0 0 100 100;" xml:space="preserve">	<style type="text/css">	.smaily0{fill:var(--wdtSecondaryColor);}	.smaily1{fill:none;stroke:var(--wdtBodyTxtColor);stroke-width:2;}	</style>	<g transform="translate(-1263.125 -636)">		<g transform="translate(1292.559 636)">			<path class="smaily0" d="M25.1,39.9c2.2,2.2,5.2,3.4,8.4,3.4l0,3.5l0.8-0.3c3.2-1.2,5.4-2.5,7.5-5.2   c2.1-2.6,3.2-5.9,3.2-9.2c0.1-3.1-1.1-6.2-3.3-8.4c-2.1-2.2-5-3.5-8-3.4c-3.1-0.1-6.1,1.2-8.3,3.4c-2.2,2.2-3.4,5.2-3.3,8.4   C21.9,34.9,23.1,37.8,25.1,39.9"></path>			<path class="smaily0" d="M-0.7,39.9c2.2,2.2,5.2,3.4,8.3,3.4l0,3.5l0.8-0.3c3.2-1.2,5.4-2.5,7.5-5.2   c2.1-2.6,3.2-5.9,3.2-9.2c0.1-3.1-1.1-6.2-3.3-8.4c-2.1-2.2-5-3.5-8-3.4c-3.1-0.1-6.1,1.2-8.3,3.4c-2.2,2.2-3.4,5.2-3.3,8.4   C-3.8,34.9-2.7,37.8-0.7,39.9"></path>		</g>		<path class="smaily1" d="M1360.3,693.2c-17.9,20.6-48.9,27.6-73.7,16.1c-7.9-3.7-15-9.1-20.7-15.8"></path>	</g></svg>