<svg xmlns="http://www.w3.org/2000/svg" xmlns:xlink="http://www.w3.org/1999/xlink" x="0px" y="0px"
	 viewBox="0 0 100 100" style="enable-background:new 0 0 100 100;" xml:space="preserve">
<style type="text/css">
	.icons_1{fill:none;stroke:currentcolor;stroke-width:3;stroke-linecap:round;stroke-linejoin:round;}
</style>
<g>
	<g class="arrows-0">
		<path class="icons_1" d="M77.1,69.1l4.8-3.2l3.2,4.8"/>
		<path class="icons_1" d="M81.8,65.9c-1.4,7.4-5.4,14.2-11.1,19.1"/>
	</g>
	<g class="arrows-1">
		<path class="icons_1" d="M22.9,69.1l-4.8-3.2L15,70.7"/>
		<path class="icons_1" d="M18.2,65.9c1.4,7.4,5.4,14.2,11.1,19.1"/>
	</g>
	<g>
		<path class="icons_1" d="M29.3,62.7C34.1,77,42,81.8,50,81.8S65.9,77,70.7,62.7c4.1-1.3,6.7-5.3,6.4-9.5l0,0c0-3.3-2.4-6.1-5.6-6.7
			c-9.4-1.7-17.8-7.1-23.2-15"/>
		<path class="icons_1" d="M45.2,26.1c0.8,1.9,1.8,3.6,3,5.3C45,39.7,37.5,45.5,28.7,46.6c-3.3,0.4-5.8,3.2-5.8,6.5l0,0
			c-0.3,4.3,2.3,8.2,6.4,9.5"/>
		<path class="icons_1" d="M61.2,78c0.2,15.1,6.4,18.2,9.5,19.8"/>
		<path class="icons_1" d="M29.3,97.7c3.1-1.6,9.3-4.6,9.5-19.8"/>
		<path class="icons_1" d="M25.7,47.9c0-0.2-0.1-0.4-0.1-0.7c-0.7-3.8-1-7.7-1-11.5C24.5,23,35.7,15,50,15s25.5,8,25.5,20.7
			c0,4-0.4,8.1-1.1,12.1"/>
		<path class="icons_1" d="M34.6,18.8c-3.9-11,5-16.5,15.4-16.5s19.3,5.5,15.4,16.5"/>
		<path class="icons_1" d="M65.9,54.8h-1.6c-2.3,1.9-5.7,1.9-8,0l0,0"/>
		<path class="icons_1" d="M34.1,54.8h1.6c2.3,1.9,5.7,1.9,8,0l0,0"/>
		<path class="icons_1" d="M44.4,70.7L44.4,70.7L44.4,70.7c3.4,2.1,7.7,2.1,11.1,0.1l0,0l0.1-0.1"/>
	</g>
</g>
</svg>
