<svg xmlns="http://www.w3.org/2000/svg"
	xmlns:xlink="http://www.w3.org/1999/xlink" x="0px" y="0px" viewBox="0 0 100 100" style="enable-background:new 0 0 100 100;" xml:space="preserve">
	<style type="text/css">
	.icons_0{stroke:currentcolor; fill:currentcolor;}
	</style>
	<g>
		<g>
			<path class="icons_0" d="M26.8,19.7l2.1,13.1c0.2,1,0.3,2.1,0.4,3.1c0,0.5,0.5,0.9,1,0.9h0.1c0.5,0,0.9-0.5,0.9-1
			c-0.1-1.1-0.2-2.2-0.4-3.2L29,21.7c6,4.2,14.3,2.7,18.5-3.4c1.5-2.2,2.4-4.9,2.4-7.6c0-0.5-0.4-1-1-1s-1,0.4-1,1
			c0,6.3-5.1,11.4-11.4,11.4S25.1,17,25.1,10.7c0-2.3,0.7-4.5,1.9-6.4c0.3-0.4,0.2-1-0.3-1.3s-1-0.2-1.3,0.3l0,0
			C22.1,8.4,22.6,15.2,26.8,19.7L26.8,19.7L26.8,19.7z"/>
			<path class="icons_0" d="M82.2,79.1L82.2,79.1c-0.6,0-1,0.5-1,1c0.1,2.6-0.1,5.2-0.5,7.8l-1.3,8c0,0.5,0.4,1,0.9,1s0.9-0.3,1-0.7
			l1.3-8c0.4-2.7,0.6-5.5,0.5-8.2C83.2,79.6,82.8,79.1,82.2,79.1L82.2,79.1z"/>
			<path class="icons_0" d="M68.5,77.2l-17.2,8.2L22.5,71.6c0.4-1.7,1-3.4,1.6-5c9.1,2.2,18.4,3.3,27.7,3.3c9,0,18-1.1,26.8-3.3
			c0.2,0.6,0.4,1.1,0.6,1.7c0.2,0.5,0.7,0.8,1.2,0.6s0.8-0.7,0.6-1.2c-0.3-0.9-0.6-1.7-0.9-2.5l-3.7-9.1c-3-7.4-3.9-15.4-2.6-23.3
			l2.1-13.1l0,0c4-4.4,4.6-10.8,1.5-15.9c-0.4-0.5-1-0.6-1.4-0.3s-0.5,0.8-0.3,1.3c3.3,5.4,1.6,12.4-3.8,15.6
			c-5.4,3.3-12.4,1.6-15.6-3.8c-1.1-1.8-1.7-3.8-1.7-5.9c0-0.5-0.4-1-1-1s-1,0.4-1,1C52.7,18.1,58.6,24,66,24c2.7,0,5.4-0.8,7.6-2.4
			l-1.8,10.8c-1.4,8.2-0.4,16.6,2.8,24.3l3.3,8c-17.4,4.2-35.6,4.2-53.1,0l3.3-8c0.2-0.5-0.1-1-0.6-1.2s-1,0.1-1.2,0.5l-3.7,9.1
			c-0.9,2.2-1.6,4.4-2.1,6.7c0,0.1-0.1,0.2-0.1,0.4C19.2,77.5,19,83,19.9,88.3l1.3,7.9c0,0.5,0.5,0.9,1,0.9s0.9-0.5,0.9-1
			c0-0.1,0-0.1,0-0.2l-1.3-8c-0.8-4.8-0.7-9.7,0.3-14.4L50.4,87v9c0,0.5,0.4,1,1,1c0.5,0,1-0.4,1-1l0,0v-9l17.1-8.2
			c0.5-0.2,0.7-0.8,0.5-1.3C69.6,77.2,69,77,68.5,77.2L68.5,77.2z"/>
			<path class="icons_0" d="M51.3,53.6c0.5,0,1-0.4,1-1l0,0v-1c0-0.5-0.4-1-1-1s-1,0.4-1,1l0,0v1C50.3,53.2,50.7,53.6,51.3,53.6
			L51.3,53.6z"/>
			<path class="icons_0" d="M36.3,50.3c0.5,0.1,1-0.2,1.2-0.7l0,0c0.3-1.3,0.6-2.6,0.7-3.9c0-0.5-0.4-1-0.9-1s-0.9,0.3-1,0.8
			c-0.1,1.2-0.4,2.4-0.7,3.6C35.5,49.6,35.8,50.2,36.3,50.3L36.3,50.3L36.3,50.3z"/>
			<path class="icons_0" d="M32.7,58.1c0.5,0.3,1,0.1,1.3-0.3c0.7-1.1,1.3-2.3,1.9-3.5c0.2-0.5,0-1.1-0.5-1.3s-1.1,0-1.3,0.5l0,0
			c-0.5,1.1-1.1,2.2-1.7,3.3C32.1,57.2,32.2,57.8,32.7,58.1z"/>
			<path class="icons_0" d="M37.8,36.8c-0.1-0.5-0.6-0.9-1.1-0.8c-0.5,0.1-0.9,0.6-0.8,1.1l0,0c0.2,1.2,0.4,2.4,0.5,3.7
			c0,0.5,0.5,0.9,1,0.9s0.9-0.5,0.9-1l0,0C38.2,39.4,38.1,38.1,37.8,36.8L37.8,36.8z"/>
			<path class="icons_0" d="M36,33.3c0.5-0.2,0.8-0.7,0.6-1.2c-0.4-1.3-1-2.5-1.6-3.7c-0.3-0.4-0.9-0.5-1.3-0.2c-0.4,0.3-0.5,0.8-0.3,1.2
			c0.6,1.1,1.1,2.2,1.5,3.4C34.9,33.2,35.5,33.4,36,33.3L36,33.3z"/>
			<path class="icons_0" d="M64.7,36.8c-0.2,1.3-0.4,2.6-0.5,3.9c0,0.5,0.4,1,0.9,1l0,0h0.1c0.5,0,0.9-0.4,1-0.9c0.1-1.2,0.2-2.5,0.5-3.7
			c0.1-0.5-0.2-1-0.8-1.1C65.3,35.9,64.8,36.3,64.7,36.8L64.7,36.8L64.7,36.8z"/>
			<path class="icons_0" d="M68.9,28c-0.5-0.3-1-0.1-1.3,0.3C67,29.5,66.4,30.8,66,32c-0.2,0.5,0.1,1,0.6,1.2s1-0.1,1.2-0.6l0,0
			c0.4-1.2,0.9-2.3,1.5-3.4C69.6,28.9,69.4,28.3,68.9,28L68.9,28z"/>
			<path class="icons_0" d="M66.9,49.1c-0.3-1.2-0.5-2.4-0.7-3.6c-0.1-0.5-0.5-0.9-1.1-0.8c-0.5,0.1-0.9,0.5-0.8,1.1l0,0
			c0.1,1.3,0.4,2.6,0.7,3.9c0.1,0.5,0.6,0.8,1.2,0.7C66.7,50.2,67.1,49.7,66.9,49.1L66.9,49.1L66.9,49.1z"/>
			<path class="icons_0" d="M68.6,57.8c0.3,0.5,0.9,0.6,1.3,0.3c0.5-0.3,0.6-0.9,0.3-1.3c-0.6-1.1-1.2-2.1-1.7-3.3
			c-0.2-0.5-0.8-0.7-1.3-0.5s-0.7,0.8-0.5,1.3l0,0C67.3,55.5,67.9,56.6,68.6,57.8L68.6,57.8z"/>
		</g>
		<g class="path-anim">
			<path class="icons_0 moving-path-0" d="M78.7,42.8c-0.5-0.1-1,0.2-1.1,0.7s0.2,1,0.7,1.1c0,0,0,0,0.1,0c7.8,1.5,13,8.8,11.8,16.6
			c-1.2,7.5-7.9,12.9-15.4,12.4l1.5-2.2c0.3-0.4,0.2-1-0.3-1.3c-0.4-0.3-1-0.2-1.3,0.3l-2.2,3.3c-0.1,0.2-0.2,0.5-0.2,0.8
			s0.2,0.6,0.4,0.8l3.3,3.4c0.4,0.4,1,0.4,1.4,0s0.4-1,0-1.4l0,0l-1.7-1.8c0.1,0,0.1,0,0.2,0c8.2,0,15.1-6,16.3-14
			C93.4,52.8,87.5,44.5,78.7,42.8L78.7,42.8z"/>
			<path class="icons_0 moving-path-1" d="M16.8,72.7C10,68.6,7.6,60,11.4,53c3.7-6.6,11.8-9.3,18.8-6.3L28,48.3c-0.4,0.3-0.5,0.9-0.2,1.3
			c0.3,0.4,0.9,0.5,1.3,0.2l3.2-2.4c0.2-0.2,0.4-0.4,0.5-0.7s0-0.6-0.1-0.8l-1.9-4.3c-0.2-0.5-0.8-0.7-1.3-0.5s-0.7,0.8-0.5,1.3l0,0
			l1,2.2c-7.7-2.9-16.4,0.2-20.4,7.4c-4.3,7.8-1.6,17.7,6,22.3c0.5,0.3,1,0.1,1.3-0.3C17.4,73.6,17.2,73,16.8,72.7L16.8,72.7z"/>
		</g>
	</g>
</svg>
