<svg xmlns="http://www.w3.org/2000/svg"
	xmlns:xlink="http://www.w3.org/1999/xlink" x="0px" y="0px" viewBox="0 0 100 100" style="enable-background:new 0 0 100 100;" xml:space="preserve">
	<style type="text/css">
	g{fill:currentcolor;}
	</style>
	<g>
		<g>
			<g class="water-drop-0">
				<path d="M59.3,39c-6.5,0.3-12.1-4.7-12.4-11.3c0-0.4,0-0.9,0-1.3c0-8.2,10.7-23.6,11.1-24.2c0.5-0.7,1.5-0.9,2.2-0.4
				c0.1,0.1,0.3,0.2,0.4,0.4c0.5,0.7,11.1,16,11.1,24.2C72.1,33,67.1,38.6,60.6,39C60.2,39.1,59.7,39.1,59.3,39 M59.3,5.8
				C55.9,11.1,50,21.1,50,26.4c0,5.2,4.2,9.4,9.3,9.4s9.3-4.2,9.3-9.4C68.6,21.1,62.7,11.1,59.3,5.8"/>
				<path d="M55.9,23.4c-0.9,0-1.6-0.7-1.6-1.6c0-0.2,0-0.4,0.1-0.6c0.2-0.5,0.4-1.1,0.7-1.6c0.4-0.8,1.3-1.1,2-0.8
				c0.8,0.4,1.1,1.3,0.8,2.1c-0.2,0.5-0.5,1-0.6,1.5C57.1,23,56.5,23.4,55.9,23.4"/>
				<path d="M57.7,32.7c-0.1,0-0.2,0-0.3,0c-2.1-0.4-3.7-2.1-4.1-4.2c-0.2-0.8,0.3-1.7,1.2-1.9c0.8-0.2,1.7,0.3,1.9,1.2l0,0
				c0.1,0.9,0.8,1.7,1.7,1.8c0.8,0.2,1.4,1,1.2,1.9C59.1,32.1,58.5,32.7,57.7,32.7"/>
			</g>
			<g class="water-drop-1">
				<path d="M38.4,54.7c-4.5,0.2-8.3-3.2-8.5-7.7c0-0.3,0-0.6,0-0.9c0-5.3,6.5-14.7,7.3-15.7c0.5-0.7,1.5-0.9,2.2-0.4
				c0.1,0.1,0.3,0.2,0.4,0.4c0.7,1.1,7.3,10.5,7.3,15.7c0.3,4.5-3.1,8.4-7.6,8.6C39,54.7,38.7,54.7,38.4,54.7 M38.4,34
				c-2.2,3.4-5.4,9.1-5.4,12c0,3,2.4,5.5,5.4,5.5s5.4-2.5,5.4-5.5C43.8,43.1,40.6,37.4,38.4,34"/>
				<path d="M37.6,49.2c-0.1,0-0.3,0-0.4-0.1c-0.9-0.2-1.9-0.9-1.9-3c0-0.9,0.7-1.6,1.5-1.6c0.9,0,1.6,0.7,1.6,1.6l0,0
				c0,0.1,0,0.1,0,0.2c0.7,0.4,1,1.4,0.5,2.1C38.7,48.9,38.1,49.1,37.6,49.2"/>
			</g>
			<g class="water-drop-2">
				<path d="M82.5,56.2c-5.6,0.4-10.4-3.8-10.8-9.5c0-0.4,0-0.8,0-1.2c0-6.7,8.6-18.7,9.6-20c0.5-0.7,1.5-0.8,2.2-0.3
				c0.1,0.1,0.2,0.2,0.3,0.3c1,1.3,9.6,13.3,9.6,20c0.2,5.6-4.1,10.4-9.7,10.7C83.3,56.3,82.9,56.3,82.5,56.2 M82.5,29.2
				c-2.9,4.3-7.7,12.3-7.7,16.4c0.2,4.3,3.7,7.7,8,7.5c4.1-0.1,7.3-3.4,7.5-7.5C90.3,41.5,85.5,33.5,82.5,29.2"/>
				<path d="M81,49.8c-0.2,0-0.3,0-0.5-0.1c-1.7-0.6-2.8-2.3-2.6-4.1c0-0.2,0-0.3,0-0.5c0.1-0.9,0.8-1.5,1.7-1.4
				c0.9,0.1,1.5,0.8,1.4,1.7c0,0,0,0,0,0.1v0.1c0,1,0.3,1.1,0.5,1.1c0.8,0.3,1.3,1.1,1,2C82.2,49.4,81.6,49.8,81,49.8"/>
			</g>
		</g>
		<g>
			<path d="M3.5,92.2c-0.9,0-1.5-0.7-1.5-1.6c0-0.4,0.2-0.8,0.5-1.1l13-13.2c0.4-0.4,0.6-0.8,0.8-1.3c1-3.7,5.5-15.7,18.2-15.7
			c5.2-0.2,10.5,0.7,15.3,2.8c0.4,0.2,0.9,0.3,1.3,0.3c5.3-0.2,10.7,0,16,0.7c2.6,0.5,6,1.6,6,5.6c0,4.9-5.1,6.3-7.7,6.3H46.9
			c-0.9,0-1.5-0.7-1.5-1.6s0.7-1.6,1.5-1.6h18.6c0.2,0,4.6-0.1,4.6-3.1c0-0.8,0-1.9-3.5-2.5c-5.1-0.6-10.3-0.8-15.5-0.6
			c-0.9,0-1.9-0.2-2.7-0.6c-4.4-1.9-9.2-2.7-14-2.5c-10.3,0-14.1,9.4-15.3,13.4c-0.3,1-0.8,1.9-1.6,2.7l-13,13.2
			C4.4,92.1,4,92.2,3.5,92.2"/>
			<path d="M29.9,98.5c-0.9,0-1.6-0.7-1.6-1.6c0-0.4,0.1-0.7,0.4-1l6.4-7.7c1.2-1.4,2.9-2.3,4.8-2.3h25.6c1.1-0.2,6.7-3.2,15.5-9.3
			c9.3-6.4,13.4-10.2,14-11.3c0-2.1-0.9-2.9-3.1-2.9c-1.2,0.1-8,3.2-20.2,10.1c-0.7,0.4-1.7,0.2-2.1-0.6c-0.4-0.8-0.2-1.7,0.6-2.1
			c2.6-1.5,7.5-4.2,12.1-6.5c6.8-3.5,8.7-4,9.6-4c3.1-0.3,5.9,1.9,6.2,5.1c0,0.4,0,0.8,0,1.2c0,0.9-0.4,2.2-5,6
			c-2.5,2.1-6.1,4.7-10,7.5c-3.7,2.6-7.5,5-10.6,6.9c-5.4,3.2-6.4,3.2-6.9,3.2H39.8c-0.9,0-1.8,0.4-2.4,1.1L31.1,98
			C30.8,98.3,30.3,98.5,29.9,98.5 M65.5,86L65.5,86z"/>
		</g>
	</g>
</svg>
