<svg xmlns="http://www.w3.org/2000/svg" xmlns:xlink="http://www.w3.org/1999/xlink" x="0px" y="0px" viewBox="0 0 45.6 36.2" style="enable-background:new 0 0 45.6 36.2;" xml:space="preserve"><g transform="translate(1024 1920.05)">	<g>		<path d="M-1006.4-1883.9c-1.2,0-2.2-0.2-3.2-0.5c-7.9-2.9-4.8-13.1-2.2-21.3c0.5-1.7,1-3.2,1.4-4.6c1.1-4.4-0.6-7.1-2.6-7.7   c-2.9-0.8-7.1,2.1-9.6,10.3c-0.1,0.3-0.5,0.5-0.8,0.4c-0.3-0.1-0.5-0.5-0.4-0.8c2.7-9.1,7.6-12.1,11.2-11.1   c2.7,0.7,4.9,3.9,3.5,9.2c-0.4,1.4-0.9,3-1.4,4.7c-2.4,7.7-5.4,17.2,1.4,19.7c2.5,0.9,6,0.4,9.3-1.3c2.2-1.2,5.7-3.7,8.5-8.5   c-4-1.5-7-5.6-7.8-10.7c-0.9-5.4,1-10.6,4.9-13.8c0.2-0.1,0.4-0.2,0.6-0.1c5.7,2.2,8.4,9.7,6.4,17.5c-0.6,2.4-1.4,4.4-2.3,6.2   c3.1,0.6,6.6-0.6,10.1-3.5c0.3-0.2,0.7-0.2,0.9,0.1c0.2,0.3,0.2,0.7-0.1,0.9c-4.8,4-8.7,4.3-11.5,3.7c-2.9,5.3-6.8,8-9.2,9.3   C-1001.7-1884.5-1004.2-1883.9-1006.4-1883.9z M-993.7-1918.7c-3.4,2.9-5,7.5-4.2,12.3c0.7,4.6,3.5,8.4,7,9.7c0,0,0.1,0,0.1,0   c0.9-1.8,1.7-3.8,2.3-6.2C-986.6-1909.8-988.9-1916.6-993.7-1918.7z"></path>	</g>	<g>		<path d="M-990.4-1895.2c-0.2,0-0.5-0.1-0.6-0.3c-3.1-5.7-4.2-12.4-3.2-18.8c0.1-0.4,0.4-0.6,0.7-0.5c0.4,0.1,0.6,0.4,0.5,0.7   c-1,6.1,0.1,12.5,3.1,18c0.2,0.3,0.1,0.7-0.3,0.9C-990.2-1895.2-990.3-1895.2-990.4-1895.2z"></path>	</g>	<g>		<path d="M-993.5-1904c-0.1,0-0.3,0-0.4-0.2c-0.3-0.2-0.3-0.6-0.1-0.9l3.5-4.2c0.2-0.3,0.6-0.3,0.9-0.1c0.3,0.2,0.3,0.6,0.1,0.9   l-3.5,4.2C-993.1-1904.1-993.3-1904-993.5-1904z"></path>	</g></g></svg>