<svg xmlns="http://www.w3.org/2000/svg" viewBox="0 0 100 100"><path d="M82.35,54.56V76.48A13.55,13.55,0,0,1,68.83,90h-54A13.55,13.55,0,0,1,1.35,76.48v-54A13.55,13.55,0,0,1,14.86,9h54a5,5,0,0,1,.86.05v5.11a2.53,2.53,0,0,0-.86-.1h-54a8.47,8.47,0,0,0-8.45,8.46v54a8.47,8.47,0,0,0,8.45,8.46h54a8.47,8.47,0,0,0,8.45-8.46V54.56Z"></path><path d="M98.08,19.85a3.11,3.11,0,0,1-.13,4.4L82.35,39l-5.07,4.81L46.15,73.27a3.12,3.12,0,0,1-4.42-.13l-23.52-25a3.11,3.11,0,0,1,.13-4.4l6.5-6.14a3.12,3.12,0,0,1,4.42.13l13.08,14a3.12,3.12,0,0,0,4.42.13L77.28,22.92l4.51-4.25,5.73-5.44a3.12,3.12,0,0,1,4.42.12Z"></path></svg>