<svg xmlns="http://www.w3.org/2000/svg" xmlns:xlink="http://www.w3.org/1999/xlink" x="0px" y="0px" viewBox="0 0 18.3 20.2" style="enable-background:new 0 0 18.3 20.2;" xml:space="preserve"><g transform="translate(-181.853 -6829.052)">	<path d="M183.2,6849.3c-0.2,0-0.4,0-0.6-0.1c-0.5-0.2-0.8-0.7-0.8-1.2c0-0.4,0.2-0.8,0.5-1l8.7-7.5l8.7,7.5  c0.3,0.3,0.5,0.6,0.5,1c0,0.5-0.3,1-0.8,1.2c-0.2,0.1-0.4,0.1-0.6,0.1c-0.3,0-0.6-0.1-0.9-0.3l-6.9-6l-6.9,6  C183.9,6849.1,183.5,6849.3,183.2,6849.3z"></path>	<path d="M183.2,6839c-0.2,0-0.4,0-0.6-0.1c-0.5-0.2-0.8-0.7-0.8-1.2c0-0.4,0.2-0.8,0.5-1l8.7-7.5l8.7,7.5  c0.3,0.3,0.5,0.6,0.5,1c0,0.5-0.3,1-0.8,1.2c-0.2,0.1-0.4,0.1-0.6,0.1c-0.3,0-0.6-0.1-0.9-0.3l-6.9-6l-6.9,6  C183.9,6838.8,183.5,6839,183.2,6839z"></path></g></svg>