<svg xmlns="http://www.w3.org/2000/svg" xmlns:xlink="http://www.w3.org/1999/xlink" x="0px" y="0px" viewBox="0 0 49.6 44" style="enable-background:new 0 0 49.6 44;" xml:space="preserve"><style type="text/css">	.emer-1{fill:#D25239;}</style><g transform="translate(983 734)">	<g>						<g>			<path d="M-937.8-720.4L-937.8-720.4c-0.2,0-0.3,0-0.5,0c-4.2-11-16.5-16.5-27.4-12.3     c-5.7,2.2-10.1,6.6-12.3,12.3c-0.2,0-0.3,0-0.5,0h0c-2.5,0-4.4,3.3-4.4,7.6c0,4.3,2,7.6,4.4,7.6h0c0.2,0,0.3,0,0.5,0     c0,0,0.4-0.1,0.8-0.3c0.4-0.1,0.6-0.6,0.5-1c-3.5-10.3,2-21.4,12.3-24.9c10.3-3.5,21.4,2,24.9,12.3c0.7,2,1,4.2,1,6.3     c0,2.7-0.6,5.4-1.6,7.9l0,0c-0.1,0.1-0.1,0.2-0.2,0.4c-2.9,6.2-8.8,10.4-15.6,11.2c-0.5-1.2-1.9-1.7-3.1-1.2     c-1.2,0.5-1.7,1.9-1.2,3.1c0.5,1.2,1.9,1.7,3.1,1.2c0.6-0.3,1.1-0.8,1.3-1.4c7.4-0.8,13.8-5.3,17-12l0,0c0,0,0-0.1,0.1-0.1     c0.1-0.1,0.1-0.3,0.2-0.4l0-0.1c0.1-0.3,0.3-0.6,0.4-1c0.2,0,0.3,0,0.5,0h0c2.5,0,4.4-3.3,4.4-7.6     C-933.4-717-935.3-720.4-937.8-720.4"></path>			<path class="emer-1" d="M-965.2-699.5c7.4,3.9,16.5,1.1,20.3-6.3s1.1-16.5-6.3-20.3s-16.5-1.1-20.3,6.3     c-2.6,5-2.3,11,1,15.7c0.2,0.2,0.2,0.6,0.1,0.8l-2.8,5.7c-0.2,0.4,0,0.9,0.4,1.1c0.2,0.1,0.5,0.1,0.7,0l6.1-3     C-965.7-699.6-965.5-699.6-965.2-699.5"></path>		</g>	</g></g></svg>