<svg xmlns="http://www.w3.org/2000/svg" xmlns:xlink="http://www.w3.org/1999/xlink" data-name="Group 152" width="148.298" height="104.46" viewBox="0 0 148.298 104.46"><defs><clipPath><rect data-name="Rectangle 111" width="148.298" height="104.46" fill="none"></rect></clipPath></defs><g data-name="Group 151" clip-path="url(#clip-path)"><path data-name="Path 185" d="M47.965,7.262C14.181,24.08-22.64,101.107,45.09,90.046c-21,22.278-51.677,18.51-42.994-20.606.045-.2-.469-.346-.512-.156C-7.848,111,27.056,112.718,47.671,89.571a84.107,84.107,0,0,0,15.993-5,11.629,11.629,0,0,0,3.765,4.23,18.929,18.929,0,0,1-3.412-4.378c2.638-1.122,5.227-2.361,7.76-3.693-3.117,7.76,5.229,10.292,9.9,4.693.25,5.547,8.076,6.754,13.674.1-.123,1.154-.222,2.32-.387,3.492-.107.755,1.359,1.248,1.9.9,1.959-1.26,4.056-2.322,5.355-3.754.668,3.506,4.321,3.1,7.028.465a15.535,15.535,0,0,1-.481,2.421c-.223.743,1.424,1.123,1.855.718,1.776-1.669,3.932-2.9,5.765-4.5a25.932,25.932,0,0,1,.323,2.783c.029.708,1.5.986,1.942.593,1.744-1.551,4.37-1.412,7.406-2.956,2.6,21.284,35.838-16.329,15.9-53.76-14.118-26.509-59.491-41.838-94-24.662M79.213,3.985c8.769,8.352-12.967,51.305-18.58,62.039C57.877,9.839,71.211-3.635,79.213,3.985M25.4,88.818c-33.914-5.287-6.588-55.6,11.68-71.8C46.26,8.871,58.3,3.881,70.672,2.205,57.443,9.75,58.271,51.39,59.806,67.6c-3.814,7.246-7.679,14.327-12.954,20.478a59.7,59.7,0,0,1-21.455.74m24.037-1.331A102.673,102.673,0,0,0,60.12,70.5c.537,4.376,1.252,8.9,2.738,12.4a84.877,84.877,0,0,1-13.423,4.586M129.39,90.5c-1.473-1.42-1.479-4.286-1.562-6.152-.032-.72-1.41-.88-1.851-.566-2.166,1.537-5.041,1.746-7.4,2.843-.152-1.134-.356-2.262-.4-3.411-.023-.65-1.574-1.088-1.966-.6a26.907,26.907,0,0,1-5.009,4.332,22.409,22.409,0,0,1,.664-3.581c.217-.707-1.528-1.265-1.913-.741a15.083,15.083,0,0,1-4.5,4.479c-.937.521-1,.321-1.218-.653a10.752,10.752,0,0,1,.251-4.214c.148-.8-1.76-1.393-2.068-.633A12.27,12.27,0,0,1,97.3,87.379c.251-4.014.324-4.8,1.354-7.465.251-.651-1.5-1.2-1.808-.552-.26.54-2.956,8.27-9.73,9.5-4.679.847-3.881-4.507-2.424-9.025.156-.485-1.062-.84-1.284-.392a19.283,19.283,0,0,0-1.436,3.6c-4.4,7.658-12.5,4.956-9.249-2.816,18.764-10.086,38.027-26.9,51.924-47.67.341-.51-.964-1-1.272-.606-13.5,17.352-29.8,33.774-48.82,44.967.152-.236-.332-.383-.438-.244-.2.263-.405.55-.609.851a107.177,107.177,0,0,1-10.251,5.2c-1.641-4.166-2.068-9.169-2.421-13.565C67.327,56.844,85.365,21.149,82.375,7.475a7.753,7.753,0,0,0-5.722-5.827c26.231-1.361,65.135,12.058,69.213,50.024,2.764,25.736-14.012,41.206-16.476,38.83" transform="translate(0 0)" fill="currentColor"></path></g></svg>