<svg xmlns="http://www.w3.org/2000/svg" xmlns:xlink="http://www.w3.org/1999/xlink" x="0px" y="0px" viewBox="0 0 128.1 30" style="enable-background:new 0 0 128.1 30;" xml:space="preserve"><polygon points="122.4,12.2 119.6,5 116.8,12.2 109.1,12.7 115,17.6 113.1,25.1 119.6,21 123,23.2 123,12.3 "></polygon><polygon points="95.4,12.2 92.6,5 89.8,12.2 82.1,12.7 88,17.6 86.1,25.1 92.6,21 99.1,25.1 97.2,17.6 103.1,12.7 "></polygon><polygon points="68.4,12.2 65.6,5 62.8,12.2 55.1,12.7 61,17.6 59.1,25.1 65.6,21 72.1,25.1 70.2,17.6 76.1,12.7 "></polygon><polygon points="41.3,12.2 38.5,5 35.7,12.2 28,12.7 33.9,17.6 32,25.1 38.5,21 45,25.1 43.1,17.6 49,12.7 "></polygon><polygon points="14.3,12.2 11.5,5 8.7,12.2 1,12.7 6.9,17.6 5,25.1 11.5,21 18,25.1 16.1,17.6 22,12.7 "></polygon></svg>