<svg xmlns="http://www.w3.org/2000/svg" xmlns:xlink="http://www.w3.org/1999/xlink" x="0px" y="0px" viewBox="0 0 59 59" style="enable-background:new 0 0 59 59;" xml:space="preserve"><g>	<path d="M29.5,0C13.2,0,0,13.2,0,29.5S13.2,59,29.5,59S59,45.8,59,29.5S45.8,0,29.5,0z M29.5,57.2c-15.3,0-27.7-12.4-27.7-27.7  S14.2,1.8,29.5,1.8s27.7,12.4,27.7,27.7S44.8,57.2,29.5,57.2z"></path>	<path d="M39,27.5c1.3,0.8,1.8,2.5,1,3.9c-0.2,0.4-0.6,0.7-1,1l-12.3,7.3c-1.3,0.8-3.1,0.4-3.9-1c-0.3-0.4-0.4-0.9-0.4-1.4V22.7  c0-1.6,1.3-2.8,2.8-2.8c0.5,0,1,0.1,1.4,0.4L39,27.5z"></path></g></svg>